<mxfile host="app.diagrams.net" modified="2023-11-04T10:57:56.202Z" agent="Mozilla/5.0 (Windows NT 10.0; Win64; x64) AppleWebKit/537.36 (KHTML, like Gecko) Chrome/118.0.0.0 Safari/537.36" etag="w0QpUS4lUVGrgi414HQQ" version="22.0.8" type="device">
  <diagram name="Page-1" id="ATSHWtkeMJnMLQiCMW0N">
    <mxGraphModel dx="1134" dy="726" grid="0" gridSize="10" guides="1" tooltips="1" connect="1" arrows="1" fold="1" page="1" pageScale="1" pageWidth="827" pageHeight="1169" math="0" shadow="0">
      <root>
        <mxCell id="0" />
        <mxCell id="1" parent="0" />
        <mxCell id="gNN2da5b-dhJhMU2A_-u-11" style="edgeStyle=orthogonalEdgeStyle;rounded=0;orthogonalLoop=1;jettySize=auto;html=1;entryX=0.455;entryY=0.956;entryDx=0;entryDy=0;entryPerimeter=0;" edge="1" parent="1" source="gNN2da5b-dhJhMU2A_-u-1" target="gNN2da5b-dhJhMU2A_-u-12">
          <mxGeometry relative="1" as="geometry">
            <mxPoint x="354" y="429" as="targetPoint" />
          </mxGeometry>
        </mxCell>
        <mxCell id="gNN2da5b-dhJhMU2A_-u-1" value="" style="shape=image;verticalLabelPosition=bottom;labelBackgroundColor=default;verticalAlign=top;aspect=fixed;imageAspect=0;image=https://cdn.idealo.com/folder/Product/200841/0/200841028/s3_produktbild_gross_10/apple-mac-mini-2020-m1.jpg;" vertex="1" parent="1">
          <mxGeometry x="312.5" y="519" width="83" height="69.17" as="geometry" />
        </mxCell>
        <mxCell id="gNN2da5b-dhJhMU2A_-u-5" value="" style="shape=image;verticalLabelPosition=bottom;labelBackgroundColor=default;verticalAlign=top;aspect=fixed;imageAspect=0;image=data:image/png,iVBORw0KGgoAAAANSUhEUgAAB2cAAAGMCAYAAADujqmPAAAgAElEQVR4AeydB5QUVdbHmRmGISdJIlFR1iyurmEFs+i6a1h3cVf9dNVNBnQCGZQgLqAYUBAUdVlFQQwIKCKCAQVEhQXJOXb3zPTk2LHud+64LUPzZqa7K3S9ev86Z850V1e9evW79766r/5V7zUiLCAAAiAAAiAAAiAAAiAAAiAAAiAAAiAAAiAAAiAAAiAAAiAAAiAAAiAAAqYTaGT6EXAAEAABEAABEAABEAABEAABEAABEAABEAABEAABEAABEAABEAABEAABEAABgjgLJwABEAABEAABEAABEAABEAABEAABEAABEAABEAABEAABEAABEAABEAABCwhAnLUAMg4BAiAAAiAAAiAAAiAAAiAAAiAAAiAAAiAAAiAAAiAAAiAAAiAAAiAAAhBn4QMgAAIgAAIgAAIgAAIgAAIgAAIgAAIgAAIgAAIgAAIgAAIgAAIgAAIgYAEBiLMWQMYhQAAEQAAEQAAEQAAEQAAEQAAEQAAEQAAEQAAEQAAEQAAEQAAEQAAEQADiLHwABEAABEAABEAABEAABEAABEAABEAABEAABEAABEAABEAABEAABEAABCwgAHHWAsg4BAiAAAiAAAiAAAiAAAiAAAiAAAiAAAiAAAiAAAiAAAiAAAiAAAiAAAhAnLWhD6xZs4YmT55MN910E/Xt25d69uxJXbt2pS5dulCnTp3oxBNPpJNOOol69epF559/Pt1999306quv0u7du214NqhSsgns27ePXn/9dfrLX/5S4y/sN+w/7EfsT+xX/J397PTTT6dbbrmFpk6dSuvWrUt21XF8EAABEAABEAABEAABEAABEAABEAABEAABEAABEAABEAABEHAUAYizSTRnOBym0tJSys7OpmbNmlGjRo0M++vduzfNmTOHAoEAaZqWxLPEoa0kEAwGad68eTWivpH+1KpVKxo5ciSVlZUR+y0WEAABEAABEAABEAABEAABEAABEAABEAABEAABEAABEAABEACB+AlAnI2fma49Kisrae3atTRgwADDhNiGRLi0tLQaAfjAgQMQ1nRZz347s/B+6NChGuG0SZMmlvnUddddR+vXr6eqqir7QUGNQAAEQAAEQAAEQAAEQAAEQAAEQAAEQAAEQAAEQAAEQAAEQMCmBCDOWmSYnTt3UmZmJjVu3NgyAU0k2nbv3r3mzUq/32/RmeMwZhDgN6IXLFhA/Ia0yM5WrWNBeMSIEbR3714zThNlggAIgAAIgAAIgAAIgAAIgAAIgAAIgAAIgAAIgAAIgAAIgICjCECcNdmc33zzDV1zzTVJFdBEQl1GRgY98cQT5PP5TCaA4o0kwG+qst3YfiK7JnPdjTfeSN9//72Rp4uyQAAEQAAEQAAEQAAEQAAEQAAEQAAEQAAEQAAEQAAEQAAEQMBRBCDOmmTOzZs306WXXkopKSm2E9FqC3itW7emSZMmYV5ak/zAqGJ5ntcJEyYQ26u2/ez2mf39iiuuoF27dhl16igHBEAABEAABEAABEAABEAABEAABEAABEAABEAABEAABEAABBxDAOKswabkN1EHDhxIPM+r3YSz+urTqVOnmjlEDcaB4gwg8NVXX1GHDh2k8icevvu2224jDJ9tgAOgCBAAARAAARAAARAAARAAARAAARAAARAAARAAARAAARAAAccQgDhroCk/+ugj278pW59Ay79dcsklBhJBUXoJ9OzZUypRNtq/+E3aNWvW6MWA/UEABEAABEAABEAABEAABEAABEAABEAABEAABEAABEAABEDAEQQgzhpgxtLSUurXr5/UIlptUY3fety0aZMBZFBEogRWrlxJbIfadpH580UXXUQVFRWJ4sB+IAACIAACIAACIAACIAACIAACIAACIAACIAACIAACIAACIOAIAhBndZqR3wps2bKlY0S0iADIbzxOnjyZeK5TLNYR4GGx//a3vznOn9iv2rZtSxs2bLAOJo4EAiAAAiAAAiAAAiAAAiAAAiAAAiAAAiAAAiAAAiAAAiAAAjYjAHE2QYNomkbPPPOM9MMYR8TYuv7fdNNNVF1dnSAl7BYPgaKiIjr33HMdKcxG/IvnYp4+fXo8WLAtCIAACIAACIAACIAACIAACIAACIAACIAACIAACIAACIAACDiGAMTZBE15zz33OFpEi4hp/P/ss8+mqqqqBElht1gIHDp0iE444QRlfGrw4MHEDzhgAQEQAAEQAAEQAAEQAAEQAAEQAAEQAAEQAAEQAAEQAAEQAAGVCECcTcDal1xyiTIiWkSk7dKlSwKksEssBHbu3Enp6enK+dS1114bCx5sAwIgAAIgAAIgAAIgAAIgAAIgAAIgAAIgAAIgAAIgAAIgAAKOIQBxNk5T/v73v1dORIsItE2bNo2TFjZviMDGjRspNTVVWZ/iN2ixgAAIgAAIgAAIgAAIgAAIgAAIgAAIgAAIgAAIgAAIgAAIgIAqBCDOJmDpU089VVkxrXPnzpiDNgGfEe2yYcMG4jlYI+K3av8vvPBCERasAwEQAAEQAAEQAAEQAAEQAAEQAAEQAAEQAAEQAAEQAAEQAAHHEoA4m4Bpea7M0047TVlR7ayzzqLKysoEyGGXCIGtW7dSRkaGsj507rnnUigUiuDAfxAAARAAARAAARAAARAAARAAARAAARAAARAAARAAARAAARBQggDE2QTNXF5eTr169VJWXLv66qvJ7/cnSE/t3Q4fPkxt2rRR1nf69u1LFRUVajsBzh4EQAAEQAAEQAAEQAAEQAAEQAAEQAAEQAAEQAAEQAAEQEBJAhBndZjd4/FQx44dlRXZeP7dcDisg6B6u/Ibx126dFHWZ7p160Zer1c9w+OMQQAEQAAEQAAEQAAEQAAEQAAEQAAEQAAEQAAEQAAEQAAEQICIIM7qdIN9+/ZR8+bNlRXb7rvvPp0E1dq9a9euyvpK69at6ciRI2oZHGcLAiAAAiAAAiAAAiAAAiAAAiAAAiAAAiAAAiAAAiAAAiAAArUIQJytBSPRj9u3b6e0tDRlRbfhw4cnik6p/bp3766sjzRu3Jh4OGcsIAACIAACIAACIAACIAACIAACIAACIAACIAACIAACIAACIKAyAYizBll/9erVygpvjRo1otdff90gks4rRtM06t+/v9L+wQ8wYAEBEAABEAABEAABEAABEAABEAABEAABEAABEAABEAABEAAB1QlAnDXQA9544w1lBbiUlBRauHChgTSdURQLs/fee6+yfsHC/aeffuoMY+IsQAAEQAAEQAAEQAAEQAAEQAAEQAAEQAAEQAAEQAAEQAAEQEAnAYizOgFG7z5p0iRlhTgeuvaLL76IRqL098cee0xZf2BhdtasWUrbHycPAiAAAiAAAiAAAiAAAiAAAiAAAiAAAiAAAiAAAiAAAiAAArUJQJytTcOAz/ymZE5OjrKCXLNmzWjjxo0GkJS/CBYmWaBU9Y+FaSwgAAIgAAIgAAIgAAIgAAIgAAIgAAIgAAIgAAIgAAIgAAIgAAJHCUCcPcrCsE+hUIjuvPNOZUW5Vq1akcfjMYynjAXxUL6qirJ83vfffz+Fw2EZTYc6gwAIgAAIgAAIgAAIgAAIgAAIgAAIgAAIgAAIgAAIgAAIgIBpBCDOmoSWBdr+/fsrK9A1b96cgsGgSXTtXeyBAweI5+BVVZy96qqrIMza20VROxAAARAAARAAARAAARAAARAAARAAARAAARAAARAAARAAgSQRgDhrMvjevXsrK9KlpaURi9QqLV6vV2lh9pRTTlHJ3DhXEAABEAABEAABEAABEAABEAABEAABEAABEAABEAABEAABEIiLAMTZuHDFvzHPQduxY0dlBdoePXqQ3++PH5yEe/BQzi1btlTW1p06dZLQaqgyCIAACIAACIAACIAACIAACIAACIAACIAACIAACIAACIAACFhHAOKsBaxZnOR5WFUd5nbAgAGOf4OW35jt2rWrsjbu0KGD421sQVOBQ4AACIAACIAACIAACIAACIAACIAACIAACIAACIAACIAACDicAMRZiwzscrkoIyNDWfFu0KBBxG8RO3EpLy+n008/XVnb8tvCbrfbiabFOYEACIAACIAACIAACIAACIAACIAACIAACIAACIAACIAACICAoQQgzhqKs/7CNm7cSKmpqcqKeIMHD64fkIS/BoNBuvDCC5W1aXp6Om3ZskVCy6HKIAACIAACIAACIAACIAACIAACIAACIAACIAACIAACIAACIGA9AYizFjP/9NNPlRXyeFjnKVOmWEzc3MP1799fWXumpKTQ6tWrzQWM0kEABEAABEAABEAABEAABEAABEAABEAABEAABEAABEAABEDAQQQgzibBmHPmzFFW0GOBdvHixUmgbvwhb775ZqXtuHDhQuOhokQQAAEQAAEQAAEQAAEQAAEQAAEQAAEQAAEQAAEQAAEQAAEQcDABiLNJMu64ceOI3zxksVLFv6+++ipJ5I057NChQ5W0W8RXnfYGtDFegVJAAARAAARAAARAAARAAARAAARAAARAAARAAARAAARAAARAoH4CEGfr52Pqr//4xz+UFfjS0tKkHRJ3xowZytqNxdnMzExT4wKFgwAIgAAIgAAIgAAIgAAIgAAIgAAIgAAIgAAIgAAIgAAIgIBTCThGnA2V5VJg/xqqXP82lX85jco+HkMlH2RSyYJ/UvH8v1HJ+4OpdPEwKvv0SapY+yr5tn1MwbwdpIWCSbXt7bffrqzQ17x5c9q0aVNS+cd78AULFlBqaqqyNrv//vvjRWbo9lo4SAHPVqrevJgq186msk8n1sR16fuP/BTnC/5JpQuzqHTpY1T+1QtUuX4e+Q98S+EKr6H1QGEgAAIgAAIgAAIgAAIgAAIgAAIgAAIgAAIgAAIgAAIgAAIgkAgBKcXZUKmbKla9SIWv/JbyJp9J7mEtyJXZKMG/FPKMPYkKXhxAxe8PJt+eVUSalgjLhPYJhUJ09dVXKyv2tWvXjvbv358QO6t3+vrrryk9PV1ZW916663E/mrZooXJv2slFS94gLzTLiPP4yeS69FE47wRuYe3orwpZ1Ph7JupcvXLFK4osOxUcCAQAAEQAAEQAAEQAAEQAAEQAAEQAAEQAAEQAAEQAAEQAAEQYALSiLPV2z4h77Rfk2dU+wRF2NhFHfeQppQ7oTeVfTqBtKDPdE/x+/10zjnnKCv6tW/fnoqLi03nrOcABw4coIyMDGVtdOmll1IgENCDMKZ9NV8FlS4ZQbnje5J7SIbpse4Z3YG8L15B/j1yz4EcE1xsBAIgAAIgAAIgAAIgAAIgAAIgAAIgAAIgAAIgAAIgAAIgkHQCthZnw6Ue8jxxCrmyUkwXaep789Y9tDlVrptjqrFY+DrxxBOVFf9atWplifiXiBHZNikpKcraplevXqSZ+Ta5plHF19MtEWPri3NXZgrlP3UehatLE3ET7AMCIAACIAACIAACIAACIAACIAACIAACIAACIAACIAACIAACDRKwnTir+Suocu1r5M4x/625+oUa8Zu2RW/cQSwam7GUlpYSD/PbqFEjJf+6detG4XDYDLQJl1lZWam0MNuxY0fy+cx5ezxU6qKC2Tcl9cGLutoA99BmVLVhHmmBqoR9BzuCAAiAAAiAAAiAAAiAAAiAAAiAAAiAAAiAAAiAAAiAAAiAQDQB24izWnUZlS2bQK7MVFuKNdEiTuHLN1DAszWap+7vhw8fpqZNmyopzrIofdFFF5n7lmYcFqqqqlL6bWb2w8LCwjiIxbZp4MhG8r4wQIo4d2WnU/nnU0nzV8Z2ctgKBEAABEAABEAABEAABEAABEAABEAABEAABEAABEAABEAABOohkHxxNhyisuVPkis7TQ6xJvPYN2qL5gyiUPHhehDH/9PmzZuVFWdZoB00aFD80Azeg4cy/uUvf6msHXgYZ55n18glVHSQCmb/Tso45zf5y1c+TWTm8M5GwkZZIAACIAACIAACIAACIAACIAACIAACIAACIAACIAACIAACtiSQVHG26r8LKPfxLlKKNce8SZudTqWLhhlq4K+//lpZYZAF2ocffthQnvEUxvOr3nDDDUrz//777+NB1uC2xe8+KM1b8cfEdtTDGLnjupNv68cNni82AAEQAAEQAAEQAAEQAAEQAAEQAAEQAAEQAAEQAAEQAAEQAAERgaSIs2FfGXmf/zW5slLkF2ZriTeeMZ0oaOBQxwsXLlRaIJw0aZLIZ01fd8899yjN/eOPjRMf/fu+Js+Yjo6Kc1dmChVMv5rCGOrY9FjEAUAABEAABEAABEAABEAABEAABEAABEAABEAABEAABEDAaQQsF2cD+9eQK0vOIYzre6Pu59+yUqh43n2G+cmLL76otFD4zjvvGMYyloImTJigNO/Zs2fHgimmbYr+82fHPYDxc5zzQxnZjSlweH1MLLARCIAACIAACIAACIAACIAACIAACIAACIAACIAACIAACIAACDAB68TZcJC8s25w2Bt0x84/W1u4yZvQm8IVBYZ4WWZmptKC4bfffmsIx4YKmTdvntKchw8f3hCimH4PlbrJM6azMrFe/PZ9RFo4JjbYCARAAARAAARAAARAAARAAARAAARAAARAAARAAARAAARAQG0CloizNWLN+J7KiDU/i7RZaeTf85UhHnbbbbcpLRxu3brVEI51FbJ06VKl+d511111oYlrvW/bMvXiPLMR5U48jTSDHsaICzg2BgEQAAEQAAEQAAEQAAEQAAEQAAEQAAEQAAEQAAEQAAEQkIqA6eIsD/vpGdlOScEmItKWr5puiFP0799fWQExNTWVduzYYQjH6EK++OILSktLU5btwIEDo5Ek9L38sylKx7lndAcKeLYlxA47gQAIgAAIgAAIgAAIgAAIgAAIgAAIgAAIgAAIgAAIgAAIqEHAVHHWt3MFuYdkKC3YRATa4ncf0u1R4XCYTj75ZGVFxDZt2tCRI0d0c6xdwPr166l58+bKMj3vvPNq40j4c/Fbf0GcZzYi97AW5Nv7TcIcsSMIgAAIgAAIgAAIgAAIgAAIgAAIgAAIgAAIgAAIgAAIgICzCZgmzlZvX06u7DQINplH56UtnDNItzf5/X5q3769smJi586dqaSkRDdHLuDgwYPUunVrZVn26NGD2J/0LoWv/BZxXivOXTnp5N+3Ri9W7A8CIAACIAACIAACIAACIAACIAACIAACIAACIAACIAACIOBAAqaJs4GDP0CwqS3Y/O9z0Zw/63YjFiczMjKUFhUDgYAujmVlZUoLsyxKMwO9S+HsmxDngjgPHNmoF63t9+fhwK+++mpq27YttWzZsuYNdH4LHX/OYtCiRYsa+/LIBfxg0MUXX0yjRo2iVatWkaZptvdTO1QwGAzS1KlTqW/fvjXXHcSLs2KkdpvH8dKqVauadrFjx470u9/9jp599lnat2+fHVwRdfgfgY0bN9LEiRNrrmHcrnH7xnHJ9qttT3w2L1Yj1xbOR9u1a0fnnHMOZWZm0tKlS4nbTCwmENDC5D/4PVV8+RwVz/8HeadfSblTz6e8iadS7tPnkfeFAVT0n9upbOnjVP3jBxSuKDShEihSFgL+A99R+VfTqPidf1DBS9dS3jMXUO4TfWp8Jv/5XxPf0yj7ZBxVb1lCmq9CltMytJ779++ne++9lzp16lRz7U/GNSSSd0Ta0gsuuIAGDx5M7733HtpSQ61tn8J8Ph+9++679NBDD1G/fv1qrqFsf84/k+mDHTp0oEGDBtHWrVvtA8vmNdm2bRtNnjyZeJox7jdwPposO6qa80bno2eeeSY9/PDDtGjRItJ7z9nm7pe86mkaBQ//lyq+mkYlCx4g74xra3KL3ImnUd5T51HetP5UNGcQlX38GFX9dwGFy73JqyuOnFQCfL8xcHgDVax6kUrefZC8/8tHPRP7UP7T/cj7/KVU8O9BVPbJWKresoi0av0aR7JO2DRxlk+oav18cmWlQLyJEm+KF/yTSOdN7UOHDlGTJk2UFWjPOOOMhDsc/LYoJ4+NGjVS8o8Tr7y8PJ1tjkZFc25HbEfFtiszhaq3LNbJ1p6784Xx8OHDxENhqxo7OG9xm8miBgu2Ho/HkLfx7RkB8dWKO3PvvPMONWvWDPGi6LW2rvaC85c333yzZhQQnq4Ci3kEWOQrKiqi559/nrp3745YlCwW09LS6J///Cdxn6e6uto8R3FayVqYwlUl5Nu8mLzP9zckV/cMa0llH4+hUImbtKDPacTUPR9NI626hKq3fET5z19qjK881oXKPptM4TIPaUH9IzTZzTh8TfnjH/8o1fUkNTWV/vrXv9a0pVVVVXZDivrUQ4DttXfv3pqHAOrKK+26/rrrrjNsxLt6EEnxE+f73HbMmjVL6Wnq7OqrDdUrJSWF7rvvPtq9ezfy0TgiTtPCpFWXkm/HMvJOv9qQHMM1JINKFw+jYOFB0gLoG8RhDntvWpOPllL1juVUMP0K4vvqkSlCE/3vGdORyj99gsKlcvRdTBVn2fplyyfphpqoMey8X9myCbrfOlq3bh01bdpUqs5BQxe+eH7nt/biXVhg4reX4jmOk7ZlYXbLli3xYjtu+9LFwxHXAmG2/Mvnj2PlhBUs5l9//fXKxo2T2gArzuW2226j7777TtmnTb/88kuIspKJQFbEhegYnMONHj26prPvhGuFHc6Bb4BxnjN8+HBKT0/HdctBsXjllVfS559/ThAXxJEWzNtOpUtGkmtIM9NzdO8Ll1P1zhWk+SvFlcFa2xLgm6XBvB1U05fLSjfdVwpeuo78e78hzS/327WVlZX06KOPOuKawm9bLlu2jEpLS23rpypXjEc3W7lyJV166aWO8Lc777xTSZGW7zvym7EjR44kfthM1A/AOvGD33bnwiMULF++nPi6gCWKAL8Vm7eTypaNJ/ewlqbnGN7nLiHfjuWk+cqjKoKvtifAvpK/q2bEHldOU9N9hUVf367PKWzTt2tNF2fZIUree8h00HYWYuuqW8U3M3XHy5IlS6hx48bKXuzvuuuuuBjyjR27X+zNqh/7Cd/U0ruUr3wa8XycMNuIShYP04vWlvtzG4MOhZwdB7PakljL5bdGWSBxuVy29G2jKxUKhegvf/mLsteYWP0C24nbk5NPPpnmzp2Lt88TDEwe5o/fSDjllFMQgw4SZEXtBeckLJLwGwyqL2FfGVWsnkXux7omJTc/kplCJe8PrrkRp7ot7H7+/IZJ5drZlDu+Z1J8xZXThEree5iCudvtjuq4+vED8U6cUorfqP3b3/5WIyAdd9JYYTmB7du309///ndH5jA8fQHHkQoL56Ovvvoq8lGH56KR/BRt6E9RXZNjfPs65T5xSnJyjMxGVDz/bxTw6H8RSYV2KpnnyL5S9d0cyp1wcnJ8JSedSub/nQKuTcnEcNyxLRFn+aiFr96SHPACEaUusTQZ66t+ePs4o8S7gm/mRS4OKv5/5JFHYkJ2xx13KM3pww8/jIlTfRtVrp6FOBa0KUVz76kPm7S/Pfnkk0rHjIrtqRnnzDfSb731Vjp48KC0sdBQxflNrrPOOgvxokhH3Iw4iZTJc6COGzeO+OYOloYJ8BsmPL+eE2+cR3wC/8UPNPAwc9deey1t2mSvznXDXqt/C62qmIrffYjcQ5vbJC9PoYJZN1DAvVn/yaEEYwkEqqhkYTa5cjJs4iuNqGD6leQ/8K2x52lSafPmzVPiQfjLLruMVq1aZRJFFFsfgY0bN9KAAQOIr2lOv97zXLlOXXjqtJycnJp5f51uR5zfsXkpxy7H8Pfff+9U967zvDRfGZUuzLJPPpqVQgUzrq6Zp7TOSuOH5BAIh6hsyUhyD29lm3zUO+3XNW/TJgfIsUe1TJzlOVbznzrHNkZIhhArOqY7O80QZ5g5c6bjk7m6kgC+GE6YMOFYz476NnToUGX5MLe33norikj8X6s3vk+u7DTEcJQ4y3M0OXEZP368Ep3EutoVrD+202EED35Cn2+kc+fVSQvPa3n66acrfY0xwj9QxrExxyLt5MmTnRQqhp4Lv6nOb0+2aNECsaf4QxHcD+jfvz8VFBQY6mO2LEzTqGT+38g91Pyhi0X91gbXZaWSd+ZA0mw6ZJgtbWpWpTStZl422/pKZiPKf+YCChXsM4uA7nIXLFig1OhB3JZedNFFeJNWt+fEVkBubi5dfPHFyvW3P/7449gASbIVD1/MI0W1atUK+aji+Sj3ZXnIYyXy0XCISj7IJPdw84cubjD3jLo/+9P2KVTw4gDpp1SQpBlssJplSx+3j4Av8Jf8p/tR0J3ct66tE2fZXFqY3CNPgLgT7QzZ6YY8aTxmzBhlEwK+6f/aa68JG4UXX3xRuaS39k3uqVOnCrnEs9K/bzW5sxsjdqNil4di4AdPnLa89957xDFV24/w+VjhBDwS58HzQPKTxU5ZMB9z4r6AOGqYHQ8Fx29VYDlK4JNPPqGWLVviGoWbYMf4AI/SwKPkOHWp+n4uuYfZ5U3ZRvX3CXLSqezTiU41he3Py7dnlSVzvSV2wzTKd7JSqXD2zTX3iewElt/IV3XqKO4D/uY3vyF+CAqLOQT+8Ic/KHt/iq/VThlN6YsvvqDWrVsfk4ugb9Nw38bpjPhBl5tuusmcxsMGpfq2L7exKBuVY2SnUcnCLBtQU7MK/gPryD2qXf19hqh77IbklomUmZVKBS9dR1owOS+SWCvOsj4b8pN7mH1eY06a4aOcxZ3ThEIl+ufl++Mf/6h0crBy5cpjWr2lS5cqzeOBBx44hkciX4IFe8mVlSpHgxoVV2bGt2d0x6Q13InYMdZ9vF6vsjcjnN5RsNv5tW3blvbs2ROra9pyuzlz5ih9jbGbTzm5PjfeeCMFAgFbxoFVleKhnjGnLG56NRTnTZo0oR9//NEqtzT9OJqvnHIn9pEyD/eMbEvhqlLTGeEAPxHQQgHKf+6bMvwAACAASURBVO4iKX3FlZlC/n1rbGFKHuEFgstP15q1a9fawiZOqcTq1auJr1ENXcec/vtJJ51E4XBYWrNyG8FvmTvdTjg/fTk3x/o333wjrZ9HV1wL+ih34qlS5hieUe0pXOqJPiV8N4kA56OFr/xWSl9hDcG3+0uTyNRdrOXiLFclXJ5P7pFtpTWUWYIPMwlX6BuSi4fVuOKKK5ROFCJzT/3www9Kc+AnXvUuoVIPuYY0RaxGib5uFmarivTitd3+3H7cfPPNSscNOiH6OiGJ8Js4caKUHfSSkhJln3pPxM7YR39s8duinNuouHz22WfEb93Dj/T7kSoMH3roIbnnbtY0qv5xIbmyJJ9SJCuVKn94y5EjzdipLQ4c3kCurBTp+2xFb/4fUSi5DyLxvO+qtJOxnOett95KlZWVdnJ36erCD5cNHjwYflVrxI9Ro0ZJZ0eu8Lp162DHWnaMpQ1RfZv77rtP7nyUiKq3LyNXThPpc4zKNbP5lUEp2x5ZKh3M20mu7HTpfcU763rS/NblPkkRZ9mpgrk7bDURsFmCa7zl5o3rQVqgSlfc8ZNc55xzjrJJAw/Fs2bNGmXPn5MffpJP79OI7IfuURiGPDqG3SPbUdDG8yPpaTy2bt2qdNyo3nFI5vmfffbZxGKnTEtmZibiBZ3zpPjAU089JVOo6Korvy384IMPJoVzMttEHNsYEfoXv/gF8bx+0i1amErefUj6Gxu1c2ieKzfZopt0fhBLhTWNyj6bRPzmaW3eMn/2jOpAocL9sZy94dtUV1fjeiPI7bp27Urbt283nLcKBbrdburduzf8KsqvmjVrRsXFxdK4AN9be+yxx2DHKDsiX40tX+3evTtxWyDdEg5SyQfZjskvODcqmnM7aWEM22+GL1Z8M9NRvuIZ05GCudbkPkkTZ9kR/Ae+JfeQDEcZz4iOUP7kM3XHSVlZGXXr1g3Jg4LJQ69evfQ/maVplDu+J2Iz+o3ZIU0p6NqkOz7tWsBVV12FNkPBNsMunSp+K/C7776za3gcUy/uoNuFG+oRW6fYaZx+97vfHeOTTvxSXl5OF198MWIN1yVdPtCiRQu55m0OBSjvqXMdmYN7n7+MKBx0YnOVlHPiYeP4JqMR9x/sVgbPr+zbucJyrqNHj9bV3jgt16h9Piymffzxx5bbROYDcr8GwxjXnac//fTTUpi3oqKCrrzySrQNyEd1+QDPt7x8+XIpfL6mkuEQeV8Y4MgcI3/KOaQFfPLYwu411TQqnn+/I32FRxKt3rzYdAskVZzls/PtWEFuzGd5nBN7n7lQt/ELCwuRDCqWQHDyzzcz9S75T593nE/ardNufX1SKHBgnV60tt2/qqpKV7JZu/OOz3V3QsGmfjYZGRm0aNEi28ZJpGI8xCpsWb8twcd8PvzGOY+W4sSFb4T16NEDcaZYHmtWu5GSkkLvvPOO7UMlXFVMnse6ODoHzx3XnUiTd65BuziRFvJT/rOyzi/bKDYfz0mnym/nWIqcb56b1Q45oVxuS5955hlLbSLrwV555RVMf9JADnPiiScST6tk54Xf7j3llFPQLjRgSye0b1acA19jXn75ZTu7fE3dtFCQOF+z/p5rjPlB1Es0idST8+1wdantbWH3CrKvFLx0taN9xZWVShXfvGSqKZIuzvLZVW/9yNmGTLDhKHxZ/5yhPEykFRcZHMP8m7ANMebOEr8xrXcpmHEN4lEQs/69a/SitfX+qg8F3lB84Xfr2jjutMybN8/W8YKRKazzB8Re/axZwOSHa5y08LCSzZs3R/6KG2GG+gBPezJjxgzbhkqoLJc8I9oqkYN7RncgvpmDJUECSo1wlEIV615PEFR8u4VCIUPbHCfnLzk5OfHBVWzradOmEV9znOwDRp3bgQMHbOsdPLVG69atYUfko4b6ALcNdn5rXPNXkWdUezXy0VHtKVwpz/DqdmsstXCQ8iefo4Sv8AMAFV+Y93CaLcRZdrCKb2YpY9B4nuoofvcB3fHncrnw1J7DEwoWZtnOepfit+9FHAqE2aoNC/Sitf3+1113naFJp1EdNpRTvzDjZD6LF5s/fEiigelk7jg3+WKuQ4cOjhFoKysrMeqLw3PWZLcxdn5jIX/qBcrk4Z7HOhNhzq/40xBNI9fIdsr4CY+wFiq0Rrx54YUX0BeK4/rz8MMPx++/CuzBbxYn+zon0/GXLl1qS6/AFDby9Ydk8nuu6/Tp023p+1yp/CnqjKToGdmWNJ/+0Sdta0wTK5Y3+Qxl8lFXVgqFS82bN9o24iz7S8n7j6hjWIEAVJdoW75isu5w+uqrrwjD9DgzwUhPTyd+61HXomlUtmwc4k8Ql2XLJuhCK8vOeLrXme2DbJ2U6Pp+8cUXtgyh6HriO+In2T7Ab9DyG6cyLwUFBdS+fXvc1Izj5niy/U7W43/wwQe2DZXcCb2VycfzJp1BFJS73bLUkbQw5T/VTxn/cOc0If/+tZYhvuqqq3D9ifP6M2XKFMvsI8OBePh8Wa+Lyar3sGHDbGdaniasVatWsGWc7UGyfEjm47799tu28/9IhfKe6KNMvpH7eFfS/BWRU8f/GAgUTLtMGf9wZzcm356vY6CS+Ca2EmdJ06hozp+UMXBdYqxofdX3cxO38v/2fPPNNzG8isMSDBbcFyzQ/1ZnxeqXEXcCYbZ43l91x50sBcic1KLuzhbGtm3bZqsw4jk+4XPO9jlZ7XvRRRfZfu6uuoKZp2Xo06cPYstheaqdY+m7776ryx2Tu56HrB3TWZm8vOCFAaQFfcllLsPR+T7Jv/+gjF/wjbCqjdY+RNGpUydcgxK4Bskwn7cVIc4PlNr5mmfXul1zzTVWmCfmY/CDjn379oUtE2gL7Opjdq+X7hdtYvbu+DbkIWtznzhZmbwjb/JZpIUC8UFSdOviufco4xc832zVD2+Zbml7ibNExA2AF3NeCh3dt+Mz3Q7BTzfa/eKE+sV205uHMjZiKIyqTR8I/U30kIBK6wpe+S1p4bDumJOlAMRdbHEHTtZzaty4MXm9XtuE0qFDh3AdRYfdtj7w5z//2TaxEmtFgsEgXX755bZlinbf+nbfCuYZGRlUXGzPeaa06jJyj2ijTH5eOPsmvgkQa5Oh5HYl7z+qjD/w0HGVa2ZbbmeeIsCKtsdpx+CHxTdu3Gi5vex0QB75g+/NOM22VpzPueeeaydT0o033gg7op9nuQ94PB5bxUGkMlpVMeWOPUmZ/MM7rX/k1PG/DgKlH41Wxh9Y/yj//Nk6SBi72nbiLJ+eFqimvClnKWXw2ESvFArk7tDtAYMHD7b8YmNFYqfaMcaOHavbFwIHvkWcCd6YzXuqn3JPTakWPzhfuW629+7d2zZvBO7cuRPXUHTabe0DM2bM0J0fWFnAiBEjbM0T1wu5rhfx2KtLly5WunpcxwoV7if3kAxl8vSiN+6Ii49KG5evfFoZP6i5EbZyalLMe8IJJ+BalGB+x+x4BAwVF03TqE2bNvCdBH3ntNNOs43b4EUW5+Z78eSGydiWHw7itsSOS6j4sFIPDBbMHGhHM9iiTuWrppMrM0WZnLRksXXD7ttSnGWv0/yV5B7RThmjxybONiJXdmMKl+frDswbbrgBCWSCCWQyLtbRx7zjDv03MILeveTOSUeMRYuzI9sRhfy6Y0y2AqJ9DN/RObGbD/zpT3+yRVhBnEVs2C02ouvDb5sfPHjQFvHSUCW2bNmCfFTifDTa92T8fv311zfkpkn7PXDkv2rdBHnnwaSxtuuBqxUb4aj0wyFJMwXEWX353VlnnZU02yXzwJdccgnyGB15jF3E2c2bN+PtZx12lDH/s1udr7vuumQ2ZfUeO5i3k3ge+Jh1i+h7rJJ9L3rjrnp5qPhj9Y+LiIf4VcUHCl/7vaVmtq04W0NB05QxfDwO7h7avObtYr2ecuqppyKRlDAB4Q6A3iVcUUTuIU0RX9FJwqMpxHNfq7jYLTlFffTdIHEqvw8+sHb+MVFbAHEWvilDfJ188ski97XdOhlYoo7Oj/mVK1faLjYiFfJt/1SpfJ3fEsXyE4Fg7k6lbF8zvHUSjQ9xVn9br9r8s7Nnz8b9NJ330+wgzvL0Gunp6bClTlsiX9bfhr7xxhtJvArWf2j/kU1KPTBYumRk/UAU+jXg2apUPpr31DmWW9fe4iwRhfkNWoWGdIpVpPU83pU0X7kuhwmFQnTKKacgCZEoCTnnnHOI7aZnCVcVk2d0B6Ua11jiih96CPvUHI6J/QnJtP5kGgzNZ9isWbOkD5sGcdZ8OyOWjGE8fPhwPemC6fsOGDAA1x6JclAnx2X79u3J5/OZ7vOJHqDim1lK3RCr2jA/UVSO2Y+HtY6l/+KUbfKfv4S0cHLnHYY4a0zuUVFR4Zg4rO9ECgsLqWnTpshjdOYxdhBn7777bthRpx2dnCNaeW58r6OkpKS+piepv1Vv+Uip3KRyzStJ5W2Hg4dK3UrZPPfJX5AW1qe5JGI324uzfFJBz1alXqGPtZOVN+XcmuGfEzF8ZB+eG6RXr15IRiRIRvr27UuVlZUR0yX0nwX9vImnKtW4xhJPLMzyUB0qL1YmnTiWMTc/VOXIHehkLhBn4b+yxF5KSgrt3r07meFS57FXr16N4eMkyD1l8XUj6pnsa0udwfK/H8qWPq5Q/p5Cvp0rGkLi2N9Vm284b/JZpAWT/3AExFlj8rszzzzTsbFZ+8QGDhyIe2gG5DHJFmf3798POxpgRyPyMJTxUxs8aNCg2k2N7T5XruYHBhsp8+fb+pHtbGBVhXhKTZXmmM194hTS/Ml5wEwKcZYdz7djObmz05RpAGJt7LwvXkFaKKArNl0uF3Xu3BlJiY2Tkm7dupHX69VlZwoFyDv1l4ih6EQiJ538e1fpY+uAvZEMG3NDAhyt4bhr166kRR3EWWtsjFgyhnP//v1Js9lw/Vyf7t27I++0cd6pYvzxwww//vhj0q4tsRy49INHlcnj3ZyfH94QCxZHbcNvKKg0wlHuuO4UrrLHW0IQZ43JO/j6sWzZMkfFZfTJfP7558hhDMphki3O4j6ocXGvYu5o1jmvX78+utmx1feyZeOUyUddjzYi//61tuJvRWW06hLyjGqvjJ1zx55E4fI8K9AKjyGNOMu1r/phrjKOEas4y9sVvvI7oXHjWblnzx5q2bIlkkyDkkwjL9KtW7emI0eOxGNO4bbeFy5H/EQJs0cyU6h600IhL9VWGumzKAudHLN9oGfPnkkLUYiz8G+z/dvo8r/99tukxYvowFOnTkW+acN802i/k7G8iy66SOSy9lmnaVT05t3q5PNDm1G4zGMf/ibXRKsupdwJvZSxb82UMkm8ERZtToizxuV3PXr0sN2DYdH2TvR7IBCgrl27Io8xKI9Jpjj7n//8B3Y0yI4y5nx2rjNPPxhO8lD/9baRmkYl7z6oTL7iyk6jUNHBepE46Uct4FNqxE33iNYUKtifVBNKJc4yqfLPJqnTAEQJSfUJtoWv3abbkbZt20aNGzdGgmKjBCU1NZUOHDig27aFswYibgTxVIE5BH72LTsnp6ibcTdLnMRyy5YtP/uvlR8gzsIfZYujTp062eYmaTAYJJ7fUzaGqK86cf/DDz9YeUmJ/1jhIBXMuFqZvN49vCWRlty5SOM3UgJ7hAKU96/TlbEr39cIlyXvDQWRhSDOGtvOv/KKM+fqW7RoEXIYA++XJVOc7dKlC2xpoC2RKxvbhtr97VkKh6jw1VuUyVvcQzKI3yZ1+qJpYcp/9lfq2DW7MYXykz8NlHTiLAdC8Vv3KuMo9Qmy0b+VfpCpu53YvHkzEhQbJSiHDx/WbdOit/+CeBEIs6VLhulm66QCkEwbm0yDp/k8+WGiZCwQZ823LeLHeMbst3ZYpk2bhjzTRnkmYu34WOvdu7cdQqX+OoRDlDdJHSHPPbRZ/Txk/1XTKH/q+Ur110IlbttZDeLs8e2hnmvEiSeeaDsb660QT8uQlpaGPMbAPCZZ4uxLL70EOxpoRz1tBfYVt70ZGRl6mywL9tco/6nzlMlfPCPb6p5W0gKj6DpE4awblLEna2oBGwizbDApxVmuOM+1Gi1O4nsjqlz9sq5A5J2XLFmCRCXJiQrPe/XVV1/ptmX58n8hTgTCbNEbf9bN1mkFICkWJ8XgYm8uW7dutTwUIc7a2ycQs2L78NQVyV74rdl27dohx0xyjokYEcdIbS5GPBxperyFg8TzdarS/80d35O0oN90rMk4AE9RpIodXVmp5N/7dTIwN3hMiLMNt42128lYPk+fPr1B7jJtwPdnYjlvbBO7LyVDnGWRvU+fPrAl8lHb+8ChQ4ekaCJzx/VQJo/JHd+DtEC1FHaJp5LcLpa+N1gZO3Le7dv5eTyITN1WWnGWqeQ//2ulHCfWTlv15g91Ow3mA4s9oTQj+TZiGKDK799AfAiE2YJZNxBpmu4YcVoBZvgxykxuO6IC/9NPP93yUIQ4C7+WNba8Xq/l8VL7gJ999pntb4LIalvU29h26bLLLqvturb9zHOUuke2Uybf9z53KVEoYFt7JFKxkvceVsZ+rqwUqlw3JxFMluwDcdbYdjRyXSoqKrLEflYcpEmTJshjDBb0kiHOIh81J9YjMY//xvHl+btlWLRQkNwj2iiTz3ifuZC0QJUMpom5jmUrpyhjP9bWKlfPjJmNFRtKLc5SyE/eZy5QyoFiEmiz0si/7xvd/pOTk4Pk0+DkM5ZEZezYsbpt59u5glyZKYiNKHHWO62/427q6HaW/xUQi29iG+MSbbA0hiUPbVxYWGhUGMRUDsRZY2yHGLCe47XXXhuTj5u1Ub9+/ZBXJiGvRKwlFmtmxYHR5YZKXcRvI8bUR4zKi2Xcp/DVW4nnOXPCUr5ikjJ2Y18rW/6krc0GcTaxtrKha8yzzz5ra7vHWjme/7Ghc8Xv8ftQMsTZ3/72t7Al8lEpfCA1NZUqKipibaaSup3mryCehkLG3DKROhfMup4oHEwqc6MOXvHNLGXsxrYuXTLCKHSGlSO3OEtE/MRw3sQ+SjlSTA3HkAwK6hw7m19rv+OOO6S4aDklEb7vvvt0B3fAs5Xc2Y0RE1E3oPImnUWcMGARE3BKDOE84u8Uy87s0UcfFTu1SWshzqrnY7LHSKT+zZolb95GfnMmUg/8RwzJ4AMyDccZzN+lVN5fPP+v0o+CU7n2VaVE9eJ3HzQpKzOuWIiz5lyb+EHKUEj+BypOPfVU5DEmCHpWi7N5eXnEU4jJkIegjua0SbJxzczMNO5CZ3JJQe8ecil0L7rwtdtMJmp+8VXr56uVj779F1v2IaQXZ9lVw+Ve8ozuqFSnNBaB1j2sBWl+fa/acyLNQ3vJdgGTsb5XXXUVhcNhXa0vi4+unCaIhShhNvfxrhSuKtHF1uk7yxgzqDM6LOwDvXv3tjQ8Ic7C72RuexYtWmRpvEQONnPmTOSSJtzUlNkX7V73Nm3aRNxXiv+B/WuUyv/LPholhV1ElfRt/0SpB2m9/HaJBAvEWfPyuyVLlkjgAXVXcdeuXcRvsNn9uiVj/awWZxcsWAA7Ih+Vyge6d+9ed+Nkw1/8B9aR69FGyuSkhW/caUMrxFYl/+4vyD1EHf3AO/1K246+4whxlt0uXFlIriFNlWkAYhFneRv3kIzYorKerVig7dq1q1QXMNkS027duukWZkkLQ5iNEmVrYmBoM9J85fV4OH5iArLFDOpr3g0UGdlu3rzZskCGOAvfkzFGInXu37+/ZbFS+0AZGRm4zuBmmFQ+wG/W6H1osnYMWPG5+seFSvWFK1e/YgVWQ48RzN1Gruw0ZezkGd/blm8oiIwKcda8/C4tLU2EXJp1V199tVTXr0jOJ8N/q8XZM888E7ZEPiqVD3A+evDgQWnaS65o9ZYlyuQ5fM+5dNEwqezDlQ3xqDsKveXsGd+DWDOx6+IYcbbGuYqPKPU6dswC7cj2pIUCun2wefPmUl3EZEhGuY6GPJkf8pNn9AlKXQBj8v+s1Jqhz3U7vwIFyBIvqKd5N05kZjthwgTLohTiLHxQ5lhp164d8bQVVi8yM0Pd1Y35l156yepQ0X288s+fIVdWijJ9At/WpbqZWVVAqCxXGbtwP83zeDeehMoqvLqPA3HW3Lb+xx9/1G2jZBTg9Xrx1qyJYp6V4izP3Ymcztw4B19z+I4bNy4ZzZ+uY5Z/+QK5MtXJRyu/fU0XLyt3DpfnkSs7XZmc1D2slZV4EzqWo8RZJhA4tEEZB4tJnPrfm4T5T51HWtCfkJNEdgoGgzVCIi64xl1wO3ToQNXV1RHECf3XAlWUN/lM+H30W7NZqcRzcGGJjQDi2ri4BkvrWV544YWxOboBW0Gctd6+iCljmX/33XcGRELsRaxYsQI3w0y8sYn4MDY+avPs169f7I5uoy1LP3hUmX6BOzuNfHtW2Yi+uCqar0ypN2Zzx3Yjnm5HpgXirHltKbersg3NGfHdBx54ADmMiTmMleLsjh07YEsTbVk7f8JnY9vTSy65JNIkSfW/9MOhyuSjrM9Ub1lse/uEq8vIPbKtMnbxjGpPFA7a3i6OE2eZePXG95RxtHgE2oKXf0OkhXQ55ZEjR6hFixZIagxIatq2bUsul0uXPVhw906/Cv4eLcw+2oiqt32ii61qOyOBNjaBBk9refJwP/w0tBULxFlrbYtYMp732LFjrQiVn48xYMAA5I0G5I2IBeNjoSGmLNbIuhS+/gd1+gdDmlLg8AbbmoofpFXqRthjnSlc5rGtPeqqGMRZc9tYztX37t1bF35bri8uLqamTZsihzExh7FSnB08eDBsaaItG8qp8HvibSyPYsnTDcq4FM27T518NCuNfHu/sa+ZtDDljuuhjD3cw1tTqMRtX3vUqpkjxVk+v4qvpinjcPEItEVv3aN73pcNGzZQeno6EhsdiU2zZs1oy5YttUIxgY9amIpUuvESLcDW812mISUSsLwpuyBZTjxZBjt7sFu3bp0psRFdKMRZe9gbcZe4HXjuNCsX3NhM3Fbw8+Szc7vl6NSLYto77TJl+sPuEa0p5LWf8KOFgpT3r9OVsYNnRGsK5u0UuaPt10GcNb+9ve6662zvB7UrOHXqVNzz0nHPK5YcxkpxtmXLlrCnyfaMxebYJrG2dv369bWbJ6k+F75+mzJ5kHtoU9uO4Jj/1Lnq2GFIUwq6N0sTJ44VZ0nTqHTJCGUcLx6BtnTRUN0O+tlnnxE//YgLa/wX1rS0NFq9erVuGxTP+yv8WyDQli0br5utigUgluOPZTCzF7PXX3/dktCFOGsvuyMO47cHT6lg5cJ5D+wUv53AzB7M5s6da2W4GHssTaO8J09Vpr/AQ5eFK4uMZaizNO8LA5Th785Jp4Brk05iydsd4qz5bS4/4J+bm5s8I8dxZJ56CiPGme8TVoqzyKvMtycYm8d49uzZcbRg9tpUCwepQKEHBl3DWpDmr7KVEQpmXKNMPurKSpViypPaDuJccZbPUtOoaM6f1HFAgVBVl2hbuUZ/w843K3Dxjf/i+/HHH9eOwYQ+ly8dC78W+HvRW38hTdMSYqr6Tojl+GMZzOzF7J577rEkjCHO2svuiMPE7OH1ei2Jl/z8fOSKeEtBah/4xz/+YUmsmHaQoI88I09Qpt/gGdGWNC1sGs54ClbpTRG+5+A/9H08eGy3LcTZxPKJePMwnsNVhmXp0qVSX7vitUuytoc4a03cJcu+OK5x9pWl7ayzfQ/5KXdiH2XyUfeQpnWisPqH4rl3K8Od89GqTQutRqz7eM4WZ/+HJ3/qr5RyxLoE2ej1/p0rdTvQE088gaQ1jptur776qm7mlT+8DX8WCLPeFy7TzVblApA4G5c4g2VyWPbt29eSEIY4mxz7Iq6M5f7tt99aEi9vv/028sQ48kT4ubF+bgTPa665xpJYMfMg4aoScg9roUz/wT2sJVGSBdqSxcOU4c33GHw7PjXThS0pG+KsNe0vvz1bVWWvN4qiHYwf9uY5Ho24hqCM+v3KKnEW/bf67QA/tT+fX//619FNlXTftUA1eUZ3VCY/8ow+gfit4WQuZR+PUYY356MVq15MJu6Ej62EOMt08p44RSmHjBZiRd/dWankN2Cy6vvuuw+Jaww33oYPH55woEZ29G1bSq7MFPhylDibN9EaUSZiByf+R0Ju/4QcNqrfRjzUfjhs/tsy6NzXbwf4qRx83n33XUsuZZmZmcgRY8gRETf2jZszzjjDklgx+yChwv3EoqWoT+jEdXlTziYtHDIbq7D8ilXTleHMvlPx5XNCDrKthDhrXTv84ov2vnm6Y8cO5C4W5S5WibMzZ86ETS2yKXJac9rSTp06yXZZFdZXq/CSe0QbZfKk/CnnkBb0CVmYvbJy7WxlOHM+WvJBptlITStfGXGWhzjOHddNKceMqaM9JIMChzfodrBBgwYh2akn2WEBW+/i37eaeC6fmOwaJV46eZ+8f0GY1etbvD+SaHOSaHC1lmtpaakR4VBvGRBnrbUpYsgc3s8++2y9fm7Uj5dffjmuL/Xkh/Bvc/zbSK7t2rUzKhySXk7g4HfEw6w5uV9Q+9wKZ99cM82RleCrNsxThi+zLl0o742waL+AOGtde8ztqt/vjzaBbb6feOKJyF0syl2sEmfvvPNO2NQimxqZg6GsY9tlny85Ip/RjXMwfze5stW5t10w83oii9+grd68RKl8tGju3Ua7qaXlqSPO8hS01aXkGaXOnDu1O6f1ffaMaEPcOOpZgsEgDRw4EAmPIOG59dZbKRTS9+R20LNNqeHI6vPX2r95xnYjzVemx3Wx7/8IIPE9NvEFDzl55OXlmR7TEGfl9A3E9LF2Gzp0qOmxwgc455xzkBsKckP447H+aGceqampxENcOmXx7fiMXFmpytywKVlg3ZzB1ZsXkytLnRGOit64wzbz+xoRnxBnrW2XP/nkEyPMZngZbrcbeYuFk1JNEAAAIABJREFUeYtV4uz5558Pu1poVzvndTLXzev1Gt7mJavAwOH1yuSifA+76M07LXtgMHBgnVpsX7uFKEmj5RgVP0qJswwtWHSQ3EOaKeWotcWsuj57xnSicHm+Lr/iuUN+9atfIemplfTwvAB6n25iu3hGtoXPRr0NzExCpR5dPoudjxKQOUlF3a29mWJn3ocOHTrq1CZ9gjgLf7NzDMRat7vvtubpUr7pFmudsB1iy64+UFxcbNIVJTnFqvY0fdmyCaaD5hGOXDlNlOmvFUy/0vK3QMw2IsRZa69B/HaqHR986devH/KWWvezzL4uWyXOtmnTBna10K5m+42q5e/fv9/sS6Gl5ft2fa5M3sRaTMn7j5jON+TdrdRDmN7nL03asNFGGlM5cZbhBTxb6UimOk8M1yXIRq/3jOlIFNI3vExlZSX16NEDiU+jRtSnTx/dwixPHu4Z0VqpC1a0Xwq/5zShUME+I9tC5ctSNcHFeVt7I8Zs3vv2md8uQJx1ls+Y7ZN2Lf+2226z5Lp3yimnICfEzTDpfYDfpHLaUvndf5TqX1R+N8c0E3KfxKXQcNF543sThQKm8UxWwRBnrc/vjhw5kixzC49bUVFBaWlp0l+z7Jp7iupllTjbokUL2BX5qPQ+sGvXLmHbJfPKqh/Umg6ifOVU08wVLi9QasTN3Il9iJI0n6/RRlRSnGWIvr2rlOqQCgWuqDcReRvPqPa6X7Xn+UNat24t/YVPlDzGuo7PX/eToJpGruwM+Gm0n2alUsD9o9FtofLlxerbdtmOO86NGzfGXwIMmF1KSooj2+g9e/aYHssyirOIl8TaCubGQ5rapd0zsh433nij6bHCB+jVq5fj+HH7yb6BuDo2rpwaKxx3Bw4csCRerD5I2dLHlepn+A+sMxxxuLJIKWGW3w526iKrOMvXpIyMDOKHoZo0aSLVNbdnz562cieejsrIXMvssrgv3Ldv3xr7y9q3gzib+EMRbHPOvZCPHpuPMg9Z46GhNmPr1q22ajONqkzZ8n8plY9W/7jQKHQ/l6MFqsgzsp0yHHkkTdmHMv7ZeESkrDjLEKp+eItcmerMCxOrQJs35Rzd88cUFhbWJIkNXVyc+Dt3jqqrq2vHWdyftVCQ8iaepkzDGqtv8nbVWz+Omyd2aJiAbLH4zTffNHxS2KJOAuFwmN555x26+OKLqWnTplLdiKjPV3fv1jd/ep3Aav0gozjrtCGQapnDko/8RjbP0dq9e3fHxMrAgQMtYcc3XuuLWVl+a968OV122WW0evVqS7jJepBQKETz58+nCy64gJo1a+YI27OP7t27V1aTNFhvngMrnjxc9m0DRzY1yCTWDTR/BXlGd1SGn3t4S90PccfKNhnbySjO8gPh0VN6bNq0Sar2l0des8PCU3TJ0ifi6+vSpUuPwcYPEbVt21a6665V4izncbLknPXVkx/AuOSSS+jzzz8n7s9jqZvABx98UJO7O8X27BebN2+u+4Ql/6V4wQPK5FOsQ/GQzkYtmr+Scp84RR1+QzKIc3AnLUqLs2zI8hVPq+PA0W8g1vO96PXf6/ZzvpHh5KfoRUkTP73o8eicB1ULk3fW9fBLgX9Wrn1Vt1+iADEBkT/beR3EWbEdE1nLQ3jde++9jmivIc6Kn76GOJtIZIj3YXHuzDPPlP4GD8RZcayIrnt33nmn7mkqxN7k7LV8o/vBBx+U7k0ukQ84WZwlTaOCmQPV6XfkpFPQs0V/8Gka5T2pzoO07mEtKFyqs4+rn7qpJcgozm7fvl3IhIe+FLVldlx33XXXCc/B6pWjR4+WghnfX1u1apUQz4oVK6Q4h9p+CHE29nyU3+zmUQqxxEfA5/NRVlaWI/JRJ4uzbNXCV29SKh/1718bnzMLttZCfvI+d7E63LLSKFTivOlmlBdn2bdLl4xUx5EFglddT0CXvP+oIPTjW8WJY+3ky8mfeeiMdev0D5dVPO9++KPAT8s+mxSf82HruAjIFpsQZ+Myb0wbb9iwgdLT06VusyHOijv4EGdjCoG4Nnr88celjhWIs+JYqX0t5GHR+C1QLPoI/Pe//6UOHTpIHS+OFmfZvOEg5T11njL9Dx4KLejV9zZ0/rO/UoaXKyedAoc36GsIJNhbNnGWRbr6Fh4dp/Y1za6fue+hd9Sx+jjE8huLN+3bt5eC11VXXVXvKXXs2FGK84j4I8TZhvNRZvXqq3hJoV7Hj+FHHv1KtnY+EieR/04XZ9mM3mcvUia/8gxvSQGdDwwWvvxbZXi5Hm1EAROmKImh+TB9E4izjFjTqGj+P9RxaIHwVZdAW75iim4n5BtbkYuJk/8vXrxYN6uypY/BDwX+WbIw29HDaOl2HAMKkC02Ic4aYHRBEUeOHJH6DVqIs+IOPsRZgbMbsOr111+XNr+BOCuOldrXwrlz5xrgJSiCCRQUFEg93YnjxVnuDvNcVQoN0esZ05lCZbkJBWjByzcq1F9LId+OzxLiJNtOst205weI6lt4pI/a1zQ7f37ggQfqOxXTf/v3v/8tDav169fXy+OMM86Q5lzYJyHONpyPzpgxo16b48fYCfAw6q1atZIqRmq33SqIs1o4RJ5xPZTJszyj2lOoNLE3QQtf+4MynFiz8m3Rr7nE3lpYuyXE2QjvcIgKXlHoiQOBACYUaLNSqHL92xFKCf9/7rnnpL0A1r4Y1vV55syZCbOJ7Fi5ZrZSDavQ3wR+WTjndiIN82lE/MSs/3X5tl3XQ5w1yxOoZqgsu9q9oXpBnBV38CHOmhcvgwYNkjK/gTgrjpVIG2OXYRbN81zrS87Ly5MyVtgnVBBn2SN4zipXVqoy/RHPY11rzjmeaFBthKOqH96KB4/U2zpNnOX5KPv27StFu9umTRvSNC0p/sOcunTpIgWnk08+uUFGZ511lhTnEsm3IM7Wn49ec801SYuNBp1N0g14GrqI/8n2XwVxlt2KHxh0D2+tTD7qHtGOKOiLK6LUmqO3EVWunhUXH9k2hjgbZbH8p9UZ0ilWcYy3M2Ioo4ceekjai2B9F+2cnJwoL4r/q3//GmUuPPH4HQ8ZhsUaAvX5uB1/gzhrrl8MGDBAyvYa4qy4gw9x1rx4KSkpkTJWIM6KY4Wvd/w2UrJuEpvnqfYo+f/+7/+kjBdVxFn2Er4hFk+uLvu2uWO7xfwQaNmnE5ViU75CrSllnCbOcjy/9dZb0rS5/DB/Mpa1a9dKw2jZsmUNIoI4K0bUvHlzaewcuffCQ5cXFRWJTwhrdRGQdXoaVcRZNq5WVUKurMbq5F1DMmL26fKVT6nDJbMRlS0aGjMbWTeEOBtlOX6FPndCL6UcPdZOdajwQBSt+L/efPPN0iVFkeRI9P+Pf/xj/BCi9gh6NsPfBG/M5k08NYoUvppJQOTfdl4HcdZMbyBavny5lG01xFmx4ARx1tx4ue+++6SLF4iz4ljh695FF11krsMoXDoPb2zn3KKuuqkkzrJ7hrx7yJ3TRJn+Se5T5zU4fUrl928qw4PvDRS+fb9yLZUTxVk2YqdOnaRod3v27En8FquVCz+I1adPHyn4NG3aNCY0EGfFmGQUZy+88ELxyWCtbgI8lVNdOZ+d16skzrKRg9495BrSVJn8K3dsD6JwqF7/rtzwjjI8avLRfw+ql4dTfoQ4K7AkD+nkGdleKYePSaDNSqVQkX6B9tJLL5XyQhh9kb7iiisE3hPfqmDuNnJlK/Q0kECEFfmeZ1QH0kLB+GBia10Eov3b7t8hzuoyd4M7B4NBatKkiXRtNcRZseAEcbZBl9e1AbdHdm8zo+sHcVYcK8xJNSFOl/PHuTPfCG/durV08aKiT/h3f0HunHRl+sOFr9xYpzf7dixXhgP3ywpe+32dLJz8g1PF2QkTJkjT5i5ebO18cocOHZKGzWuvvRZT+EGcFWOSUZz98MMPxSeDtYYQOPfcc6WJ/0g/TjVxlg3t3/cNuYeqI9Dmv3hlnSO6+PasIldmijI5qXfGVYbEugyFQJytw0qh8ny1XqGPVTQb0ZZCJa46qMW++swzz5TuQhi5IPL/iy++OPaTrWNLfgrIM6KNMg2rSIQVrhvajDRfeR3UsNosArX9W4bPEGfN8oSj5fLTujL4Qu06QpwVC04QZ4/6tRmf8vPzpYsViLPiWOH2BIu5BO655x7p4kVFcZa9oGr9PKXmoC1598HjnD/o2aJUX61g1kDikcRUXJwqzvr9fmrZsqUU7W6/fv0snVZApr5OrDEJcVZMSjZxloc0tvpNcjE5567NysqSol2sfa9DRXGWPbB68yJyZacpk48Vzf2/4wIvmLudXNnqPDSp2hSHuANxnMsfXRH07lUm+IUiWR2Cbe7Y7qRVlxwFlcCn6upq6t69u3QXQ74w/uIXvyCuv54lXJ5PuY91gX9F+1h2GoWKDupBi30TJFA76ZPhM8TZBA0dx2633XabdG00xFmx4ARxNg7HT2BTfhuwcePGUsULxFlxrPD1D4u5BF544QWpYoV9QlVxlj2h4stpSvVXSj8Z+3MAhEvd5MpS52ag99lfkRbQ18f9GZ6EH5wqzrIp7r77bmna3R9//NES72HRWoY+L9eR58eMdYE4KyYlmzgb6zDW4rPF2lgIzJw5U5o2INJWqSrOsj0rv5+rVj66eNjPbhyuKiH3sBbKnD9PcaiF/D+fvwofcAeiASsHDqxTJgDiEWjznuxLpDNYCgsLpRvarHPnzlRSok+Y1gJVlDuuB/wqWpjNbESBwxsaiEj8bBaBSMIny3+Is2Z5wtFy77//fuk6LBBnxYITxNmjfm3Wp44dO0oVLxBnxbHCQ+5iMZfA+++/L1WscF6ksjjL3lCyMEehfksKVayeXTOKj3t4K2XOO/eJk0nzV5gb/DYv3cniLD9Yzm/iydDPsyo/4ePIwIPrGM/9J4iz4oZGNnGW33bHYi6BefPmSdMGRNoqlcVZ9oaKVTOUyctYn6n4ahqRppFS+eiYjsRitGoLxNkYLF69ZYlSDUCsIm3+U+fVNBQxIKxzE5fLRenp6VJcFJs1a0YFBQV1nktMP2hhyp3QG/4kEGZ5PicsySMQSfhk+Q9x1nxfeeCBB6Rom2v7LMRZseAEcdb8eOnWrZtU8WLVzc+ePXtKxYUfwsNiLoGlS5dK5RN8jVFdnGWPKHj5N+r0X7JSyJ3TRJnz9Yxoq/Qbs5EWz8niLJ8jDxlcO2e28+eioqKIWUz7L8uIJ/zWczwLxFkxLYizYi4qr5XxYUHVxVn219KFmcrkZzXaTI46Qxm7hzSjcGWhks0SxNkYzV7+5XPkylJn4uVYBdqCl2+MkWDdm23atMn2Am2TJk1o3759dZ9EjL/kP/MrtS4kAhH2ON/KSqXy1S/HSBCbmUXAzh10Ud0gzprlCUfLhTh7lEXtTzt37pTm5lYkdiDO1ragOZ8hzoq5QpwVc1F5LcRZea2f/9yl6MfE0reRaZucDNKqiuV1SgNr7nRx1ufzSZO/8ug9Zi6DBw+WhsWuXbviQgFxVowL4qyYi8prIc7Ka/3C125BPipTrhlDXd1DMijo3S2vU+qsOcTZOACWfDgEDYAgqEoW/CMOiuJN+UZNWlqaLZNkHgJo7dq14orHsbZoziD4T7T/ZKVQ6dLY51CJAzc2jZNARMSR5T/E2TgNnMDmEGfF0CDOirmovhbirNgDIM6Kuai8FuKsvNbXQgHKn/pL9Gei+zOyfs9KpVDhfnkd0uCaO12cZVy9evWy5f0WUf9T0zSDLfxTccFgkNq1aycFh6uvvjpuBhBnxcggzoq5qLwW4qzE1tfCVPDCAOSjsuaf0fXOTiP/3m8kdkj9VYc4GyfDorl3owGIDqTMRlRmgMA2d+5cWybJfBNJ71LygWJDLwh85Lg3ZjMbUcm7D+pFi/0NIiDqFNt5HcRZgwxfTzEQZ8VwIM6Kuai+FuKs2AMgzoq5qLwW4qzc1g/7yijvyV+gPxxjX0fU/7HLOv++1XI7o8G1V0Gc3bJliy3vt4j6nOPHjzfYwj8V9/zzz0vD4Msvv4ybAcRZMTKIs2IuKq+FOCu59YM+yp9yNvJRB+Sj1T8uktwZ9Vcf4mwCDAtnXIMG4LgGIIXKebJqncv06dNtlSz/+9//1nlGRGWfTcKQ2Mf5SyMqmvMn3WxRgHEERJ1iO6+DOGuc7esqCeKsmAzEWTEX1ddCnBV7AMRZMReV10Kcld/64fJ88jzWBf1hQf/GLsJrQ/Wo2vie/I5o8BmoIM6GQiE68cQTbXW/pa7+ZkZGhsEWJuK3cWXJS84444yEzh/irBgbxFkxF5XXQpyV3/rh6lLyjOmMfFTifLRirX7NRX5PJoI4m4gVNY3yJ5+DBiC6AchKo8oN7yRC9Od9OGEeO3asLToMU6ZM+bleiX6o/O4/5MpKha9E+Yr3hQFEWjhRrNjPBAJ1dYztuh7irAlOEFUkxNkoIP/7CnFWzEX1tRBnxR4gy03QyLWuc+fO4hPBWsMIQJw1DGVSCwqVesg9rAX6OFF9nIZEUTv8XvHlC0n1HbseXAVxltkvWrTIFvdaItfd+v7PmTPHUHeR6dzfeOONhM4d4qwYG8RZMReV10KcdYb1taoS5KIS5qKcD5eveMoZTmjAWUCcTRRiyE+5j52IRiCqEXBnp1HgwLeJUq3ZjwXae+65J6mdhgcffLDmyUo9J+Lf8zWE2Sj/4AY498lTicJBPWixrwkE6usY2/E3iLMmOEFUkRBno4D87yvEWTEX1ddCnBV7AMRZMReV10KcdY71w2V56AsL+jp2EGDrqkPphznOcUCDz0QVcTYQCFCLFi2Seq8l1r4l5xBGLmeffbYU580PiiU65y7EWbHHQJwVc1F5LcRZ51hfC1QhH5UsHy1+9yEezsI5TqjzTCDO6gCo+crIPbIdGgFBIxAq3K+D7E+7XnHFFUlJnn/zm9/ornuoYC/8QuAXuY+fSBSs1s0XBRhPINZOsl22gzhrvA9ElwhxNprIT98hzoq5qL4W4qzYAyDOirmovBbirLOsHyo8QK7MFPR7BP2eugTSZK0vfPVWZzmfwWejijjL2KZOnZqU+yyJ9CNXrFhhiKXXr18vzTnrmW8X4qzYXSDOirmovBbirLOsHyzYT66sNOSjEuSjBa/c6CznM+BsIM7qhBgqPkTuEW3QAEQ1AO6sNApXFOiiy08LnnvuuZYm0RdeeKGuOvPOobJc+EOUP/BNCPeo9hSu8OrmiwLMIZBIZzmZ+0CcNccPapcKcbY2jaOfIc4eZYFPRwlAnD3KovYniLO1aeAzE4A46zw/qN66FAKtoO+TLBFWdFzv8792nuMZfEYqibNlZWXUtGlTS++zJNpvvPTSSw2x9FVXXSXF+aanp+s6X4izYnwQZ8VcVF4LcdZ51vftWgmB1u756HMXO8/xDDgjiLMGQAwc2UiuIU0hyEU1Ap4hzUjzV+gi7Pf7yaobnnwDMRzWNw9quLKQXDnp8IUoX3APaUpB7x5dvoCdzSWQaIc5WftBnDXXH7h0iLNixhBnxVxUX2tVrmJUmztw4EBLTAZx1hLMUh0E4qxU5oq5shVfz0D/J6r/IxJJk7Eub9IZMdtR5Q1VEmfZzn//+9+lECs579m8ebMu18zPz5fmXO+66y5d5wpxVowP4qyYi8prIc460/qV6+bggUGb5qO5T5xCWjjkTMfTeVYQZ3UCjOzu37eaXFkY0im6w+kZ14O0UCCCKaH//GRnRkaGqQl1mzZtyOfzJVS/yE6av5I8j3fFjQnBhSDg1tehijDGf/MIGHXD36pyIM6a5wuRkiHORkgc+x/i7LE88O0nAhBnxZ4AcVbMReW1EGeda/2yj0ajHyToB0X3j6387hnfgygUdK7TGXhmqomzubm5xG9pWtV303OcP//5z7osPWjQICnOkxkFg/riFeKs2FUgzoq5qLwW4qxzrV/22STkozbLR93DWxPPDYxFTADirJhLQmv9uz5HAyBoAPKnnq97omd+2jElJcWUpJo7JQUFOodgDgUpb9KZsL/A/v793yYUT9jJWgJ6OszJ2BfirPn+AXFWzBjirJiL6mshzoo9AOKsmIvKayHOOtj6mkbFc/8P/SFBf8hKQTZyLM+odhSuLHKwwxl7aqqJs0zv8ssvN+X+itF9w9TUVHK5XAkb3Oj6mFXeNddck/A5RnaEOBshcex/iLPH8sA3IoizzvaCkvceRj5qk3z0SE468tEGwg3ibAOA4v25asN8NACCBqBglv7h88y4Ic6C7969e+M187Hbaxp5n7sYdhfYvXrzomNZ4ZttCZjVyTSrXIiz5rsSxFkxYzOuRWbFSaTc/fv3i08Gaw0jAHFWjBLirJiLymshzjrc+twvev4S9IsE/aKIaGrJ/5wmFCo+4nBnM/b0VBRnWfA06wH4SA5q1P8xY8YkZPBHHnlECgGaOeXl5SV0jrV3gjhbm8bRzxBnj7LAp58IQJx1vicUTL8a+Wiy89HMFAoVHXS+s+k8Q4izOgGKdi/7dCIaAEEDUDzvr7rfoP3666+Jn5w0Isnncr777juRCWNfp2lU9NrvYW+BvSu+fD52jtgy6QSMiCkry4A4a77LQJwVM4Y4K+ai+lqIs2IPgDgr5qLyWoizaljfM7oz+keC/pElwmx2YwrmblPD0Qw8SxXFWcbXqVMnQ+6tWNEPrKysjMvimqZR48aNpTi/M888M65zq2tjiLNiMhBnxVxUXgtxVg3r50/GCJeW5J6inDcrlQKHflDD0XSeJcRZnQDr2r3o7fvQIRUEZ9myCcRJsp7lzTff1C3QpqWl0bvvvqunGjX7ln44FHYW2Ln0/Ud1s0UB1hKwokNt5DEgzprvHxBnxYwhzoq5qL4W4qzYAyDOirmovBbirDrWz338RPSTBP0kU2+SZaWRb/fn6jiZgWeqqji7YcMGKcRL7kfyfaB4lmeeeUaac/v2W2OmgoI4K/YQiLNiLiqvhTirhvW1UIByn+yLfNTifNSd3ZiqNr2vhpMZcJYQZw2AWFcRBS/fiAZA0ABUrp5ZF7KY10+ZMiXhIXh46J4XX3wx5mPVtWH5iqdgX4F9i/7zp7qQYb2NCRgpnFpRFsRZ850J4qyYMcRZMRfV10KcFXsAxFkxF5XXQpxVx/qar5w8Y/AGralibFRfrOqHt9RxMIPPVFVxljG2aNFCChGT34KNZ+ncubMU58W5UjgcjufU6twW4qwYDcRZMReV10KcVcf6WnUp5U7ojfv3UTmjWfmpOyuVKr6eoY6DGXCmEGcNgFhXEVo4RPlTf4kGQNAAVBrQcczOzk4o2R43blxdJot5feU3s2BXgV29L/SPmSE2tBcBKwRVI48BcdZ8/4E4K2YMcVbMRfW1J510UkI5iZHtYjxlDRw40BKTQZy1BLNUB4E4K5W5dFc2VHyYPCPbod8k6DcZfVMMN8L0uavK4uzHH38sTQ7D01zFssyfP1+ac4r3jeD6zh/irJgOxFkxF5XXQpxVy/rhEhceGLQgF+XclkdMxRIfAYiz8fGKf+uQn9yjOqBDGt0IZKeRf9eK+HlG7fGHP/whrqT7wQcfjCoh/q/VG98lV3YabBpl09xx3YkfSMAiJ4F4burbYVuIs+b7GcRZMWOIs2Iuqq9t1qxZXPlIsttRiLONhPbit2ywmEsA4qy5fO1YetCzldxDmqLvFNV3MlKcLVs23o6ml6pOKouzgUCAeNqnZOcmsRy/TZs2MfnV2WefLcX5dOjQgfx+f0znFMtGEGfFlCDOirmovBbirHrWD3r3kntYC+SjJuajJe8NVs+xDDhjiLMGQGyoCC3oI1dOOhqA6AYgJ50C7s0N4Wvw98suuyymxPvWW2/VPd+tf+/X5MpuDFtG2dI9vDXxWP5Y5CUQS2fYTttAnDXf1yDOihlDnBVzUXmt1+uNKQ+xUxsKcRbibLJiFuJsssgn97j+Q9+TKysVfaioPpQRAm3J/L8TkZZcAzvg6CqLs2w+nvbJTnlKfXXZvn17vR731VdfSXMujz32WL3nEu+PEGfFxCDOirmovBbirJrWD3n3IB81IRflfLZw9u/UdCoDzhrirAEQYyki7CtHAyBqALIbU6jkSCwI69yG5+fo06dPvQn4+eefr1uYDRXsJVdWCm4qRNnRnd2EwtVlddoHP8hBoL4OsB1/gzhrvl9BnBUzhjgr5qLy2i+//LLeHMSObSjEWYizyYpZiLPJIp/84/q3f4p+VFQ/Sq84WzjrhuQb1iE1UF2cLSoqopSUFCnymTPOOKNer7vmmmukOI+mTZtSKGTsyGMQZ8WuAXFWzEXltRBn1bV+wLMN+ajB+Wje0/2INDwomGhUQZxNlFwC+wXzd5N7aDM0AtGNwLBWFK4oSIDo0V2qqqqoR48ewiT8tNNO0z1UTLgsl1zZTWC7KNvxkBChogNHDYFP0hKwo3hQX50gzprvahBnxYwhzoq5qLz2kUceEeYf9bVhyf4N4izE2WTFLMTZZJG3x3ErvnoB/amo/lSiAm3+1PNxI8xAt1ZdnGWUDz/8sBT5TGpqKrndbqH1ZcrTeYouoxeIs2KiEGfFXFReC3FWZesTVf/4IfJRg/LRvCf7khYybnh+FT0T4qzFVvfvWUXuIRloBKIaAc/jXYkC1bqskZ+fTzxXWO0bnieddBKVlpbqKlcLVJF7RFvYLMpm/KBB4OB3uthiZ/sQqB03MnyGOGu+70CcFTOW6aZPJJb3798vPhms1U2gsrKSGjdufEzuEeFu5/8QZyHO6nb+BAuAOJsgOAftVrp4JPpVUf2qeAXa3Am9iDCljKFRAXGWaN++fcTCp53zl0jdbr/9dqH97777binqz3P8FhcXC89Bz0qIs2J6EGfFXFReC3FWZev/dO7ln09FPqo3Hx3XncJVJXAmnQQgzuoEmMju1RvfJ1d2GhqBqEYgb9LpieA8Zh/uULRs2bImIef/eXl5x/we9xctTLnqRDJ1AAAgAElEQVRju8FWUbbieXerty6NGyd2sC+BSEdXlv8QZ833JYizYsYQZ8VcVF07bdo0KW4CRrftN9xgzVCYPXv2lIoPP+SHxVwCEGfN5StF6ZpGxe/8E/2r6P5VjN955CLNVy6FqWWqJMTZn6z129/+VorrdkZGBhUWFh7jYjw0c3S+Y9fvv/zlL4+pu1FfIM6KSUKcFXNReS3EWZWtf/TcSxcNQT4aY/4Z/SChZ0RbCpW4jsLEp4QJQJxNGJ2+HSvXvIoGQNAA5D9zkT6wRLRt27aaJz5dLv2NRP5T58FOAjtV/XeBbjuhAHsRsGvHta56QZw1338gzooZQ5wVc1FxLb81K8v8bNFt6S233GKJySDOWoJZqoNAnJXKXKZVVgsHqfD129DPEvSzom9+1f7uzkrTPR2QaUaVvGCIsz8ZcP369dIInGPGjDnG60aPHi1N3T0ezzF1N+oLxFkxSYizYi4qr4U4q7L1a507PzD4xh3IR+PMR12ZKRQqxBSHtTxJ10eIs7rw6du5fPmTaAAEDYD35d/oA0tEfMNU71Iw4xrYR2CfyrWv6kWL/W1IIPrGvd2/Q5w134kgzooZQ5wVc1FtraZp1Lp1a2luAka36XfddZclJoM4awlmqQ4CcVYqc5lb2VCAvM9dgv6WoL9VW5Ct/TlYsNdcmyhcOsTZo8aXReBjwa26+ujUWLIMydyuXbujsA3+JIvtInnpaaedZjABcXEQZ8VcVF4LcVZl6x977lo4RPnPXYx8NJ58FMLssU6k8xvEWZ0A9e5ePPdONACCBqB4/j/0otW1f9Fb98AuAruUfjRSF1fsbF8CkQ6SLP8hzprvSxBnxYwhzoq5qLTW6/VSs2bNpBVmuZ3Pzs62xGQQZy3BLNVBIM5KZS5LKps7rjv6XYJ+V21Rlj8HDv1giT1UPQjE2aOW/+STT6TJcebPn19T8VdeeUWaOu/Zs+cobIM/QZwVA4U4K+ai8lqIsypbX3zu7tEdkI/Gko8e2SgGiLUJE4A4mzA6g3bUNCp46Vo0AIIGoGzFUwZBjqMYTaOyZRNgD4E9iuYMigMkNpWNgCyibKSeEGfN9zCIs2LGEGfFXJy+lt+U5ekS7rjjDmlu/kXaS9H/p59+2hKTQZy1BLNUB4E4K5W5LKksv7HgHtkO/S9B/6tGoM1KpeqN71piC5UPAnH2WOvLwqN9+/YUCoWkmWaiRYsWFA6Hj4Vt4DeIs2KYEGfFXFReC3FWZevXfe7ukW2Rj9aZj6ZQ1fp5dcPDLwkTgDibMDoDdwwHMaRTHcFf9f1cA0E3XFTFmtloiAW28E6/mkgzrxPRsGWwhdkERDfv7bwO4qzZHkH0z3/+UzoRavfu3aaDkVGcff311+mjjz7CX5wM+G2M559/vkaQ5SHo7Nwmxlu3yJsmZgcMxFmzCctXPsRZ+WxmRY216nJyD22Gfthx/bAUKv/iOStMoPwxZBEjI9f7tLQ0U2322muvSZP3PPHEE9LUdcGCBabaDeKsGC/EWTEXlddCnFXZ+nWfuxaoxgODx+WijWry8/Ll/6obHH7RRQDirC58xu2s+Ssob/JZ6JAKGgH/zpXGga6npOpNC8FfwD9/6vmkBX31kMNPTiAQ6ejL8h/irPled/vtt0tzoyPitxBnG0lns4jt8N9a21nVhkKcNb+tlu0IEGdls5h19Q0VHiBXdmP0x2r1x8qWYEoZqzwQ4uzxpJGbGZubsUBYWVl5PGgD10CcFcOEOCvmovJaiLMqW7/+cw8VHST3sJbIR2vloyXvPVw/NPyqiwDEWV34jN05XFlInse7ogGo1QD8NNdOCgU8W4yFHVWaf+/X4H4c90aU+3g30nxlUbTw1YkEZOt8WyUsONHWsZ7TBRdcIJ3QB3HW2JtIsrULqG/s9vd4PLE2Bbq2gzirC58jd4Y460izGnZS/gPfkuvRn57Qj55zVbXvRW/faxhXFNQwAYizxzMaP368dH0BO+eCEydOPB6ywWsgzoqBQpwVc1F5LcRZla3f8LkHj/yXXDnp0AkyG1HRa7c0DAxb6CIAcVYXPuN3Dpd7MaSTQCR0Z6dTuNScG4mBvJ3kRqN73EXHndOEwlUlxjs5SrQlATt3ZEV1gzhrrhsFAgFq3LixdDdkIM7GLs6J4grr1ODHQzTzHLpWLBBnraAs1zEgzsplr2TUtnrzouP6JaoJswUzrkoGeqWPCXH2ePP7/X7p+gJ2zWV5GOrCwsLjIRu8BuKsGCjEWTEXlddCnFXZ+rGdu2/X5+TKSlE6J82bdAamOIzNXXRtBXFWFz5zdtaqy5QO/ro63+5hLSjsN3YYmBoxfEhT8BYI4looYI6Do1RbErBrR7auekGcNdeNmG9d7O28HuKsGuKinX1QhrpdeeWV5jYgtUqHOFsLBj7WEIA4C0eIhUDl1zOU7Z/lTuyLG2GxOInB20CcFQO9//77pewT2C0fu/vuu8WADV4LcVYMFOKsmIvKayHOqmz92M+96oe3lc1HPSPbEVn0QHfsFnHmlhBnbWrXmjl3slKVbQTqEmg9j3UhzVdhiNW0qmLyjGwPxtHCbHZjCpa6DWGMQuQhYLcObEP1gThrrm/dc889Ut6IgTgLcbahtgO/N6IRI0aY24DUKh3ibC0Y+FhDAOIsHCFWAiWLhinXT/OM60Fa0BcrImxnIAGIs2KYhw8flrJPYKd8LzU1lfbv3y8GbPBaiLNioBBnxVxUXgtxVmXrx3fu5cufVC8fHdke+Wh8bqJra4izuvCZt7MWqCbP6BOUawDqEmUj63moXf/uLw0BX73tE3JlNwbjKHE2d0JvNMKGeJhchdipAxtLXSDOmudfPBdlLDaw4zYQZyHO2tEv7VanNWvWmNeARJUMcTYKCL4SxFk4QawEQt69xH2/SD9Qhf9ly8bHigfbGUwA4mzdQG+44QZp+wZ2yMEuu+yyuuEa/AvEWTFQiLNiLiqvhTirsvXjO/dQWa5SuSjn26VLRuKt2fjcRNfWEGd14TNpZ02j3Il9lAv+hjrc7uw0qlo/31Dold++Tq5MtceQF3HPn3q+oZxRmP0J2KHjGk8dIM6a41M8D+X1118v7Q2Yffv2mQOmVqk7d+6Ulk88MYZtnSl0t27d2rL5ZjlsIM7WajzwsYYAxFk4QiwEQiVHyDNKzRGOKte+GgsibPP/7J0HmBRF+v83kEGSiiCgCJhPEAUVDIfhTgUx/O7O8xQ9vTMg3skuSxAEFFBUglk5VP4KKnCiiMIRRFBRQFCCShJEEJiZnU2zcfL0+39qdXQZendnpjpUdX37efaZnZ6u6qrP+1b3W/XtrjKYAMTZ2oFu3LgRsW9GenFhZmYmbd68uXa4Bv8CcVYfKMRZfS4q74U4q7L1k6+7VlVC7odaKanPlK+ekTwoHMlFAOIsFz5zEhc8fYGSDV9PJKy5r/KLl00BXrHqSfBOeHuWcS960bo16UwxLDJNiYBsQgzE2ZTMm/TBU6ZMkXrw5aeffkq6rukeCHE2vcEp2a4xTi2vlW9vsDYGcTbdK41z00Gcda5tjapZrKqYvBNPVrp/Fty5zCicyCdJAhBn6wbVq1cvqfsIdsV1J554Yt1gDf4V4qw+UIiz+lxU3gtxVmXrJ1d3Leyn/MldlY5Hqza+nhwsHMVFAOIsFz7jExe/dr3SDb+mGFvz//Ll5k7xVLrwAXDXEWhL3vir8U6OHIUkYFeHNd3zQpw13o1Gjx4t/aCL1+s1HkxCjhBnIc6me90SId27776b4NHmfoU4ay5fGXOHOCuj1SwscyRI+Y+fhn5ZTiZFPDssBI9TQZyt2wdkFDJEiLvWrFlTN1iDf4U4qw8U4qw+F5X3ynhN++6771Q2mbV1j0WJzShZU5dQ8/9MCu7+yFr2Cp4N4qxARi99Zwgavo5A6Jv3T0usVDTrGvDX4V/2QZ4l/HESewmI0HlNpQwQZ43zl4KCAurWrZv0wizzn9LSUuPA1JITxFmIs6lcq0Q6tkmTJpZOacyaEMTZWi4kCu+GOKuw8euruqaR94mz0B+L98dysylWbv5DZ/WZRZXfIc7WbWm29Ennzp0d0V+wMjarm6rxv0Kc1WcKcVafi8p7Ic6qbP3661700pWIR3+JR93DG1DEs71+aDgibQIQZ9NGZ2zCitVT0fDjHdEan+yCaNmmaVQwDU/G6D0NVLn2BcvMgBPZQ8DKTqoR52KDuyUlJfhLkUFxcTExMXb37t00fPhwkq2jWpfvsDWdotGo6Q0I4izE2br8UOTf+vXrZ3r7SDwBxNlEIvgOcRY+UBuBgucvQ3+4Rj+Y9ck8o5pTrKqkNmTYbyABiLP1w5w+fTrE2RTWnp0zZ079UA0+AuKsPlDZ+rwtWrTQrwj2GkYA4qxhKJ2VkaaR7+07EI8mxKOuvEYULTnoLFsLVBuIswIYw//1PDT8xIafk0EFM/qQFo1YaiEtGiLvE2fDHjr2CHz7vqW2wMmsJSCyoICyQQxLxge6du1qSaOBOAt/TMYfRTyGPZhh9QZx1mri4p8P4qz4NrKjhL55/0D/S6f/xQTa/EdOJM3vs8MsSp0T4mxy5maikYgxjmhlysrKsuSh0USrQZxNJPLzd4iz+lxU3gtxVmXr11738uWPIB6tJR71jGlDUczoUrvzcPwCcZYDnhFJg7tXoeHrNHzvlNNJC1UagTjlPDR/KeVPOgV20bFL6Md1KfNEAjkIiNahRXkggKXqA7feeqsljQ3iLHwzVd8U4fjjjz/ekvaReBKIs4lE8B3iLHwgkUDZionod+n0u2rOZuR98nekBSsS0eG7gQQgziYHc+jQoRBnk3h7dvz48ckBNfgoiLP6QCHO6nNReS/EWZWtr1/3ys+eRzxaXzw66WTSQlX6ALE3bQIQZ9NGx58wfHgbGr5Ow/c83I5ilUX8gDlyiJa5yfPwcbBPgn3cuVkULd7PQRZJRSUggniAMkD04vGBWbNmWdK8IM7CT3n81K6027Zts6R9JJ4E4mwiEXyHOAsfqEmgct1McuVkos+V0OeqKczG/y94pi9p0XBNfPjfQAIQZ5ODGYlEIM4mIc4WFhYmB9TgoyDO6gOFOKvPReW9EGdVtv7Rda/aNJfYeHc85sJnRq0svE+edTRA7OEiAHGWC1/6iaMlPxGbsxsN/sgG72bzmJfnpw/2l5SXXHIJdx7R4gPkHtkENkocLMhrRLHKYm6+yEAsAnYJBjgvhC6jfGD9+vWWNCqIs/BZo3zWqnzat29PmqZZ0j4STwJxNpEIvkOchQ/ECQS+XUyu3Gz0tRL7WnV8L3zxijg+fBpMAOJs8kAHDBgAgbYOgfaOO+5IHqbBR0Kc1QcKcVafi8p7Ic6qbP0j6x7ctZLceQ0Rj9YRfyZqV4VTzz0SIr5xEYA4y4UvvcSxQBm5R7dEw9dp+LEK/jdmzznnnOrOAgtMebeo7yDspGMn95g2RNEQL16kF4iAVSIBzgNhyywfKC8vt6RFQZyFD5vlw2bl+/XXX1vSNvROAnFWj4ra+yDOqm3/eO3Drm/INRzCbOJgVzLfS165Lo4RnwYSgDibPMxgMAhxtg5xdufOncnDNPhIiLP6QCHO6nNReS/EWZWt/1vdQ4e3QZjVGfNPJh4twgODvzkS538QZzkBpppcC/nJM/4ECH5HNf5MihTuSxXnEcfHYjG66qqrjugoXHPNNdxvi4Q9O8mVi+m2Ei/O+RNPwtRaR3ig3F/MEgWQL4QsK3ygZ8+eljVAiLPwaSt82qhz9OvXz7K2oXciiLN6VNTeB3FWbfuz2scqvOgLH9UXPnI2qcR+V+L3ssXD4UgGE4A4mxrQ884774hxF6PiFtnzufzyy1MDafDREGf1gUKc1eei8l6Isypb/+e6x8rc5MJUxlwxuW/+P+FIBhCAOGsAxGSz0MJ+8j55NpfjJ3bMnPE9kwI7/5csRt3jmDB7zz336HYQHnjgAW6BNrDtXdhNZxCh4JkLSYsEdW2CnXIRkL0jjPKrLZiNGzfOsgYHcVZtX5PpWtOgQQP64YcfLGsbeieCOKtHRe19EGfVtr/m92GNWZ0+VTp9+sovZqrtTAbXHuJsakD37NmjO/YiU5xkRllXr16dGkiDj4Y4qw8U4qw+F5X3QpxV2fpEmr+U3CObYZzfgJi0/KPH1XYmA2oPcdYAiMlkocUiVPTSlWj4Og2/6vOXkkFY6zFsHbXx48fX2Tl44oknak2f7A8Vq6fCfjr2K371emL+jU1uAmZ0TpEnRCyrfGDLli2WNUCIs/Brq/ya9zwTJkywrF3UdiKIs7WRUXc/xFl1ba8Fysn9EJb2SUeI1U+TSf5t76rrUAbXHOJsakDZGMypp55a5xgMbxwjW/rTTz89NYgmHA1xVh8qxFl9LirvhTirrvW1aJg849phfF9nfF8/3qx/dpeqr+aq61AG1BzirAEQk8miePb/oeHrNPyy/z2cDL46j3nhhReS6hTMnct/sSh970HYUceOxW/dUaeN8KP4BGTr/KK8EMjiPtC5c2dLGxjEWfhe3PdE/jzttNMoGo1a2jb0TgZxVo+K2vsgzqppfzbTTv7jp6EfpdOPSncgrDpdbjaF9n2uplMZXGuIs6kDXbJkSVLjMCLHS0aWbc6cOalDNDgFxFl9oBBn9bmovBfirKLW1zTyTjkD8ajR8eiwDAruXqWoU/FXG+IsP8N6c/C9eTsavk7DL3lzcL3s6jtg6dKlKXUIPvvss/qyrPt3TaMiCO26/ly68IG62eFXoQkY2TFFXhCvrPSB++67z9K2BXEW/m2lf6dzrkaNGtHhw4ctbRe1nQzibG1k1N0PcVY922tajAqf6avbf+ASJnX6l0rml9eYIoU/qudYBtcY4mzqQCORCHXo0CGl8Zh04hoZ0rRt25Z7Ka3ULXB0CoizRzNheyDO6nNReS/EWTWtX/TC7xGPmhU/52ZRpHCvmo7FWWuIs5wA60te+sEoNHydhl/w9AVEmlYfvjp/Z9NYphqoZ2Zm0o8/cnZetRh5n+oJu+rYtXzVlDpthh/FJZBqW8LxEKhE8AF2TS8qKrK0YUGche+L4Pt1lYENNoiyQZwVxRLilAPirDi2sKokxa8OQr9Jp99kqJA8ojFpUSwzw+PTEGfTo/fss8+mPCZTVwwj62+TJ09OD6DBqSDO6gOFOKvPReW9EGfVs37JG39FPGp2PJqbTZrfp55zcdYY4iwnwLqSV37xHzR8nYafP759XdiS+u3QoUOUnZ2dVkegQYMGVFJSktR56jrINaI57KtjX6x9VJfXiPubrB1hlFttoaxr166WNyqIs2r7nOjXnP/7v/+zvE3UdUKIs3XRUfM3iLNq2b30naHoL+n0lwwVZmvkT1pMLQczsLYQZ9ODGYvFqHnz5mmNy4geU6VSvvToGZ8K4qw+U4iz+lxU3gtxVi3rl304GvFojXjRrDiU5ese1Yy0cEAtB+OsLcRZToC1JQ9sX4KGr9Pw8yd0JIrxPdXrcrmoRYsWXB2A1q1bU2FhYW3mS26/ppFn7LGw81F2zqTgXs7po5OzAI4ykEAqnU8cC3FKFB9Yv369ga0guawgzsL/RfH/xHKcf/75yTmxhUdBnLUQtiSngjgriaEMKGbl6mnoJx3VT8owlYln3AmkRTAglo77QpxNh9rPae6//36usZnEeEa273//+9/Th2dwSoiz+kAhzupzUXkvxFl1rF/5+cumxl5mCp2y5p3/SEfSghXqOBlnTSHOcgLUSx46sJHcuVlo/Amd0fwJJ1Ksiu+NVSaonnjiiYYE/126dOF+gzZWVUxuCLRH+3peI4q4vtFrHtgnKAHZOsEoLwQy1sm2Y4M4C98T8frTo0cPCgaDdjSJOs8JcbZOPEr+CHFWDbNXbXzj6P5BQt9Q1gEn0ctdOL03aZGQGo5mYC0hzqYPs6Kigth69yLGR1aUSeNcrit98kenhDh7NBO2B+KsPheV90KcVcP6gW/eQzxqU/ztnXouaaFKNRyNs5YQZzkBJiaPFh8gV14jNP6Exu8Z25aixfsTcaX0vbKykk477TRDg/6ePXtSVVVVSuVIPDhSsIdco1rA5gk2d48+hqK+Q4m48F1QAlZ0XHEOiFpG+sCXX35pS2uCOAs/NtKPjcjrrLPOotLSUlvaQ30nhThbHyH1foc463ybVw+E5Waib5TQN7JS1C16ZSBhiuPU2hrE2dR4JR79xz/+0dBxGiPiIyvyuPrqqxNR2Pod4qw+foiz+lxU3gtx1vnWD+75BLGojbEoi3sLX7yCtGjY+c7GWUOIs5wAaybXIkFyj8I6pIkdT/eIJhRxf1cTVcr/s6cRmZBqRoDdr18/ikajKZepZoLQT1+RK68hLvwJF34myuPJ7ZqeIu7/ZrQt5AkRyywf6NChg22NCeIs/Nosv04nX5GFWdZIIc7adqkS9sQQZ4U1jSEFC+39FH2ihP5QYt/Yqu++eXcZYlNVMoE4y2fpoqIiyszMNGW8Jp34yKo0P/74Ix84g1NDnNUHCnFWn4vKeyHOOtv6Ec92cmFGUyE0iuLXbiASaIYJET0f4qxRVtE0cj/UUgjHt6rDl9R5crMofPArbsrnnXeeqYH+FVdcwV3G0J415MrBU+KJfuEZ24abLTIwn4BVHVicB8KWET7ABFK7Noiz8GEjfNiIPJgwGwiIvbYgxFm7rlTinhfirLi24S1Z2LOD3COboD8siDjL+mTlyybwmlWZ9BBn+U3dsWNHU8dsjIidjMyjd+/eJNKUxsyCEGf1/RjirD4XlfdCnHWu9aNlbnKPbIZ4VKB4tPjN25zrcAbUDOKsARBZFvkTOqDh6zT80N5PuAlfe+21lgT5N910E3dZA1sWwA90/MAzrj03W2RgLgEjO6rIC+KVmT5w8803m9sY6skd4iz820z/Tjbv/v371+OpYvwMcVYMO4hUCoizIlnDuLJEKwrINRyzCCU+pCrCd//XbxtnaAfnBHGW37hlZWWWjNskGyuZfdzatWv5oRmcA8RZfaAQZ/W5qLwX4qwzra+FqsiDF+eE1CXKl45zptMZUCuIs7wQYxEqePoCIR3f7s5g5fpXeOlSXl6epQH++PHjuctcvnwC/EFHoC189mLSYnzTR3MbBxnUSsDszivyh6BlhA+wjrXP56vVj634AeIsfNkIX043jwYNGtCsWbOscHVDzgFx1hCMjsoE4qyjzFldGS1YTu7RmEHK7r53XecP7l7lPMczuEYQZ40B2qpVK0vHb9KNp3jTnXTSScYAMzgXiLP6QCHO6nNReS/EWedZPxaspPxHT8J4vM54fF0xopW/+TfNdZ7jGVAjiLM8EGNRKv5/f0LD12n4ZUtG85CtTvvss8/aEti/9tpr3GUv/e8Q+IWOX5S8ORhzzXN7lzkZ8HZQkR6Cldk+wNaxevfdd81pACnkCnEWvm62r9eWf6dOnWjnzp0peKv9h0Kctd8GopUA4qxoFuEsjxYjzyOd0O/R6fdYOdhV37ncw7Mp9OMXnMZ2dnKIs8bY95NPPrFlDKe22Mms/UaMGRlD/MhcIM4eySP+DeJsnAQ+4wQgzsZJOONTiwSpYPp5iEcFj0fZOsCBHf9zhtMZWAuIs+nC1DTyLRyKhq/T8H3z/8ktwC1cuNC2oD4rK4s++OCDdD3j53RajEreuAX+oeMfZR+M5GOL1KYQMKvjinwhZBnlA7fdJsY6FRBn4dNG+XSy+bAHE+655x4KBoOmXP/NzBTirJl05cwb4qycdqut1AVP/g79HZ3+Tn1iqR2/u0c2pfDBzbWZUvn9EGeNcYFQKEQtW7a0bSwn2diK57jjjjuOwuGwMcAMzgXirD5QiLP6XFTeC3HWWdYveulKxKOSxKOuvIYU3r/BWQ7IWRuIs2kCLF8xEQ1fp+EXvTKItGgkTao/J9uwYQNlZ2fbGtA3bNiQNm3axFUPLRKiopf/AD/R8ZPKz57jYovExhPg6aAiLcQqs32ATR3GBntE2CDOwt/N9vea+Xfu3Jk7HrGz3UCctZO+mOeGOCumXdIpVdHLV6Gfo9PPsUN4TfacnjFtKFp8IB1zOz4NxFnjTMyWX6gZyzjt/zFjxhgHy+CcIM7qA4U4q89F5b0QZ51j/eLXbkA8Klk86h7ZjCKF+5zjhJw1gTibBsCqDa+i4es0/MJp5xETJHk2r9dLTBgVIYBv0qQJ5efn81SHtHCAvE+dA3/R8Zfg9g+52CKxsQREaHMoA0QvPR9gD+vYvc5szdYGcRZ+quenRu9jsdDSpUtJ07Sa7ifd/xBnpTOZ6QWGOGs6YktOUDJ3MPo3Ov2bZEVSO4/zjD2WYn6fJX4i00kgzhpnrYqKCmHGdIyOz5o2bSr0TCYQZ/X9GOKsPheV90KcdYb1ffPuQjwqaTzqHt2CKOx3hiNy1gLibIoAQz98ioav0/A9444n0mIp0jzy8Gg0SmxKYaMDaJ78mCjAu7E3iRkfOzvhop474tnBixfpDSLA006QFmKVmT5QWFhokJcbkw3EWfi7mf7O4o63336bWEzkhA3irBOsaGwdIM4ay9OO3MqWPIx+jU5/WNT+ll65PA+1Joo54z5jVBuAOGsUyZ/zGTlypFDjOkbFboMGDTIWlMG5QZzVBwpxVp+Lynshzspv/bJlExCPSh6PuoY3kN8RDagBxNkUIEYObyO2eLFeB0flfWz9GuJ8s6OqqopEDZgaNWpEgUAgBU85+lD2RjF7bV9lP9Gru3t4NkUKfzgaGPZYTsCoDivygXBllA+wdTbXrVtneVuo74QQZ+HjRvl4PB/2YBqbvnjFihX1uZ90v0Oclc5kphcY4qzpiE09QdWG2ejPyD4Q9kv58yd0Io3z4WpTnc3izCHOGguczYhm91JV8TjLqE/WN+EdFzKW8tG5QZw9mgnbI+pYY22+2aJFC/2KYK9hBCDOGobSloyqNr6BeNQh8Sib0UWLirmOu1XODXE2SdIR7x+NNggAACAASURBVG5iIqSewKTyPiY4apyvoVdWVlKXLl2EfrLylFNO4Q7EY5XF5M5rBB9KuIGwqQwiRfuTbIk4zCwCtXUMsB9ClB0+wMSqRYsWmeXuXPlCnEWbMKJNsAG+bt26UU5ODrE4yKkbxFmnWjb9ekGcTZ+d3SmDO/6HfkxCP0b2cYCiZy/hfsjabr806vwQZ40i+Vs+N954o9BjPKnGc2ecccZvlRP0P4iz+oaBOKvPReW9EGfltX5w90eIRx0WjxZM700Ui8jrlJwlhzibBMCo7xC5x7ZF409o/ExojHi/T4Jg7YcEg0G64IILpAjaL7nkEgqH+Z7mCLu/w9vXCX7EBjU849tTrJxvfd/avQy/JEMg1c4pjodAZZYPNGjQgBYuXJiM29pyDMRZ+H66vt+uXTti0+G9+OKL5HK5bPFfq08KcdZq4uKfD+Ks+DbSK2Ho4FfoC+v0YWQXZ1n5fW/drmdy5fZBnDXe5CxmFm3ZqnRjOJaOvQ0s+gZxVt9CEGf1uai8F+KsnNYPH95Gh3Mwo6kT4s/EOhS/diMRaXI6JmepIc7WAzDm91H+o53QGU3ojLpzsyj4w2f10Kv751gsRtdee60Uwmw8iL/ppptI45zCObBrJfwpwZ/YRdk7uTvFAmV1Ow1+NY1A3MfxCeHJTh9o0qQJrVmzxjQ/NyJjGcXZu+++m4YPHy79H3vLVOZBvrIy9e5xsomzxx9/vBGXCeRRB4GlS5dKFfuze+K+ffvqqJHzf2JLkLhyM5Xpv3jGtqWiVwYqU1/WDytbMtr5jlxPDSHO1gMozZ979Ogh3TVfry/UsWPHNAlYmwzirD5viLP6XFTeyx4G12vrIu/77rvvVDYZxSoLyT2isTrx2YgmVDLnb+rUlz0wuHCokj4OcbYOs2uxKOU/epJSDSHxyYXavvu3vVsHueR+Gjx4sHQ3Q3ajvu+++5KrYB1HYX78DN125X38DNIUnsqgDpcx/SeRg1CUTQ3BmAmzBw4cMN3XeU8gozi7f79zpo5/6623pIwd2HWsffv2vO4nXXrZxFk23TQ2cwm8/PLL0rVhlcXZWEUhuUc1143ba+snSr1/RBOKFu2rXou1YPr56tQ7N5MqP3ve3MYveO4QZ80x0NatW6W75uv1PTdv3mwOIINzhTirD1Q2cZaVF5u5BF555RXprk0qi7NaJEQeleLRnCyK5O+sbgRFM69WJx7NyaCKlY+Z2/gFzB3ibB1G8UzoqFQDSLYjXfnJjDqoJfdTXl6edDfCmkH69OnTk6toHUeVL58I/9J5g7bgibProIafzCJQ07/xvxpiqEh2PvPMM7mnjTerbSTmC3E2kYi139nsFQMHDpQ2hnjggQesBWbz2WQTZ9l1EZu5BG6//Xbp2q+y4mwkSJ6xx6rTX8nNopDrt7dSNC1GrjGtFap/JgV2LTf3AiBw7hBnzTNO06ZNpbvu1+wnNW/enNisbzJsEGf1rSSbOMseWsZmLgE2I1PNdi7D/8qKs5pGnocVikdzMij047oaDUAj75NnqxOP5mRQYJu4y5zVMIxh/2IEQg+lplHBM32VcvxkhdnSd4boEUtp3+zZs6W7CerdqJcsWZJSvfUOLnnzDviZjkBb/NIf9HBhn4kE9Hwc+yDSmu0DbH3Z55+X600NiLMmXoiSzJqtV9+qVSspYwn2ZibzIVU2iLOqWDq5erKHKxo3bixd21VRnNUiQcqf3FWhfkomBb9ffbQjx6LkfqiVQhwyKOzZcTQHBfZAnDXPyMuXL5fuul+zDzRv3jzz4BicM8RZfaCyibNsGRfe5dT0SWBvnMDpp58u3XVJSXE2FiHvlDPUicNys6jq67fjbvrbZzSs3Myu4QObfqu/w/+DOKtj4JK3/65Ow9cRxmoTaotfu0GHVmq7Fi9eTGxgsmawK/P/q1frdOJTQ0JFL/8R/qbjh2XvPZgiSRzOQ0Dmdoiyyykis7dlZZjGOLFdQZxNJGLPdzbQJ+v6syeeeCIFAgF7wFl8VhnF2b1791pMSZ3TlZSUSNkHUE6cjYao4OkLleqfsCVnattiVcXkHttWKR7REvGXmajNXunuhzibLrnk0rEHMmXsszFRr6qqKrlKCnAUxFl9I8gmzrK2smjRIv3KYC83gfz8fCmvR8qJs9EwFb50lTrxF1ti4uMna/XvmL+UPBNOVIhHFoUObamVh5N+gDibYM3yZePVcXQdQaw2YbZw5h8TSKX+dc2aNSRrUF5bR6Jhw4a0bl3N6QZS58JSFDzbD36n448VHz+VHlCkSplAbT6O/XIKnyLbjXWOX3jhhZR9VJQEEGdFsQTRbbfdJmXHmrXPwYMHiwPSxJLIKM727NnTRCJqZ/3YY49J2WaVEme1GBW/er1S/ZKKj5+ot2FGCn8gj0Jv0LrzGlLUd6heLk46AOKsudaUcb1xFq+NHz/eXDAG5w5xVh+ojOJsjx499CuDvdwEZs2aJWU8qpQ4q8Wo5M3BSsWjpYtH1OvbLDbzKPTAoHtUs1/X3q0XjsQHQJytYbyqdbOUavi1CbGJ+wuf6Uts8W2ebevWrSRjQJSMwNGiRQvavn07Dx6iWIQKFJtDPtHPdL/nZlLVprl8bJE6KQLJ+DqOgVDL4wNs1oSxY8eS3+9PyidFPQjirDiWYdN9yRxbfPjhh+LANKkkMoqz7I1sGd/qN8mEhmYr6+w5KomzvjdvV6o/XD0QpmlJ+Xn44NfkGtFYGT6ecccTe2tYlQ3irLmWZm+fynYPaNSoERUVFZkLxuDcIc7qA5Wxv8Di0U2b1JnWU99yxu9ly+OwMVyecQ270qokzpa+96Ay8RYbC/fNvztpZ494dpJ7ZFNl+HgePo6iJT8lzUfGAyHO/mK14K4V5MrJVMa5dYUwnTcXvY+fSlqoksu3Dx48SC1btpTy5pfsTbdt27bkdru5OGmBcrWmKNDxN12/zM2m0N5PuNgicf0EkvV1HAeBNlUfYB3Lhx9+mAoLC+t3RAmOgDgrlpG8Xq+08QUbGCgudvbAt4ziLLvGnXrqqWI5ugNKM3DgQGnbqirirO/dfyvVFy6ZextpsWhKrSu05xNy5WYpw8k7uStpYTWm4Yc4m1JTSOvgkSNHSnUf+Otf/5pWPe1MBHFWn76M4iyLR0866SQKhfhelNEnou7e+++/X6rrUM2xF1XE2fKVk5WJs9gYeNGr1xNpsZQaZfjwNqUY5U84kWJ+X0qMZDoY4iwRRQt/VKqTpSuA6QhlnoePpViwnMuf2ROSsj6VVPMmmMz/rVu35l6PJFZZRO5RLZS6yCblj8OzKeLwJ2W4GpoBiZPxcRwDYTYVH2Cd4AULFjhubU2IswZccAzOYubMmdJ2snv37m0wDbGyk1WcZde6yy67TCyYEpeGTWWfyv1DtGNVEGfLV09Vqv9R9MLviVIUZuNN0P/tYqVY5T91TsqDhnFWMn1CnDXfWocPH5bmXsDe8nW5XOZDMfgMEGf1gcoqzrJ4qE+fPhSLpSbc6FPA3uXLl0tzDdKLhVUQZ6s2z1cqxiqY3ivteDR0aKtSrPIf6UhaNOzIC5ny4ixbUDkpcUhHvHRyOjavN+80RiyAkDkI0rsZ1rfv+OOP5w6c2Bzy7rxG8EudNqfKk9t23G3q8238DmG2Ph9gb8g2b96c2NOo0Whqb6LY4fPpnhPibLrkzEvHpjc+++yzpe1sv/fee+bBsTlnmcVZds3r0qULlZSU2ExR3tOztvnEE09I2zbj9z2ni7P+rf9Vqt/hffx07kZVue4/SjErev4yoiSnf+aGa1MGEGetAX/zzTdLcU/o1auXNUAMPgvEWX2gso9Lspn6nD7bjr7ljNnL4lFZ15mNx6Ls0+nibGjfF+TKVWdGU8+jJ1Uvccjj5f5t7ykVj3omdXNkPKq0OBut8Cq1bkzSYnJuNoUL9vJcH6oH5tkUHDVvJKr8f8YZZxC7+fNs1WsaDW+g1EU2Kf8cnu3oqQx4fIY3rSrtE/U0TmRu3Lgxde7cmfr370+vv/66MlMuQZzlvdqYk/7QoUPUpEkTaeMOpwqAsouz8XvGqFGjiL3xgy05AuwBzW+++YbOPPNMadtk3Pbs08nibGjfWrUGwsadYNhboGWLcpTqq/nevjO5C4CkR0GctcZw27Ztk2LtWXYPk3GDOKtvNdnF2XhM8sADDxBbNg5bcgRYPLpz507q0aOHI+JRJ4uzYfYWqEJj4J5x7YgtbWjEVvHRFKXi0aIX+xuBTag8lBVntapi8ow/QSkHTkr8ysmg0P4NXE7KhMnLL7/cETe/eBCU6ueAAQO4GLLEge1L4J86b896JnSgmEE3MW4jOSiDVH3c7uPZgC+b4gd/5jK4+OKLq6/n119/Pd1xxx00fvx4mj9/Pu3atYv7IRRZm4+M4uyBAwdkxZ1SuefMmSNt7NG+ffuU6irLwU4RZ+P3PLYWLVszj73tvG7dOtq0aRP+Nm2iL7/8klatWlU9lT0bODzuuOOkbYtxW9f8dKo4G3ZvV2ogzDWyGWmhKuMun5pGJW8OVqq/VvbBaOP4CZYTxFnrDNK3b1+h7xHsHibrBnFW33JOEWfjsQmb2SU3N5cWLlxIX3zxBWLRX+LxjRs30scff1zNZdiwYdSxY0ehrzVxeyb76VRxNlKwR6nl/Twjm1G01Nhp80vfGaJUPOqbf7f+xV7SvUqKs1qokvKnnKGU4yYrzAa+4Z9ab/DgwY66ASZ7o0w8bsiQIdyXhapNc+GnOgJtwdSeRNEQN19k8BuBRP8V/fvmzZt/Kzz+AwELCcgoznq9XgsJ2XuqgQMHShuDsEEEp22nnHKKtPYQ/T6I8hk3E0R9LJ34lkqssojcI5up08/IbUCxco/xl9hYhIr+c606HHMyqGL1U8ZzFCBHiLPWGWHFihVCxwaffvqpdTAMPlPPnj2FZpt4vz3ttNMMJqCfHVt6J/Hc+G5dHAXWxrBmD8g7bYuV55Pn4eOUiqMi3u+NN6OmUfFrNyrFsXzpOOM52pSjeuJsLEIFT1+olMMmK8xWfjGT2w1Hjx6NoCfjtxvvxIkTuZlWfPI0/FVHoC168XLStBg3X2TwMwHZAmYmkGEDATsIyCjO+v1+O1DZcs7Kykpq06aNlLFIgwYNaP369bZwM+uk3bp1k9IWst0TUd7fYm8zWDjuARctRp4xrdXpXwzLoPDhbWZd5kgLB8g7rZc6PHOzqHLDbNN42pWxbOIsW15E5o29+WfG9Zo3z8zMTJmxUu/evYXkWptdIM6aG7/Uxh375eS+dy/f8oOiXdxY/MRmRkxWs3DCceHDW00zgxaLUsG08xTimUlV6/h1LNMMkkLGSomzbLrdwpevUshRM5Kua9n/xnEvquyEBdaNDlJYcM+mWeTaNI1K3x+etC2dcMNKtg4lr/+FCy0S/0bAaN83Oz+fz/db4fEfCFhIQEZx1kI8QpyKvVlv9jXIrPzbtWtH4XBYCI5GFMIpa46aZW/kK8fgWFWVgVPhGtGwOPPwjDteqX5F8PvVnMTqT149wKjQkknu4Q0osGtl/WAkOkI2cZbNTCHzNnv2bCFjtbfeektmrHTppZcKybW2eMcqcbZDhw5ScamNF/bLETeaZadDhw5JfX1KLLxqS00Gdq5IRGD891iE3KOOUSfOz82iwI5lxnO0OEelxNmSt25Xx0F13jSsTfAqnvM3brdjU7+YdQNyQr5sXTLerWT2/8F/dfy67IMRvGiRnki69gujgYBdBCDO2kU+tfPefPPN0l3X4vEOWx7CKVuvXr2ktUPcHvhUeyBM9rfTjryWaJT/2KlK9Sf8G984EoGZ3zRNrTV8czIokr/TTKKW5i2bOMuWcZB9E20dUPZgfSAQkBrrddddJ1XcZZU4279/f6m4IPZUO/aszf6lpaVSX59+LbymkWfiyUrFo5XrX/m1+lb8485rpBTfSP5uK7Cadg5lxNnyFY8q5Zi1CbGJ+wtf6M/tXDt27ECgU2Mq49pupEZMw1r4TF/4sY5AW/X5y9x+rHoGtfmtiPtln25KdV+Tvf4QZ+WxYOvWraWNT9h6bE7YBg0aJK0NRLz/oUzWD9a1b9/eCU2RtGiECmf+UZ1+RG4mlS9/1HLbaeEguUc0UYazOzeboqWHLedsxgllE2fHjBljBgZL83zkkUeEihHGjZN//bo777xTKKb1xS1WibP/+te/pOJSHzf8bn08aDfzrKwsikajll6jTTmZplHRzGuUiZOYBlP24WhTUNaVaczvI/dohd6gzcmgaHl+XUiE/k0JcbZy3UylGn6iAFvbd++TZ3M7J4TZ1IKCAwcO8DHXYso98V6b/ybur/p6Hh9bxVPbHWymcn4WmGIDAbsIQJy1i3zq5z18+DCxhzlSub6Icixbf7asrCz1SguWYvLkyVLyF8UPUI7U4mwzeJ133nmCtao0iqPFyDfvH0r1h0vfuS8NUMYkiRTsIVdeQ3V4j2xGWqjSGHg25iKbOLtmzRobaRl3ajOu2+nkyeJFj8djXMVsymnatGlSxV1WibOLFi2Siks6Pow09seMZtqgW7duNl1VjD2t75371YmPcjKo5M3bjQWYQm7Rgr3kHtVcId6ZFCv3pkBInEMdL876tywgV26WQs6Y3Dqz+Y+cSGyxaJ5t//791Lx5cwQ5Sbw1G79JM175+XxPc7A1jdyjW8GnE9+gzc2mwHcf8ri00mnjPirDZ3Z2ttK2QuXtJSCbONuoUSN7gdl89qefflraOKV379420+M//ccffywtfxnuhyij+QNx119/PX9DsDmH0g9HK9VvKPl/f7aZOFFo7ydKjUGwdYy1qNzrpcsmzoZCIdv93IgC/OMf/xAiTnDKkhKrVq0Sgmey8YlV4qzP55OKS7L8cJz5caAojK+99lojLrm25lHx0WNKxaNF/7naVt7s5KH960mlKY49Y4+jmF++6b8dLc4Gv1+tlBMmvklY23f3Qy1JC5ZzXSSKioqoXbt2CHBSEGbjN/UTTzyRKioquPizi41LsTnka/PnmvvdI5tQ6Ef+9X25jCNp4rh/yvB5/vnnS0oZxXYCAdnE2T//2f5BajvtzqZ/6tevn7TxynPPPWcnPu5zh8Nhad9eluF+iDKaPygn+zSXlZ8+q9ZA2MtXEWka97XLiAyqHxJPfJjUwd+NmJXLCO7p5iGbOJtuPUVLx9ZQFOFetn37dtHQpFWeqqoqqeIuq8RZBlMEP0MZzI/bnMr44YcfTuuaIEoi/1dzlYpHPVPOFCYeDe74n1IPDOY/fhpRRK4H2Bwrzka8u8k1orFSjb+mSFXr/3kNudeFCQQC1KVLFwQ3aQiz8UDh9NNPp0gkwnWfjBQfIFdOJnw8YZDDPaoZRYr2cbFVMXHcN2X4fP7551U0EeosCAHZxNkPP8SMAl6vlxo3bixl3MKmcS8uLhbE+9MrRsOGDaVkL8P9EGU0f5Bv5cqV6Tm+AKkCbDAmIU528vdqcVCwtzcrVk9VygZFL/YXwPPTKwLE2fS4GZFqwIABtsYJl156qRHVECaPNm3a2MozldgE4qz5cUwq9sCx4trjnXfeEeYak2pBwvvXKzV27RnXjijGN96fKuP6jq/apJY4Xvj0BcKI4/XZhv3uSHG2+q1ChTqiSXeyh2UQE615tlgsRkxYxE2b/6bdp08fHlNUpw0f3qZUhz9pX8/JJi0g/1p93A6SQgYytWneBxtSwIJDQeAoArKJs36//6g6qLhjzpw50sYunTt3ltpkzZo1k5a9TPdGlJU/Nk9kyB6OYH0fGbew6zul+ghsIEwT9Cl534K7lbJFyZy/ydhkSCZx9qKLLpKScW2F3rVrl61xwurVq2srmpT7ZRqvs1KcZedKvM/ju/GxE5iaw/TgwYNSXo9iVUVKxUDukU1JC1UJaavyZeOVskXRKwOFtINeoRwnzmqRALlyGyrlcEkJVsMbUHAX35PfmqbRFVdcgYCG443ZxEDl5ptvJsaVZ/N/u5hcw7Ph8wkPZLhHH0MUCfKgVSptom+K/F0pw6CywhGQTZxl0/pi+5mAzDHM0KFDpTXjkCFDEDsaGDuKfH92WtlkfTAi4v2e3Hnq9IfdY9pSrKpE6Gtk0cyrleqrlf9vnFRvLDDnkUmcffvtt4X293QKx5atseMe0q1bt3SKK3Sa3NxcW1imYz8rxdmXXnpJGi7psEQac0RREbi2b99e6GtObYWLlnmUmk7XPboFxcrcteEQYn/JvH8oFY/63hnKrblYYThHibNaJEieMccq5WhJCbO5WVS18XVuf7rtttsQzJgwuPbggw9y26by85eUuukl5fc5GeR5pDNRDMJEMg4mQtCZTBlkDUyTsQGOkYOATOLshRdeKAdUi0rJ3oBr3ry5lLFMZmYmffHFFxaRMvY0brdbSubJ3JNwjHMHwphtBw6U54nreKuNFu8n90Mt1ekPj2xGrM4ybIXPXaqOXXIyqHLtizKY5dcyyiTOulyuX8vtlH/YFPJ23FPnzp3rFIS/1uOnn36yhWU69rNSnM3Pz5eGSzoskca5MemgQYN+bd+y/MNESs+Y1srEPe5RzSns/lZ882gaFb12ozJ2YdpB+UdThLeLY8RZLRYl79RzlXKwZAWqik+e5nbEESNGIJAxQZiNB1ATJ07ktlHZionw/4S3Z1kbKXzGWdM+cTtKLRnEfVH0z//85z+11AC7QcAaAjKJsx988IE1UCQ6y5YtW6SNZ0444QQqK5Nzyn7R7y0on3MHtHhsu3btWomubkSxCi/lTzhRqf5A+PBWeWwUDVPBjD5K2ce/ZYE09pFFnG3SpAk5cYkXNptY165dLY3R2AN7Tt2ys7MtZZnuvdZKcTYcDhNbriDdsiIdYkW7fEC2h0hiVcWUP/FkdeKdvIYU3LNGmtuJFg1T4Qv91bFPTgZVfPaC0PZxjDhb9J9rlHKsZIXZ8v9N4HbAp556itgbG3bdiFQ4L+P74ov8TxeXvvdvtAMdgbbk9T9xtwOnZyBLO2NPvGIDATsJyCTOor3oe0peXp60Mc2f//xn/UoJvrd3797SMpfl/ohyGjto2LBhQ8FbVULxwn7yTjpFqX5AeP+GBAjif9WC5eR9rLtSdpJlwFIWcfZf//qX+I6eZglffvllS2OFxx57LM2Sip+MzZ4jQ1xgpTjLrIbZAI2NlWTwMdnL2LhxYwoEAuJfdH4poRb2U8FT5ygV5wS++1Aa+8QLytbF9apkJzaj7Fdvxasv3KcjxFnfvLuUavjJCrOlC+7hXuvlzTffxNNlJr4xWzNQYE83vvfee9wXieJXr0d70BFoSxc+wM3WyRnU9EVR/2/Xrp0U6wU42U9QNyJZxNlzzz0X5qqFAHvjhE2RLuq1rr5yrVkjz5O5cRPI/MZyffbA784c6DvrrLPi7ivFp/fxU5WK//3fLZHCLnqFZG+UeB4+Th17DW9A4cPb9FAItU8Wcfarr74SipuRhWHxmZV2YG/rOnU7dOiQFHGu1eLshg0bpOCC2NKZsWU6dv3d734nz2VKi5FXuRlC/iuPfRJKqgUryDO+vTLxqLv6DefVCRTE+Cq9OFu+YrIyjpSsKMuOK3rpCm5hlq1thjdmrQ0K2DQrX3/9Nd/VQdPIO60X2oWOQFuxZgYfWwenTidQtDoNe5oaGwjYTUAWcfbtt9+2G5XQ5//hhx+kHZxhsZlsG3vi2+p7Bs5nbQzrNN579uyRppnlK/YmZuXn8seDscoico9ookx/zT2iMUXL3EK3KStFwXSvl23btnX8g6q5ubmWxAv33nuv0P5oROHS9TMr01ktzrIHANjU4FbWEedCPMrjAwsXLjTicmBJHkUvXqFMXMN0l4o10yzhaupJoiFy5TVSxm7u3GyKFIjXx5NanGWvJKciWKpyrHdqDyItxtV+d+/ejYDFojdmE2/UbNB13759XPZjc8h7H1PrCfpk27d/G//byVzGETRxoh+K9p21C4/HIyg9FEslAjKIs2w6zsrKSpXMklZdn3vuOWljnQ4dOqRVZzsTDRkyRFreot0TUR5zB/rYw5KybKrNmFP2QZ4spqm3nNGifeQa3kCd8YzRLYmJ0qJuMoizkyZNEhWfYeVib7M2atTI9HhBhTh5zJgxpnPkjUesFmeZoz700EPCc+HlivTmxolW8WXXQlk23/x/qhPP5GSQ77/3yWKaessZC1WQW6V4NK8hxcrEGluWVpwNfr9KqYafrPCUP+kU0iJ889F7vV5MZWyTMBu/ybOn+QoLC+u9iNZ1gBYoI8+jndBOdN6gDf2wti50Sv4W9z1RP2+88UYl7YJKi0dABnH27rvvFg+coCXq16+ftAM006dPF5SqfrFkaDui3gNRLmsH2R5//HF9JxZsb9niPKXi/JI5twhmAf7ihPavV8qG+RNPIjaNnoib6OIsG6QvKCgQEZ3hZbruuutMjc0GDhxoeJlFzLCoqMhUjkbEJnaIs/v37ye2pJgR5Uce1sZnqvFmayTLsJWvmKRULFM0ayD3TKWi2ZW9TcreKk1We5L9OPdDrYSKR6UUZ4M/rFXGYVJxePfYtsTWsOHZ2BOETZs2RaBiszjLgo42bdpQOBzmMSfFSl3kfqg12ouOQCvD2kdcxk8xseiBLvd03ynywOEgUBsB0QUmNthw4MCB2oqP/QkE2ANpLVq0kDLuYQO1Mk29ytBfeumlUrIW/R6J8hk7OFhRIaZ4VPPyVbF6mlLxfeHzl9WsvqP+9295RylbFkztQVosIpwNRRdn//KXvwjHzKwC+f1+U2MFFsursg0aNMhUlrzxhx3iLLP9gAEDhObCyxXpjY0L7eIZjUaFv1RVrptFrpxMZeKYwmcuEjKGMcJRArtWkitXHVt6JnQkLSZGG5NOnA25viG2ZkkqoqUax2ZStPQwV3tk6y907NgRQYoAwmz85n/yySdzrytT/QSMSlMU6AixuteAvEYUKeSbPpqrwQmWOO5zIn5edNFFx7ChXAAAIABJREFUgtFCcVQmILo4e/XVV6tsnrTq/s4770gb+3Tv3p1k6LjHDfPZZ59Jy1rE+yPKZPzg24MPPhh3V2E//V/PU2rwJH9SV+4le4Q15i8Fq/j8RaXGNwqf6SecSUQWZxs0aEAHDx4UjpmZBerVq5cp8UKfPn24x1fMrLfRee/YscMUjkbFH3aJs9u3bye2bJJR9UA+xsdjqjO9/vrrjb4cGJ5f4Jv3yTVcnbct8yeeQlrYbzhHkTKs+vL/KRWPFjzVQwj8Uomz0ZKfyD36GKUcRVdU0hGfoiX8wXrPnj0RnAgkzMaDkd69e3NfLCLe79FudNqNe0wbodc+4jZ8ChnE/U3ET7w1m4IhcajpBEQWZ9lbs+xNUGypE7jiiiukjYFkEJNqWqRv377SshbxHokyGTsgKPo1NLR/A7kVGghzj2pJFOWbSajm9UfY/zWNypaOVaq/VjRTrIfJRBZn//CHPwjrumYVLD8/35RYYeXKlWYVWdh8b7jhBlNYGhF/2CXOMmOxB8CNqAPyMDYOA8+febJpyUXeQgc2kjuvkTpxS14joabBNdM3yldOVseuORlU9NJVZuJMKm9pxFm2fiabEzpZsVKl48KHtiZl7LoOknlQUoWbN5t2hXcL/bQJ7UdHoPWMO4EoEuTFK316UdvRueeeKz1bVMBZBEQWZ//4xz86C7aFtYnFYtIO0LAn/zds2GAhLb5T7dy5U1rWot4rUS5jBgbHjh3L59wmp9b8JeTKzVInnh/egGKBcpOpCpS9plHJ3FvVsW9OBvnm3SmMAUQVZ7OysigUCgnDycqCdOrUydB4oWvXrkq9NRu3FVvuRNQ4wU5x1ufzEWtforJBuYyJ7WTkOGzYsHjzFfIzVuYmt2KzM2qKjRn73vq7UvFoydt32NrWpBBntXCA8se3V8oxkhOXM8n/zSIuB9I0je666y4EJAK+MZsYRAwdOpS7M+HfMl+padCSa0cZ5H2sO2kRNTu98QtIor+J8J11ltg62NhAQCQCooqzTKDDxkfg8OHD0sZDjRs3JrZGmywbm35bhPsMyqDuwFei7Vu1akXhsLhvaGr+MqX6wmwZo6jvkCyXNEPLWfT875WyddnKyYbySzczUcXZkSNHplsl6dPt3r3bsFiBxclLly6Vnkm6Fbj33nsNY5l4/+T5bqc4y1jeeOONQnLhYYq0cse2jRo1otLS0nSbuunptHCVUjGKO68hxcrVnJms8NlLlbJ1+fJHiTTN9DakdwLxxVktRvlPnq2UQyQlKOVmUsWaGXo2TXofE2YfffRRBCMSCLPxAOvJJ59M2r61HVj+0WNoTzpv0BY+dzGRIIuB12Y7M/fHfUykz3//+99mVhl5g0BaBEQVZ+fNm5dWfZDoSAIjRoyQNi666aabjqyMwN8ikQixwQeR7jkoi9yDWTz2Y4P2Il9DY1XF5FFoaR/3iCYUPrRZ4CuY+UXzPnmWUv01/1dvmg+1njOIKM62bNmynlI7/+f777/fkFiBiXAqb2yGGBF93G5xlvkE4lF14z+e2NGstK+//rqwlyotVEWu4epMZcyEWTZ9s8qb98keSsWjletftcXcwouzhS/0V8oRkhJmczKobHEet8O89NJLhgS6Zt2UkK9+kPTGG29w2770nfvQrnQE2uL/9ydutrJmIFp7a9u2rawoUW6HExBRnD3nnHMcTt266rGpA9lAkWjXxGTLs2zZMutgcZ5p/vz50nJO1h44Tj+WFY3LZZddxunN5iVnS/vkT+yiTNzOBsKCO5abB1SWnGMx8jzSURm7u4ZlUOj7VbZaR0Thavv27bYyEeHkbEaDiy++mCteOPvss7lnIBOBBW8ZPv74Y2IPI4l0DxZBnP3ss8+EYiKSfVAWa+NYtg6ysFskpFQ8ypYR8W97T1hzWFawWJS8U85QJx7NyaDAtx9Yhjd+IqHF2eI5tyjlAMkKsyVzbonbL+3PBQsWIACR6I3ZxKBo1Sr+zmvRrOvQvnQEWt+8f6bdrmROmOhjdn//4YcfZMaJsjuYgGjibIMGDaiwsNDBxK2v2p49e6R+il6m6eD79++PeFTieNTuWMGI8zdp0oQqKiqsv9AkcUa2tI932nnqxOu5meT/6u0kyKhxCHtDxT2mjUL2z6awZ4dtxhVNnB01apRtLEQ7cTAYpGuvvTateKFfv34UjUZFq5Jt5bnlllvS4mjE/VYvDxHEWTaj4B133CEUFz1W2GetUGo17xYtWpDH47Ht2lDnibUYFT7bV514JCeDKr94uU4kKv0YC5SRd9LJStk/bPEb08KKs773/q2U4ZMVZr0zenNfA5iwh4Xv5b6xsyceN2/mnO5Li5F3CqYM12t7pR+O5m5nsmVgdfBZ1/mee+452fChvAoREE2cXbx4sUL0ravqrFmzpB2kOfPMM60DxXmmQCBATByr656A3+SOWUW338aNgk5XxgbCXlRrBqmqzzEQlnhJjfoOkyuvsTrjInmNSPP7EjFY8l0kcZbNiMJm8sB2JAE2g1gq95QXX3wRb8weibD6G1tjPRWOZh4rgjjLoFRVVVH79u2F4WImc+QtZlwtcp+++LUb1IlDcjKofNkjOldOtXexdXeVemBweAOKFOy1zOhCirMVq6eRKzdTqcavJxAl7vM82ol7ceIdO3ZQw4YNEXQ44C0FtjbGwYMH+S4WWozco1uirR31Bm0mVa59gY+tZKlFCdIHDRpEbE0cbCAgKgGRxNlhw4aJiskR5RowYIC08dKECROkscHOnTul5SzKvRPlSG+gbfLkycK2k5LZNykVn5ctGSOsLewuWCR/F7ly1BkbcY9qRlokbDl2UcTZpk2bUlFRkeX1l+WEfr+f2LIItY1psf1PPvlktdgmS52sLifzL1HiBlHEWWaDffv24SUWB4yTiuLbqZSDvbkt6uZbeL9S8ajKS93V54PRkoPkylNozeGRzUirLK4PiyG/CyfOVm17V6mGnyjA1vbdM6YtUZTv6Um3202NGzcWJhBL5WaFY/UHnZo3b07FxXwXCy0aItfIZmh3Rwm0GRTc8T9DLrQyZCJCGzvppJMw7ZQMzqJ4GUURZ/v27au4JaypfseOHaWMm9gMG2x6Zlk2NtAq2jpoItwXUQb9+NcILmyqS1G30kXDlIrLS974q6imEKZcwT1riK1/VttYgdP2e8a1Iy1qrUArgjjLZjfbtGmTMH4nS0F4x0NkqaeR5dywYYMQcZdI4izj+/777wvBxYg4B3mYF0MaybZLly5GNm1D86r49Gll4g4WRxU+K27fwFDDcmQWyd+hVDzK3haOBc1f/kYocTa073OlGn6ynSjP2OMoVsn39CQLWNu0aSPlAKORNz4n5tWhQwcqLS3luLwSxcrzyTOmNdpfokA7LIPCB7/iYitLYrvbRuvWramkpEQWXCinwgREEGdPOeUUTNNmkQ+ydahatmwpZfzUvXt3Yuu0ybKNGTNGSs523z9x/tQH39jU36JOGVrx2QtKxeOFL1/JPTOULNc43nL6N81VakCs4KlzSAv7ebElnd5ucZY9oPTqq68mXV4cCAK8BGbPnm27ECmaOMuYTpw40XYuiO1Sj+1kZMYeAg6HrX0QKdnrhn/LO0rFowXTzyfSMINfMv4R2P2RUr7hndyVtFBlMmjSPkYYcTZa8D0dHpahlIGTEWfdD7WiaNG+tA3MErL1vNjTODLerFDm5IKSs88+u9rOPI4S8ewk96gWaIOJAu3wBhQt+pEHrRRp7Wxr7I1+No0QNhCQgYDd4iwbPGT3dWzWESgvL6djjjlGyjjqwQcftA6UAWe69957peRs5z0U504uVo5z6tatG/dDjQa4um4W/q/fVmppn8IZfUiL8M0MpQvSwTsrPp6qVF+t6OWriCx6g9ZucXbatGkO9lxUTVQCU6ZMsVWIFFGcZbbKzc1FPIopjk31gc6dO3PPgmjWdcW/falSsYb3yd+RFqoyC6cj8636aq5SPlL4TF9T41EhxNnqhYXzGipl2KSE2ZFNKHxwM3dDPuecc0y9qcQHO/CZ2uCQ0bwuvvhi7jepQj9+QW6F5pBPph2yY9xsrnkLpjLgbuwcGRjtj8nml52dLdXUmxyIkdQhBOwUZ0844QSsoWWTH+3fv59atWolZTzFpq6Tabvnnnuk5JzsfQ/H2Rcvn3zyyVRYWChkc2AP47oV6g97nziLtDAGwtJxxvKPHldq3KR8xaR0MKWcxk5xdsaMGSmXFwlAwCgCkyZNsi3uElWcZWxHjRplGxfEivbFilaw79SpE7lcLqOasKH5xKp85FIpHp1yOml+n6EMVcms4rPnlYpHfe/cb5ppbRdn2avBbkynquPQmcSmeebd2Jp0VtxccA4xgocrrriC12UosGMZuXIydXxS7TfbPWPbkhaNcPMVNQM72nCjRo3owIEDoiJBuUBAl4Bd4mzXrl2prKxMt0zYaQ0Bdr1q27atdHEVW59e1CmzarPc6NGjpeNsx30U50w+/mYDYaJfQys+UWNtL++kLnhDobaLX5L7K9bMUKKvVvjMRZb5il3i7BtvvJGk1XEYCJhHYNasWbbEXSKLs2xpkyeeeMIWLojvko/vZGN10kknUUFBgXmN2YCcVXkrMn9iF4pVYWm1dF2GXSMr176oRDzqffw0ipn4drWt4qwWi1L+o52VMGSyb+jFjwvuXpVu+/g13aBBgxBIKDgVx1/+8pdffSDdf/xb5qNdJk5vnJNB+ZNOSRep8OmsDmrbtWtHRUV8a2kLDxUFdCQBO8RZNjOCTGuHOtLwv1TK5/MRWx/I6msm7/nOP/986czCBqx56430zh3cSsW2bBYhWR5QCGx19hpf3sdOc/TDjpZdaDWNqtb9x9H9tcLnf09a1Lppr+0QZ1esWGGZy+BEIFAfATbTSir3ViOOFVmcZbyY+DB//nzLuRjBFnmIFwOzh61lWZ4otOcTR8cYnkc6kxYJ1ndZxO9JEKja+LqjfaXw6QuITPYVG8VZjbxPneNoA8aF1lQ/qza8loT7133IAw88oHQAccsttyhd/7Fjx9btIEn8WrZiItqnjkBbML0PC9OTICjXIVYG77169aJYLCYXIJQWBH4hYKU4m5mZSXfddRfYC0jgzDPPlC7OWLRokYAk6y7S+vXriU1/b+U9CucSbzCLxyb//Oc/63YyAX+NuHeQKzfLcXF4ydxbBaQtd5GCu1Y60leKZ99kuWGsFGfZOvZut9vyOuKEIFAfgUOHDhGb3YrnvptKWtHF2TivrVu3UsOGDS3jkgpDHCtH3MpenpJtC7N4dHi24+LRwucvlc0Uwpc3dOBLR/pK8avWtFtbxFktFqGiWQMd18BTFWH1ji9f+hB3o3vmmWeUDhomT55czXDYsGFKc2BT0/BuvgX3oJ3qCLTFs/9MFIvy4hUqvRVBfVZWFo0cOVKoeqMwIJAqAavEWTYw8t///jfV4uF4Cwnk5eURE9CtuH4acQ7mU+zNX9k2r9dL3bt3l4azEbZCHvwDbc2aNaMPP/xQNnf/tbzRci/lT+jgjDg8rxFVrn/117rhH2MJRH2HKH98e2f4yvBsqlz7vLGAkszNKnG2d+/e1W/jJVksHAYClhOoqqqiCy64wJK4SxZxlhmhsrKSZHw4EzElf0zJw7BJkyZS9+mr49FJXRwSYzSgitVTLb+mqnJCzV9GHqfEo7lZVL5iomWms0Gc1cg37x/OaNg6oo2e4JrsvuI3B3Mbng3k8tw4ZE977733/sqQTUEyePBgpXksWbLkVx5p/aNpVDL7JrRXnbZe9t4wR71Ba3bbb9++PX399ddpuSESgYBIBKwQZ9kUtBUVFSJVG2WphcBXX30l1TTHPXv2lHZQeOjQoUrHdGbfp52Uf58+fRzxVhqb0rX4jb+SKzdT2lg8f1JXCru/q+UKit2GEYjFqOgVuR9+904+haIlPxmGJNWMzBZn2QNS06dPT7VYOB4EbCMwdepUatCggamxl0zibNwQ7GFzmR7OdFJ8J1tdevToQQcPHoy7jrSfmhYj39t3kitH4nj00c4UPrRZWhvIVPCS12+Wtt/C9DsmMEfyd1mK3HJxtmzxCKmNlKzQmupxRTP/SGwNXp7t888/NzVwEv1GeOONNx41VWokEqHrrrtOWS7sTUU2cMy1RcNU+PxlaLc6Am35cuuepOGyYRKJzWzfOTk5FI3yXd+SqAIOAQFLCJgpzjZt2pReeOEFacUzSwwg4En8fj8NGTJEmoGaSZMmCUgxuSJt376d2ECemfcs5G3vGwY8/Fnca8TMMcl5o3VHBbcvIfdDraSLxUvfz3XcTDPWWT29MwW+XSyfr+RmUumiHNvXfjNTnL3iiivI5XKlZ1SkAgEbCRw+fJj69u1rWtwlozjLzMH6g+eee65pXHhiIaS1P45lU2DPmDHDcX364J415B4tWzyaSb7/3kdaOGDjlVS9Uwd2LifP+BOk67v4FtxLWiRkucEsFWcrVk2RzjCpiqzpHO994mwiTuOzp3FUXpPrwgsvpHA4rNuA2ILr7Al6VYOUxo0bU35+vi6bZHdqoSryTjkD7VdHoK1axz99dLJ2MPM4M9oHm7Zr9+7dZhYbeYOA5QTMEmdvv/12KigosLw+OKFxBHbs2EHszVQzrqdG5snegti2bZtxFbc4J/awz5w5c4hNE2YkF+Rl/2AWjw3Y2rKlpaUWe6N1p9OClVT24SgpYvGCab0o6v3eOjg40xEEtEBZ9UBkOuMSVqfxPvU7inh2HFF+u76YIc62adOGli1b5rgBertshPPaR4D5cdu2bQ2Pu2QVZ5klWDzKZi5ka0jzxC9IK3f8mWi/P//5z45+GIcJV+XLHpEiHs2fzGZv+da+C6fiZ9aCFVT2fq4Ub1wzvSN8eKttFrNMnK3aOEfqKZnM6qh4RrciigS5HKCsrEzpxelPPPFECgbrZsgE2k6dOikbNLEBzNrE62SdLxasJM+Y1lLchM1qr7XlG/hO3jXN4vZPDCp5vrOBiK1bt2IgIg4Xn44iYLQ4269fP0dMv+koI3NUhi2pwIRPdh3kuY6amZaVbdOmTRy1FCMpm/qbTbnH3pY0kxfyFnvQjL2Rxt7sUWWLlrmJzbhUW0xq53732GMptH8DsenvsNlPgPmKd/r5QvqKK7cRhQ9sItI0+0H9UgKjxdl33nmHQiHr374QBigK4jgCbMyNiZHs4X+jYiOZxdm4gdkava+99pphTIxii3ysjV/ZC0EHDhyIu4XjP2MVBVT82g1Cxhju0S0o9OMXjreBLBWMludT4bMXi+kreY2IvRFOnDPZ8trCEnE2tPdTIY1gZ+c1fm5eA7KntVq0aKF0IJAKQyMDSdmCHeYn3JumoS3rvD3L1gILH5b3LSTmF0b483HHHUdFRUXcboYMQEBkAkaJs9dccw2xqfexOZfArl27qF27doZcX424Rjdr1syxa3/PnTtXGM5G2Ap51D+gduWVVyq9ZIIW9lPhs/2EiMs9o5pT+JB9T5s79y5iUM1iMcp/4iwhfMU1qjlFXGL2mYwQZ9nMFGvWrDHIcMgGBMQlsHr1akPiLieIszWtxB7KwHq09cdwTopz2bTfTKBXdotFqfDFK4SIMdyjmlPwx3XKmkL4ikdDVPBMXzF8JbcBhX7aKAwy08XZsOsbcuVmCwE/LoiK8Oke0YRigXIuR2A3gJNPPtmQoEjGmyNbmy8WS+3JbDYQrvI0eN27d6/3LeP6nJJNleXKa4g2nSDSuvMaUbRwb334hP093WsAE2TvvfdetQNSYa2KgplBIF1xlnXU2QwOzz//PN4qN8MwAufp8/nolltuIXa9TPdam266Vq1a0Q033EDl5Xwxp8B4jygam7WBTanfvHlzy1mnayOkS24Qjy3f0rFjR5o5c+YRNscXorL/jaP8Ce3JnZtpWXzufqglFc8aQLGgGtcWJ/iZFg1Vr+3qGdfO0hnN2BssbOA2VnpIaIzpirPsAWj2sAhbZgobCKhGgPn973//e2rZsmVacZfTxNm4/bdv304XXXSR8i/SODHGZTP2sHiUrSmL7UgC5asep/wJHSydxtYz+hgqfO4yipa6jywMvglLQItGqGzJmOq+i5X6HBPvma9Ein4Ujo2p4my0eD+5RzS1rJNopVF5zuUe0Zh7bRW/309snVUn3uySqRMTWH/66ae0GhSb+kzlN2gvu+wy7imWwge3kHt4A7TtRIH2oVYU8Yk98FBbo0mm3bFj2ODoWWedRUOGDKGdO3fWlh32g4BjCaQizrI3FVnH/LHHHlNGHHOs4Q2q2ObNm+nuu++m008/3bTpeLt160aDBw+mdevUfXKYTS/N3l4YMGAAtW/fXtl4Odl7u6jHsQcx2dTvTzzxBLGHHLDVTSBafIBKF/6bCp48m1y5WYbH6fmPdKKS1/9Mwe8/rrsg+FV4AuH8nVT6zn3knXK6KYOobHC2+NXrKbBjqfAs4gVMVpxlD9t16dKF/vKXv9DHH6MtxPnhEwRWrFhBf/rTn6hz585Jx11OFWdresPixYvp+uuvrxb0RI23UK66HxRk489s/H3SpElUUlJS07z4X4dA1HeIyt4fTgVTe5gTj07oQCWzb6TAjv8JtTyCDgrsqodApHAf+d79NxWwGV5MeLGTPZBYNOtaCny7qJ6S2PuzaeJszF9KnrFtDe8U8oiiIqR15zX8eT5rDruztz8HDhyYdMDjtBstmy5ow4YNHASJvvrqq2qRyWlskq0P60yyKbF5tuD2pabcaEVopzxlYANX7O1i2TY932FPBbLBh0GDBtG4ceOIdbiUnrJFNqOivKYQqE2cZZ029uDC3/72N5o2bVr1mp6811lTKoBMhSFQVlZGy5YtozFjxlTHdV27dk1pKjQ2QMxmULn66qtp5MiR9MEHH2DAoBbrsgf65syZQ//617/okksuoeOPP17ZOFrvfi/CPvYwS48ePaofLGBvI7AHGbClT0ALVVYPWpV9+BAV/edqyn+kY0oinHtMGyp45iIqXTiUqja+TmygDZszCWjBCgp8t5jKPhxNRS9f9YuvZCQ9juN5qBUVPn0B+f57L/m/nE3sIQEZt9rE2Q4dOlS/GTt8+PDqh34KCwtlrB7KDAKWEvB6vTR//nzKycmhyy+/vNYH5VQQZ2uCd7lc9NZbb9GDDz5Y/caxSMufiBALilAG9mDg2WefTbfeeitNnTqVNm7ciFmvajpxqv9HQxTcvZLKlj5MRbMGUP4jnVOLRx9qRQUz+lDpO0OocsNrxF4CxOZMAtV9l+1LqGzp2J/7Lo92Jtew5ONR9+hjqGDG+eRbcDdVrX+FIoU/SAPKNHG2fOnYpAN6HiFEprTu4dkU2LGM2znY1Hgi3LTsKAMbiGRPnhmxLV26NKVBUDvqa+Y52VS0vJt/y38tnRZLlvZe8ekzvGgtT8+e/P7000+rH3xgb8SyjgOEJcvNgBNKQKCyspLYOktr166tftBnz5491Wstszf1sIEAL4FwOEz5+fnVMxOwwQDmZ+z6vGrVKvrss8+qr9E7duwgt9vNvUwBb1llT88eNjpw4AB988039MUXX1SvE8geQlq+fDn+TGYQv4Z+/fXXtHfvXiouLpbdneQofzREUd9BCru+pdC+Lyi0Zw0Fdq2k4J7VFPphLYUPbaZo8Y9SPmQohwHkKaUWCR7hK8E9a6oHV6t9Zd/nP/tK4Q/EHsh3ysb6QWy9WDbrxHfffVc9TXEwGHRK9VAPELCdQCAQqJ797ttvv61uZ6y9sfhL9Y3NisgeImRcGA8WI61cuRKxqMmxKIv3a8aj8T696v5oSf2j4eqH/iLu7yj047rqF9iYgMtmZvk1Hi3aR1rAOTGGJVydeJJffCVc7Ss/912Cuz/6ue+yby2FDn5NkYK9pPnlnmHJNHGWtBiVzr8bAm182tPcLAru/YS7qdx3333KCrNMqHz11Ve5GdbMYPbs2UrzZG9D8m7+bxen9OSTLAJruuUsXZRD7PqHDQRAAARAAARAAARAAARAAARAAARAAARAAARAAARAAARAAAQSCZgnzhKb+luj0kUPQqDNyaBoEf+r90899ZTSQuKoUaMS/deQ7+PHj1ea67x587g5hg9+hXaek0FlS/nFbm5jIAMQAAEQAAEQAAEQAAEQAAEQAAEQAAEQAAEQAAEQAAEQAAFhCZgqzsZrXf7RE8quTcnmvI4FyuMo0v587733lBYQb7rpprTZJZPwzjvvVJYvmyqaTefBu2lVPnKPaqamSJubRZVrX+BFiPQgAAIgAAIgAAIgAAIgAAIgAAIgAAIgAAIgAAIgAAIgAAIOJ2CJOMsYBnauIHdeY6WEm4JpvUgLVnC70CeffEJZWVnKiod/+MMfuBkmk8GgQYOUZdygQQP68ssvk8FU5zFasJy8U85Sqp27RjSh0E+b6uSCH0EABEAABEAABEAABEAABEAABEAABEAABEAABEAABEAABECAEbBMnGUni5V7yfvE2QoIN5lUtjjPkHUnt2zZQo0bN1ZWNLzkkksoEolY0lpjsRhdffXVyrJu3rw57dixg591LEK+Bfcq0M4zqPDpC0kLVfIzQw4gAAIgAAIgAAIgAAIgAAIgAAIgAAIgAAIgAAIgAAIgAAJKELBUnK0mGotS2YcPOVa48TzUikI/rDXEeQ4dOkQtW7ZUVizs2bMnVVZaK3wFAgG66KKLlGV+7LHHktvtNsR/Q99/TJ7RxzizrQ/LoPIVk4i0qCGskAkIgAAIgAAIgAAIgAAIgAAIgAAIgAAIgAAIgAAIgAAIgIAaBKwXZ3/hGvFsp/xHOjpKuCl5+y7SQlWGeE4oFKI2bdooKxJ27NiRfD6fISxTzaSiooK6deumLPt27dqR3+9PFZvu8VqgjErm3uqodp7/aGeKFOzVrS92ggAIgAAIgAAIgAAIgAAIgAAIgAAIgAAIgAAIgAAIgAAIgEBdBGwTZ1kcBeROAAAgAElEQVShtFiUKr+YSa7cTKnFm/yH21GszJi3DePGatq0qbLiIJtet6ysLI7Clk8mTrK3SDMyMpT8a926taHcY6WHyT1K8rdoczPJv2WBIdOVGwoXmYEACIAACIAACIAACIAACIAACIAACIAACIAACIAACIAACEhDwFZxtiYl39t3kjuvoVQirXtMawrsWFazGtz/R6NR6tSpk5KCIBNCGzZsSF6vl5ujERkwgbhZs2bK2qJLly7E1uE1cgtsX0ru0S2laueuvEZUMvc2IzEgLxAAARAAARAAARAAARAAARAAARAAARAAARAAARAAARAAAUUJCCPOMv5asIJK3ryN3CObCS3e5E/qQv6v5xnuMkyY7d+/v7JiYGZmJu3cudNwrjwZHjx4kLKzs5W1yTXXXEOapvEg1E1b9eVrxKYHduVkCPvnHtWCfPPvNmyqcl0Q2AkCIAACIAACIAACIAACIAACIAACIAACIAACIAACIAACIKAUAaHE2Th5LVhJ5SsmiSXe5GZR0cw/UnDPmngxDf1kAtjtt9+urAjI3ppduXKloUyNymzLli3EhGNVpzi+++67jUJ5VD7Bncup6MX+5MoRZ2rz/MndqOLjp0iLBI8qL3aAAAiAAAiAAAiAAAiAAAiAAAiAAAiAAAiAAAiAAAiAAAiAAA8BIcXZmhUK7fucShfcS+4RTWx5w8475QyqXPsixcrNnWp31KhRyop/TPR8/fXXa5pduP+XLVumtH0effRRU20SLXVRxSdPk2dSV1vauWdUCyp9798U2r/B1HoicxAAARAAARAAARAAARAAARAAARAAARAAARAAARAAARAAAbUJCC/Oxs3D3mILu76l8hWTyfNIRxMFnCwqnnUdBbYvoViZO356Uz9feuklpYW/xx9/3FS+RmXOBGRV355l9Z49e7ZRKOvMJ+o7RP6t71W/qX54mHnTHnsndaWKNdMo4tlBFA3XWSb8CAIgAAIgAAIgAAIgAAIgAAIgAAIgAAIgAAIgAAIgAAIgAAJGEJBGnE2srBb2U6yykILbl1LJ3NvIPfa4NATbTCp4ug+VL3uUIt7vKeYvJYpFE09l6nc2la/Kgt8999xjypqmZhlt8uTJytqLTe38+eefm4VWN18tFqGY30cR93YqWzqWCqadm0Y7zyD3hA5U8vadFNy1kmIVhaSFA7rnw04QAAEQAAEQAAEQAAEQAAEQAAEQAAEQAAEQAAEQAAEQAAEQMJOAtOKsmVCsynvHjh3KCn1MkL7yyiutQm3oee68806l7Xb48GFDeSIzEAABEAABEAABEAABEAABEAABEAABEAABEAABEAABEAABEFCFAMRZmyy9e/duys7OVlbk69mzp03kjTntgAEDlLUde4P2p59+MgYkcgEBEAABEAABEAABEAABEAABEAABEAABEAABEAABEAABEAABhQhAnLXB2Pv27aNjjjlGWXHvlFNOsYG68afs06ePsjZs2bIl4Q1a430KOYIACIAACIAACIAACIAACIAACIAACIAACIAACIAACIAACDibAMRZi+3r8XjohBNOUFbUY3UPBJyz3uc555yjrC07depERUVFFrcgnA4EQAAEQAAEQAAEQAAEQAAEQAAEQAAEQAAEQAAEQAAEQAAE5CUAcdZC21VUVBB7a5Stt6riX4sWLSg/P99C4uafqqqqik466SQl7cl8+IwzziC/328+aJwBBEAABEAABEAABEAABEAABEAABEAABEAABEAABEAABEAABBxAAOKsRUaMRqPUvXt3ZUW8Bg0a0A8//GARbWtP4/P5qE2bNsra9txzz6VYLGYtdJwNBEAABEAABEAABEAABEAABEAABEAABEAABEAABEAABEAABCQkAHHWIqP97ne/U1a8y8rKos2bN1tE2p7TFBQUUJMmTZS1cf/+/e0Bj7OCAAiAAAiAAAiAAAiAAAiAAAiAAAiAAAiAAAiAAAiAAAiAgEQEIM5aYKxBgwYpK9oxYfaDDz6wgLL9p9i5cyc1atRIWVsPGTLEfiOgBCAAAiAAAiAAAiAAAiAAAiAAAiAAAiAAAiAAAiAAAiAAAiAgMAGIsyYbJycnR1mxjq1JOnPmTJMJi5X9p59+SpmZmcrafNKkSWIZBKUBARAAARAAARAAARAAARAAARAAARAAARAAARAAARAAARAAAYEIQJw10RhTp05VVqRjwuyUKVNMpCtu1kuWLFHW7kyYfumll8Q1DkoGAiAAAiAAAiAAAiAAAiAAAiAAAiAAAiAAAiAAAiAAAiAAAjYSgDhrEvw333yT2JS+TKRU8S83N9cksnJkO3fuXCXtznw9OzubFi5cKIehUEoQAAEQAAEQAAEQAAEQAAEQAAEQAAEQAAEQAAEQAAEQAAEQsJAAxFkTYK9du7ZaoFJRlGV1/utf/0qxWMwEsvJkqWkaTZs2TVmBtmHDhrRhwwZ5DIaSggAIgAAIgAAIgAAIgAAIgAAIgAAIgAAIgAAIgAAIgAAIgIAFBCDOGgzZ5XIpK8gxYfbiiy82mKjc2Q0dOlRpf2DtARsIgAAIgAAIgAAIgAAIgAAIgAAIgAAIgAAIgAAIgAAIgAAIgMDPBCDOGugJPp9PaSHu9NNPV/6NWT13uv7665X1Cza1N2sX2EAABEAABEAABEAABEAABEAABEAABEAABEAABEAABEAABEAABIggzhrkBSUlJcSmclV1KuP27dtTIBAwiKbzsmFvFKvqG02bNqXKykrnGRU1AgEQAAEQAAEQAAEQAAEQAAEQAAEQAAEQAAEQAAEQAAEQAIEUCUCcTRGY3uFMeOrcubOy4hsTpZk4ja12AmwN3u7duyvrI126dKFQKFQ7IPwCAiAAAiAAAiAAAiAAAiAAAiAAAiAAAiAAAiAAAiAAAiAAAgoQgDjLaeRIJELnnnuusqJbZmYmud1uTopqJA+Hw3Tssccq6ysXXnghaZqmhrFRSxAAARAAARAAARAAARAAARAAARAAARAAARAAARAAARAAARDQIQBxVgdKKrsuv/xyZcU2Nk3vd999lwou5Y8tLS2lJk2aKOszN9xwg/I+AAAgAAIgAAIgAAIgAAIgAAIgAAIgAAIgAAIgAAIgAAIgAALqEoA4y2H7v/3tb8qKbEyYXbNmDQc9dZN6PB7KyspS1neGDh2qrvFRcxAAARAAARAAARAAARAAARAAARAAARAAARAAARAAARAAAaUJQJxN0/yPPvqosuIaExZnz56dJjkkYwS2bdtGjRo1UtaHZsyYAUcAARAAARAAARAAARAAARAAARAAARAAARAAARAAARAAARAAAeUIQJxNw+QzZ85UVlRja8xOnDgxDWpIkkhgxYoVSgu08+fPT0SC7yAAAiAAAiAAAiAAAiAAAiAAAiAAAiAAAiAAAiAAAiAAAiDgaAIQZ1M0LxOU2JS+qv6NHz8+RWI4vC4C77//vtJTHK9ataouPPgNBEAABEAABEAABEAABEAABEAABEAABEAABEAABEAABEAABBxFAOJsiuY8fPiwsm87Tp8+PUVaODwZAh988IGSYn/Lli2puLg4GUQ4BgRAAARAAARAAARAAARAAARAAARAAARAAARAAARAAARAAAQcQQDibBpmLC0tpdatWyslqC1YsCANUkiSLIH169cr5U8nnXQSVVRUJIsHx4EACIAACIAACIAACIAACIAACIAACIAACIAACIAACIAACICAIwhAnE3TjKFQiHr06KGEoLZx48Y0KSFZKgR+/PFHJaY47tu3L0UikVTQ4FgQAAEQAAEQAAEQAAEQAAEQAAEQAAEQAAEQAAEQAAEQAAEQcAQBiLOcZrzvvvsoMzPTkSLtCSecQPn5+ZyEkDwVAmVlZXTyySc70p+ysrJoxIgRqeDAsSAAAiAAAiAAAiAAAiAAAiAAAiAAAiAAAiAAAiAAAiAAAiDgKAIQZw0w57vvvkstWrRwjKDGxOYbbrjBADLIIl0CN998s6NEf7a+7KpVq9LFgXQgAAIgAAIgAAIgAAIgAAIgAAIgAAIgAAIgAAIgAAIgAAIg4AgCEGcNMiN74/GKK66QXqA95phj6MMPPzSICrLhIbBo0SJq2rSp9D41cOBACgaDPCiQFgRAAARAAARAAARAAARAAARAAARAAARAAARAAARAAARAAAQcQQDirMFmfP/996lVq1ZSCmpsiubKykqDiSA7HgJ+v5/+/ve/S+lP7dq1oyVLlvBUH2lBAARAAARAAARAAARAAARAAARAAARAAARAAARAAARAAARAwFEEIM6aYM6qqiqaPHmyNNPS9urVi3bt2mUCCWRpFIGtW7fSaaedJoVIm52dTU8//TQFAgGjqo98QAAEQAAEQAAEQAAEQAAEQAAEQAAEQAAEQAAEQAAEQAAEQMARBCDOmmhG9hbq/fffL6yg1qZNG/r+++9J0zQTKSBrowjEYjH68ssvqVmzZsL61OjRo4m97YsNBEAABEAABEAABEAABEAABEAABEAABEAABEBALAJsSbvEv1NOOUWsQqI0IAACIKAAAYizFhl5woQJQohq7K3GM888k7xer0U1x2nMIMDedGbTBmdmZtou1DKxePr06WZUE3mCAAiAAAiAAAiAAAiAAAiAAAiAAAiAAAiAAAgYRCAjI+OosUQ2xogNBOIEdu/eTaeeeuqvftKjRw8qKCiI/4xPEAABgwhAnDUIZLLZrFu3jn7/+99TixYtfr3A6d0UjdzHBLyTTz6ZxowZg7cakzWUJMcVFxfTP//5T2rfvr1l/sR8k62rfOWVV9KWLVskIYViggAIgAAIgAAIgAAIgAAIgAAIgAAIgAAIgIDaBPTGnCHOqu0TNWtf1yygI0aMqHko/gcBEOAkAHGWEyBP8uXLl9PgwYOpe/fuhr8B2bx5c7r00ktp0qRJ5HK5eIqJtJIQ2LFjB+Xk5FDv3r2pYcOGhoq1TOA//fTT6a677qLVq1dLQgTFBAEQAAEQAAEQAAEQAAEQAAEQAAEQAAEQAAEQiBOAOBsngc9EAlOnTq13PPn5559PTIbvIAACaRKAOJsmOKOT+Xw+WrVqFc2YMYNuvfVWOv/886vn/9e7Ydbcx0Szjh070lVXXUXDhg2juXPn0rZt2ygajRpdROQnEYFgMFi9Pu0rr7xCQ4YMocsuu4yOP/74em+wzLfYW7F9+vSh22+/nZ599tlqMbasrEyi2qOoIAACIAACIAACIAACIAACIAACIAACIAACIAACiQRqjivH/8ebs4mU1PzOlq6L+0Rtn23btqVIJKImINQaBAwmAHHWYKBGZxcIBKiwsJAOHjxI+/bto71799KBAweq34YtLS2lWCxm9CmRn4MJsJsnexCAvU29f//+an9ifsX8q6ioiEKhkINrj6qBAAiAAAiAAAiAAAiAAAiAAAiAAAiAAAiAgLoE9EQ3iLPq+kO85ps3b65XmI37zkcffRRPhk8QAAEOAhBnOeAhKQiAAAiAAAiAAAiAAAiAAAiAAAiAAAiAAAiAAAiAAAjIQCAusNX8hDgrg+XMLeOCBQuSFmdfe+01cwuD3EFAEQIQZxUxNKoJAiAAAiAAAiAAAiAAAiAAAiAAAiAAAiAAAiAAAiCgLoGaomz8f4iz1vtD8+bNjxBDrS/BkWfcunXrEeWJ+4beJ1uaERsIgAA/AYiz/AyRAwiAAAiAAAiAAAiAAAiAAAiAAAiAAAiAAAiAAAiAAAgITUBPbIM4a63Jdu7ceZQQam0J9M92zDHHHFWuRH+Br+izw14QSIcAxNl0qCENCIAACIAACIAACIAACIAACIAACIAACIAACIAACIAACEhEIFFsY98huFlrQLZma6IdrC2B/tkWLVp0VLlqljM7O5sWL16snxh7QQAEUiYAcTZlZEgAAiAAAiAAAiAAAiAAAiAAAiAAAiAAAiAAAiAAAiAAAnIRqCm2xf+HOGutDWfPnn2UCGptCWo/G1tPNjMz86jyZWVl0bvvvlt7QvwCAiCQMgGIsykjQwIQAAEQAAEQAAEQAAEQAAEQAAEQAAEQAAEQAAEQAAEQkItAXJCt+Qlx1lobTpo06Sjx09oS1H02j8dDM2bMoKuvvpoGDBhAM2fOpJKSkroT4VcQAIGUCUCcTRkZEoAACIAACIAACIAACIAACIAACIAACIAACIAACIAACICAXARqirLx/yHOWmvDu+++W2hx1loaOBsIqEsA4qy6tkfNQQAEQAAEQAAEQAAEQAAEQAAEQAAEQAAEQAAEQAAEFCEQF2RrfkKctdb411xzDcRZa5H///beA1py4sr//69tbJPzIachs2QYYGHJDDkz5BwNQ44GhhyGHEwcchwYDAww5JzB5DAM2ZhokoE1wazt3Z/+59Pe4umpb3WrpZJa6ve957wjtZ5UdetbpVLV/d66pdyEQCUREDlbyWqRUkJACAgBISAEhIAQEAJCQAgIASEgBISAEBACQkAICAEhIATCIRAnZd25yNlw+KZJaZlllhE5mwYo3SMEehwBkbM9XsEqnhAQAkJACAgBISAEhIAQEAJCQAgIASEgBISAEBACQkAICAFHyMaPImfLbReLLLKIyNlyIVduQqCSCIicrWS1SCkhIASEgBAQAkJACAgBISAEhIAQEAJCQAgIASEgBISAEBAC4RCIk7LuXORsOHzTpDTPPPOInE0DlO4RAj2OgMjZHq9gFU8ICAEhIASEgBAQAkJACAgBISAEhIAQEAJCQAgIASEgBISAI2TjR5Gz5baLWWaZReRsuZArNyFQSQREzlayWqSUEBACQkAICAEhIASEgBAQAkJACAgBISAEhIAQEAJCQAgIgXAIxElZdy5yNhy+aVKaZpppRM6mAUr3CIEeR0DkbI9XsIonBISAEBACQkAICAEhIASEgBAQAkJACAgBISAEhIAQEAJCwBGy8aPI2XLbxcQTTyxytlzIlZsQqCQCImcrWS1SSggIASEgBISAEBACQkAICAEhIASEgBAQAkJACAgBISAEhEA4BOKkrDsXORsO3zQp/exnPxM5mwYo3SMEehwBkbM9XsEqnhAQAkJACAgBISAEhIAQEAJCQAgIASEgBISAEBACQkAICAFHyMaPImfLaxdff/11EzFLXUiEgBAYeAjozR94da4SCwEhIASEgBAQAkJACAgBISAEhIAQEAJCQAgIASEgBITAAEMgTsq6c5Gz5TWCN998U+RseXArJyFQaQREzla6eqScEBACQkAICAEhIASEgBAQAkJACAgBISAEhIAQEAJCQAgIgfwIOEI2fhQ5mx/XtCk89thjImfTgqX7hECPIyBytscrWMUTAkJACAgBISAEhIAQEAJCQAgIASEgBISAEBACQkAICAEhECdl3bnI2fLaxU033SRytjy4lZMQqDQCImcrXT1STggIASEgBISAEBACQkAICAEhIASEgBAQAkJACAgBISAEhEB+BBwhGz+KnM2Pa9oUzj//fJGzacHSfUKgxxEQOdvjFaziCQEhIASqgMD/+3//L/rHP/4R/fd///dPf//85z+roFrXdfjf//3f6Mcff4x++OGHxh/nYAVmA0FoB65dUO7/+Z//GQjFNstIW/j73//ewIPjQMbCBCjARTB1fREY0/568V2jTPF3i3esV8saoFkMuCRo+3/7299++uZUpa+hD3Tvp2uzXOsVAedkH9+L/U+364u+zuHcy+OKgVJOX3ui/G78TH9GnUu6i0Cv9+Ht0KU/r+r3tZ3uIf9vjbV76Vsex4p+yM1j3bilLt/1OCnrzkXOxmu32POjjz5a5GyBECe/R/TNVZnvFFjs1En3+hiybnMukbOpm65uFAJCQAgIgTQI/PWvf41efPHF6NJLL4222GKLaK655jIHnkwCfv7zn0cLLbRQtOuuu0a///3vo/HjxzcmOGnyKeseSNNvv/228ffdd9/lzvaDDz6I7rnnnminnXaKZp99di82v/rVr6L//M//jIYPHx794Q9/iL766qvceXczAQbEb7zxRnTLLbdEe+yxR7TIIotEE0wwgVn+SSedNFpllVWiI488Mnr66aejzz//vJuqN/IO3Q6+//77xnty7rnnRuuvv340zTTTmFhMNNFEjXZw+OGHR08++WQlsOh6ZaRUAKMtfdHIkSOjddddN5phhhlMjOmL5pxzzmiTTTaJLrzwwuiFF16Ivvnmm5S5dP82+qWXX345uvLKK6NtttkmmnfeeaN/+7d/M8tKn7vAAgs0+p/rr78+GjduXIOk634p/qUBE0XX38aPECxVknh/ENczpEGOtOJpg00WIZ333nsvuuyyy6IhQ4Z4+13azX777df43pRBcnz22WfRU089FZ122mnRGmusEU0//fRmm+X9pH9ca621omOOOabRD3766adZoCjtGQxC77//fvTQQw9FRxxxRKMPn2yyyczy/eIXv4iWWGKJaK+99oruvffexnOlKdoDGTGmArd99tknWmyxxSLwdEbm+JFxxXLLLddo4/fff3/0xz/+sTZGOvq/N998M7r11lujPffcs1FO3/hpwgknjFZaaaVGu3viiSeiKrwrjHdcX0bfmVVI49FHH21gMNNMM5n1zHvG957vm1V2sHS6uGPVvi+d4OPK4I6Me8qSL7/8MnrmmWei3/3ud41xrK9OeA8HDRoUbbXVVtFVV13VmOuVqacPD4cZx6zfV9J+9913o0suuSRaddVVo1/+8pdN7ZLx2HzzzRcdcMABje9rnrx8ZenmdQhJxqCMMTbYYINo5plnbsLA9cXMezfccMPonHPOiZ5//vlazW3px1599dXo2muvjXbYYYdGnf7sZz8zy8p16nzbbbeNrrnmmuiVV16JeL5q4uolfgxNztI+4u+aOw85Xg6Bq9MreQyRti8N7CFx7N25735d9yPw5z//uTE/OOWUU6I111wzmm666UxswZjx4LLLLhsdeuih0X333deYI1XJeSQ5/+MdyivY0rAjYVvDvoh9ybW3+BHcGEOdd955jX69Ct/qNGX/+uuvG9/Xk046qTEGnmKKKczyMUdYcMEFG/aS0aNHV8oOInI2TU3rHiEgBISAEGiJAEQGk7L/+I//MD+E8Y9+u3PIAyZut912W1SFgVKyTBiIOxXwOfvss6M55pgjFz4MJG+44YbarA7AY+3uu++ONt98c9Ng0a4txP+P0fXiiy+OIP+7IQxk4/qsvvrqHasBHnfeeWdj0Es7j6fXyfmKK64YsU+NvD/tKnj44YejjTfe2EtQpsV6hRVWiK644orGSj47p+5dZaJ29dVXNyYgPiI2bTl5nn6NNtXtSRhOOpbeOPtUSSATLT0xVocSDA3xPOgzMIKnFfoHjIIYCOPppDnHOFeEU8wnn3zSIGPnmWeejnVK6j3bbLNFJ554YvThhx+mhaTw+3AGOeigg6Jpp502V/kgoyGi33nnncJ1rmMGtE1I/VlnnTU3zvvvv3/DcF5FHDAa4nDz61//Olc5cYLE8ahbTn7//u//3k9/fndCiL7++uvR9ttv3y+NZH/g+33UUUf1q9qPPvqoaWzANxCDZdXIgn6KJ368/fbb0VRTTdWECWPuIgXCG6dC2pQP8zTXITGpUxxYuiHUdVxPvq/MY9MKBCtEcysH5Hj68XO+DyGM7Wl1Leo+DP04YeeZz4AL82zmd6x+r5rQT1133XUNxzYfERuv21bnPL/aaqs10qtKWS19Q5OzEGBWPlUau9HuIOwsPYt0pthyyy3NPKv2HlRVHxxjjjvuuJaLHaw6ta7xPd17770bBF+3y/tf//VfTe0C0rlTwRkOxyEWRFhlTnONfotv9XPPPddp9oXfz7uJ7WL55ZdvGtelKZu7hzJiNxo7dmwuR628BRY5mxdBPS8EhIAQGMAI/OlPf2pMzCxPYffBy3Occsopo0MOOaThcdktmJPkLOVhpUYaYdDAquDQ+ODVhnGkCuS1DwcGka1WQmVtFxgpd9ttt9JJpCQ5i/6sRksr1Ncss8ySeXBs4YVhmtUhkn8hALGXxVBmYRu/xir23/zmN1GIlfN56+rjjz9uTJJ8q8Piemc5n3zyyRsr0LpVVpGzfS0kSc5Sn6w6SSMYvFtFZkjTNkKSs6xG9xHaaXRpdQ+TaqIPsLKwW3LHHXdECy+8cND+nTJTNlYAsFpHEkVffPFFtN1223lXf7dqJ+3+x+rlu+66q+swM25k/NQq0kO7svj+z7ds5513LsTxohVwSXIW/dKMn1jBhPGa98BXpnbXWWmcFN+KGgjPusiMM87YhAlzjaJIHyLfsCqyiLEHURtwNitTkuQs7YiVv2kEpwmcg9q1vVb/77YjXJpy+u7BgD3//PPnKr+FDdEAdtxxx645kcTLy7dml112iegzLV3zXptkkkka8wpImG6KVQ6Rs/9fvzovgpyl/8GZc+WVV+6Xl6sP/lflv7/85S/dbLaN1a5EQnF4hT7yTYLU7JZY5Czf97TC9wVbWWj7I5gT5bAKwjjZclDL2xYYe59wwgldsbGKnK1Cy5IOQkAICIGaIQApyMrBvN6yaT+gE088cXTggQd25UNpkbOPP/542xo766yzvCFD0pa73X2EYu32ADkJBCSkz/DVrjyd/J8J8/HHH5/MvrDfFjnLCs128thjj7UM8dVJmX33LrnkkrVa8dEOs07/zwQ2j1eoD9fkdUIAsT9QNwSD62abbVYIKZEsJ78xkkGClC0iZ/sQt8hZvoXthJV2Vp12co2VZCFW5mPgJMRqHnKlE73Jq5MVee2wbPd/PMkJE96JjlnupT7WW2+9dur09P8xlhCyNwt+aZ8B58UXXzy1A15owAlN79viIG0Z0tyHkxsrSstaKWqRs7fffntL+FiFHsLwNmrUqKZ8WPFn4QThVAdBf9pqsgzJVcIhygIxwWq/MvpwDOJvvfVWCLXbpmGRs+DZ7rvH9hdJ3LP8bpdP2wJ04QbCRvC6kOoAACAASURBVA4ePDhI+VthRj9PBIqy+qc4lIwfGPuGJjV85cWOwti+G2Wl3JZeImfzk7P77rtvtNFGGzVW9DFH5xtI9DSc1nGCLct+ZtVviGudEIXx9yvvOd+HMsbcDiPqi5WZZYtFzuIYlUZGjBhRqP0RPVhh3K0+i+06WoXOd3WX90iEC2wSZYrI2TLRVl5CQAgIgR5A4PLLL++YIGCFH0ZTwtvuvvvujb0dCc3q24PN90HF05SwiGWKRc6OGTPGqwIhRNJ6FDPoIxQHezuQT5awxxhMCK3VbSF0M2Sxr+7i19GZ+idsIytVMMIR3ui1116L2AsOAozJTPwZ3znhMcvwQLfIWUJM+4RBK6FiLQNasizgwf4X7LPL6jJW8LBqPHlfq98YMzCcDDRhBUPalRzUIW3u5ptvbuxb9+CDD0a8y4RGpa7SGh+ZFJS5spT9FDsNa4mDBO2JPnfYsGHR0KFDG31Np+FW6XMxBJclImf7kLbIWUjzVkLf0aqfSPu/tCt0W+lCCGbfvpg+PTAKspKAUImseGO/NoiBTggr8uwkPGWrMvj+h4MaRvq0fQbGJIx1GHnYQ579TjEyYWRg77211147VT9GPz8QQx2nNcRA5u20006NcPR8G9jT+J577mmEzGRP37Sr3fimsN9WWcIez52M/xg3EoaXELbx8RPfNEL8Lb300qn6gamnnroUA5tFzrZaKck3L+275etL3HX2frbE/T95tO6t2jXGz0m9+U3I5pBCWPy0fThtiT1lCU+LAysrbcEeBxbCwrJHJ6SEpXf8GqTFGWecEbIYZlqM0eP5uvNW4YbTznFcWr4j46q6CfWYti3Q/9A/8b175JFHGqGrb7nllgjSgCgXacfsfPfL3MqG73GnDkDoiH0DgpUxC2Nu3s9OIx/g/Em/V7ZYbVTkbH5yNtT3y6qfKlzrBjnLPDaNTSWOD+H3md/jcEEkO5wcl1pqqdR9mUuL7WFafRtCv7cWOcu3sZXgDJt2rEw/Rz/NQhtsBYsuumjqfjmOSSt9ivjfwQcfnGpsCFbYVk8//fQIR8Cnn366sdqascjw4cMbNte0bYkt5coiokXOFtFqlKYQEAJCoAcRwHuaPRjdR9l3ZAN29hfplChi3wgMsr4N6uP5Qd6V9aG0yNmLLrrIrGGMZNbHnmvsZXLAAQekJnUw/kL+YUxMM8gH827JAw880LJdMEiCoMdY2qlQzxi1W02YSb/okJYWOcsqYUswSLHCLd5m3TnGDcj7TvYFI3w4k/12ntysJq7aSmoLn1DX2HPQ4WodeecIe9NpX/Hss882yPJ2hqg0YRnzlJU+YJ111mlZRte38I50up8g4dkhMnxtNY4p+zKiT9EicrYPYYucpU6sFTdca7d6nP4DhyhCNzIpHzJkSGOVIE5CvCtxgykG1KzCWCHNfoR869nHqFOHK0IkQ/a0CzeIwQFdQguOGa36Yt5JnGswClh11U4fVk+2c1w7//zz2yXTE//H8cq3DxzvAt9+jEqd9sUY2YjGAklijdlc38eYt+h+75VXXmnZxzP+YxzYbqWpVeHoztYgrfp4MCw6nK9Fzvr2z8Zhz+FvHcGD8vCO0efxnkNWDxo0KGL+gSNTvE4tXLiGU5aVPqEAqyyM8eLlc2XAwSOU0G+Cq0vbOoIzRFSncz10xBETh0TanpU211ih2enYrZPyk7aVt+V4Bx6s6rXud9f4HtFvs30J80aciliFj6Nc8vvKuK5Ocu2117YsO/0o8/JOv3eE619sscVafk/B96WXXioULtoCzgOuLq0j7xzlZIuTTrd8+Oyzz6I99tij8byVdvwaBFLR35w4mPG83bnIWZGzri34jmWSs7w/7Rw0mb/Q11566aUdvz/YpiBsW43rHQ5F25rcu2mRs/RBPmFrFadj8oj9jG8Odta0gqMIDoPt7I84ZZXRX5GHb39mygs2tJFbb701bRF/ug9bK+VoNR5hvNlpv/9TBh2ciJztACzdKgSEgBAYqAgw+W7lMcxHkckoXlshhP3yWBGZHGDEf7P3URnhCy1ylvB6SWHvz7h+7pyVTBgi8ggTXsLjtCOLIKLKFlb9uLImjwyW8XRkVW0IYYWwb4BOG4QcL0oschbP8KSwSieJA79ZsYgxMK+xCYK/VTtgUm0Zl5J61v33yJEjTZzBGrLpzjvvDFJEnB5aGbaLIsNZgd9uJRV9S6gQgKyKsAzo8baMh23Rfa7I2b5m6yNnk+83k1a+D/G6cucYhTfddNPUk3JWdV544YWZ+xDGCq3eF/TCKM8KlRCCF3SrvXUZt2DkCCUYiR221hGi8OWXXw6SHeOGVuHbTj311CD5VDUR2jmOBBbOGIwYA+b9nlJ2CIJW+wXzv6LkggsuMMtHmRnTsN9wqPZL38q30cKTsVqa7Tqy4mB9W4hikZTnn3/eNAaCBf1G2igxfJdZmduqTLQvCwtIxyoLK0csvdNss5GmXIzXWSVk5cE1DOChIhOwXQPvMfVr5Ue7KWrM4SNnk2Qz31feQ0s/VgLjVIyjWzshP1by884XtS9wOx2y/P/GG280yw4ezMfoV0II82rfymraR1EOJDjqtPrOUk6+66H2fee7Tnq+Nk9+EEVEUyhDrHYtcjY/OTvXXHN53xsL87pdK4uc9Y0JHF58r4nIF+p9wem73XYKob5/rd5vi5ylzMnvId8VnLMdHvEjDkVZFkXE9eJ72G5hDs5xRQplpI7jZYufs+Ahr50V/b///vsGAewj6SG5uadIETlbJLpKWwgIASHQAwjwYfYZyPg48vEPZYxMwgXh2WqQhCdYcqCSTCPvb4ucZSAUlzPPPLNp0IBROHQ4ULwH8TKOD0qS561C7cZ1DnGOp3Qyf/cbg2YRk2kMJa0GaYRHLkIschYP6rhYhla86S0jZPy5Ts8//vjjlsQdhiQGs70qzzzzjNfDceuttw7eJ+AcgTd70pjCqogihDBurZxhCFuEka8IGTt2rNcBgncbo1GRInK2D10fOcsey3Eh/Krrd90R8ooVc52uZImn2+l5O+92DLk4rxQhfPcsxx0m2eAYQggZG19d7LDmyIq92267LUQ2TWmwEsAXUYT/9aLw/SK8dRxjd47hmG9AaGGlAKsvXT7umCRrQuV70kknNeXl8oQsKCJ8NeNloiBYqyFw+irKwc0iZ5PjaAhVVic4DNyRb87rr78eCvZ+6RDi0OUTP7JSsIoCkWQRWIwXQgjErM/ZhVUlv/3tbwuJRoCT2dxzz23WBYbhIsazpBmvc3eeXB2D06v7nzvyXTniiCOCjzVD1GHINMaPH+9dTYZDWChCxOnMeGWfffZpGt/jrF2EQJK3ImYZU7DVThFCuq1CH2NbKaLdJ8vi2nT8KHI2PzkLzoyJiaTV6s+3EIGIWa2eK+t/2HHibcOdl0HO4izq8rOORPgpykGaPa+Tc/64Dtj9ihQfOUu9OyGiAxGQ4npxzjeclbQhhfmNb/5DnizUKEpwykuWkd/Uz/HHHx88W7aHIBJJMk/C8hctImeLRljpCwEhIARqjAATpVZ7dO23337BJ2dJuAjV2Sq8FmEuipzAWOQs+yo54WOd/ICzurEo0pg6YV+bZJ7uNwaUNF7cTv+sx1YhZa0VpVnz8T0HieTKHD9ChhaxL4hFzrLnoBMGiHE9OCesWajV5C4fd4TAaxXGFHx6UQhzSYjsJNb8LmKQHscQw7ULbcd7VsQ7TtvFq94qH9d22WWXwvtcPEOZ9Pp0wFhalIic7UPWR87GHVCsCTxG7tB7D/ZpZZ99++23LR1G2O+piPclrg2GCsIkx9vt6NGj47dkPieUsi+0PsaRovfFIxwZYbfiZXPn7KXUawLp7MoXP9L3hyLbLcwgGyCgHHmJga4IYeVFvFzxc0jL0KRHsgyEDmbFSTxfznEy+PTTT5O35/5tkbP0CXEhMkNcHwyBvtDH8efynPtCStOHVlF8qxgJoZ5X6J99RAGkeVEOYU5vxnaMqeNtwJ0XEWraR87i/OiEvcGTBnocOOIGcndvrx1bhXJm9XaR825I4Xg0gyK+r8yll1tuObO90e6Y5xcxl4y3E9LHodS18+QRZ+yiJZknv0XOhiFn09Sd9W2kDqoitFGrjRRNzuKcZuXLNfrkUaNGFQ4RkXJmnHFGUw90YE/2osSa21F2t+iD/iu59zw6HXbYYYWNH1mdSr1b9ULEpCLsXb4IJ+hQ9B7dY8aM+ckxlrFR0XNY2lJ13vyiWrbSFQJCQAgIgcwItFqlyb5oZQmDECZK1oCAa2effXZhqljkLN72CAY2Z8RDD1YeFLUyKFnAY4891osHex4VOXF+9NFHvR50ZQyYHRbsDWq1CcK9hhaLnGWFKgJRHTfgcE7YXVb5Fims6PGFKcSYVrSBt8iy+dJmn1+rztk7tQzBYMWErShvXcKAW+Xj2sknn1zoe53ED5LCpwsOIkWIyNk+VH3kbDyUdXLlxUorrRRh5C5T+Na0CntFuy26L4yX95FHHomWXHLJRvjI+PWs56wmIyy99S5su+22pUzY0R1jDXveJfWAZCvye58Vt6zPYYyxQmNzrUhiNq4v+yBD3BWBK+ExfSsQWAVfllA+Sw+cg0K/r5YB2o2jKS/76cbbNc5PrJopWiinRUgyhgOfqolzDotjxXvBuCSv4EwYT9eds1I3Ga0hb16+55nrbbPNNk16UB84FIQU3m1XxviRFWsI/09GMGEeEPrdCFmmkGkxx4/j4s4ZoxbRLyZ1B2eichXhLEJeODq6MiWPrIous55bRVHgfShSkmXnt8hZkbOuzXWDnCVPtmSx2ibfgjfeeMOpV/iRBSLWdxfdsPmFCneeLIiPnMVBi/436czGOKDovbnRka0irHrhGvOh0LL00kub+d18882hszLToy0SWrvocMYuc5GzDgkdhYAQEAJCoB8ChGL1fYDz7mHQL6OUPxiM+EKQMVhjIFOEWOQsK3khBuOGLQykZa9W2nzzzb11dPnllxcBR2OFkGUgpq10IxScb49XSLyQYpGz7LOBZ12SoC8qBJ9VHiYGtH/rXe3Ge2rpGOoag2Rrv132QMOoV3dhsmHVI9dwAOiGsAre0ok2DwkWWkTO9iHqI2fdNgLsqxyvm2WXXTaIkb5Pg3RnVlh/p9cZZ5yRLpGK3sW4A2cfV574kfFImQZcIMJAENfBnUOo9Yr4Vs0WFTa6TNwIo+lbgV2kk6GvjOPGjTPbU+g91SxyljEVwmqEZDhjR5D59A55nb1p3XsUP8Yjo4TML2tarJ6P6+fOiXKRV6zQvaTPd55xV5lCnzp48OCmsjLvwHEjlNC3OwzjR7cdC+Ob+HVWWZbd34cqa6fpMJ6ebLLJ+pUfLHBSCuEI0Kk+oe9nxVW8buPnELPdEN84ivldkUREvOzuXOSsyFn3DtD/u3YRPxa5cpatDOJ5xc/LctBz5eeIw6sviiDOS0V8I33kLNFE2GYpjgk6lEUegsfhhx/eL3+nC+MFHBtDCRjE7Wsun4033rgUB6FQ5egkHZGznaCle4WAEBACAwQBQgjhue4+hPFj0aFD20Hs2/+WCUwRYpGzCy20UL+VHWDVrVWKPkMfdVaE+MKdEkqlW2Kt8GOwGtKQYpGzyT0Ou9UOVl11VfNdxZjVS0JYvXhf5M6LDrdXBoY//PCDWTbKiBNGN2WttdYydcNQF/Ido4wiZ/tq2kfOujC2GNDcO8AKeozNZQsOSU6H5JGVKXWXW265xSxfqD0es+CD808Sa37Hw3FmSbcKz9CfWA44rAroBbH2saLutthii64Vz7dFRcj+xCJn2esRuemmm/q158cee6xULCCirD2dMQoSrr0q4ouqkXfugeHZmu8V6fSaBlPLCTQkceYjZ51zZbyP5fvaC6RkGty5h5VC8fK7c8ZndZdWY236525KclsGhzvvQlERUVwe8aPIWZGz7j0om5y98MILzb6H7xFbC3VLcCLz2dsgS0OLj5xNruLldzckGbXJ9R9E9QslbFvn0o0fy14IE6o8adIpxnKbJmfdIwSEgBAQApVFgJCA8Q+hO2cFSUiDTRYAMN6xr6jTKX4kfGJoscjZeJ7owmqIbgkGg7g+8fNTTz01qFqsxIyn784XX3zxoPl0mhhtcvbZZ2/S7dBDD+00Ke/9Fjnrys+REDzdMt5gXGTiEtfHnZfpTekFL9A/CCPtyuWORTllBFI5dTK+sLCsCu62YBSKE4EOe46HHHJIUPVEzvbB6SNnH3rooSi+9yARHMpcadanYdQU9tG1jW4ZDOK65T2n3bvyxI/dcsKJl8cKyYhnf90Fx8A41u68iFX6ZWP13nvvmWULbQjvtFyMqS2nx5133rnTpLz3W+Qsxj3GTPHxfMg8vcoY/yBMv2tr8WO3IlYkVcQwHNfLneMglVd8kQFwTOmmPPPMM2aZ2c4jhPjIWcJZx6NS4CziVtOGyLcOabBNiGtj7ggOvSA+gz/Ott0W5nK+FXrDhg0rRD1Xv/Fj6G8Sc/F4+u78ww8/LKRMWRP1hdItcm5vfRvBpypSJjlLZATLKQc8RowY0XVIIIdd200eQ0fv85Gz8XyJlhTaQTotyETni+viznGkpB8LIVZfuOGGG4ZIurJpVOfNryxEUkwICAEhMLAQuP/++80PLmF7uxFOxEL/iSeeMHVkUJDXizyZXytyFs/6MvZ4SOqU/L3PPvuYeEw11VTJWzP/ZnIy88wzN+VDaJsqrNi54447mnRjohWKOG9FzrLqImQolyyV5Nsf+rjjjsuSXOWe8RnSMLTUXXwkHJMdyIoqCPvMWOGFIKo+++yzYCqKnO2D0tcuMBwvuOCCP/V3+++/f99DJZ699tprP+ngJubuGKrfLbE4TVlZex9SPlb6dVu++OKLiDGZw9sdXcjrbuuXNX9CF7uyxI9Z06vSc8nQva58Ze3n2QqL5557rgl3yJhQhj/LAE37ffLJJ3/Kd+qppw4atrZVeZP/Y/wW36bE1Q3OURCj3RZCGTqd4kf64DySDN3r0mY/uyrIoEGDmsp98MEHB1HNN6Zk1Sht0WFx9NFHB8mvLomAixW9ACKg7uJz/qGuqzCPBV++4VZfhI4ffPBB8Cpw7Tx+FDmrlbOuoZVJzlpR0GiXCy+8cNcXhjg8fKvbZ511VndLkGM7chanqtD2zk4VJ0JdvN9w5yGchSHqrUUH119/fadq1up+kbO1qi4pKwSEgBAoHgFWQboPbPzY7XDG8ZIzeWS/z7h+7jzUxN3l14qcZW+0KkirQdyjjz4aREXfqlmI4aoIg2PXDtxx1KhRQdTzkbMQVi7MaJCMMiby/vvvN5UdDHoltDHOAa5O48cqYJ+xyn56bL755jPLtvfee/90TxVOfCE5Q/a5Imf7atpHzsb3Aab/6Zb4yKbQERu6UT7fSrU55pijG+qYeR5wwAFN/cYaa6xh3luXi9tuu21Tmejv6y6sdo9/t9w5dVgFYUxtraAMtXLUImfBgHCxDovRo0d3FYqll176J12cThxDjaHzFM5yjAqx558VJYl0q7KiDdI8XhfuPA+W7lkfOcuKIGcUpn2GclBw+Vb96CNjrrnmmqqr3lY/ay9j2lTV9pfedNNNzXa/4447ti1jpze4dyp+FDkrcta1I19/EOL74/LgiJOaFV6fb98LL7wQv7Wr56wKtfTk/QlBSrrCtbLrsVDiq6++crd27bjRRhuZ/RShqfOKz3Hsrbfeypt0pZ+v/2yn0vBKOSEgBIRAvRDwhZEidFZR+51kRWj8+PHmoIDQREy6Q4mPnN1ss82C5pNX3+22287EY911182bdKOcrMKNT944x4BRJcMFZHlSx3nmmSd3+UnAR86ec845QdIPkUiy7O53iLS7nQYeoq488WPV+qVOcfr888/NFamUkb2xqiR/+ctfzBUVePmH2ptP5GxfjfvI2ckmm+ynd4FVtN0QIkbE30N3TlsI+f3tRtnIkz1AXZnix3HjxnVLpaZ8WenjSASnIwazqqy2b1I4xQWLICQyRd2FcYirI3ek7uhTqyLJvV/RM1SobB8567AgDHq3x5I4ejl94selllqqq1Xk02vkyJG59PJFINphhx1ypRvyYb4lzOni9cH5ww8/nDsbHzk7xRRT/JTfddddlzufuiXg25OVcM91FuYKlpMD7alq27+gD9/yZLvnmwFpE1KSefBb5KzIWdfGyiJnceq02iK2l6qJL6TvMsssE0xVHzlLv1AVgtK3VUeIbW349lrtIXT/F6zCAiUkcjYQkEpGCAgBIdALCOCVaX0MDzrooEoWb8UVVzT1HTt2bDB9feRs1QYIvr0wQuyjQ3gRq10ceOCBwXAOkRDGFmvyHSJclY+crdKk3tqfg3rrttEzRN36yNlQ+4+F0DFLGr7QqSFXo2bRy/eMRZ7Qxh544AHfIx1dFznbB5ePnHV9MYa6bskiiyxifhOuvPLKbqkUNF+2SHA4u+Pcc89dOeLZWgmUl7QJCmSHibEy2eHtjqxSqLNgwEqS6JStauNqolNMOOGE/fBH7xCrQdqRs1UhwXxh+rpJoluhfWk/eZ0wrL03ca6p2tyGFdWuL3DHEHvt+shZlwfvwkAU5jQOg/jxD3/4Q63h2G+//cxy4dhcRVlttdVMfUOH9YzXsTsXOSty1r0TZZCzrEaN7z3v2iFHooJVTXwhdylDKHuLj5xlPFAliddV/Jzvax6xFluQfhW2AclTrnbPipxth5D+LwSEgBAYIAj4vGWZrFdhzyWrGqx9Rvl4h1gt6vLzkbNVXLEXX1EVHyQ9++yzrjiZjoRKjKfnzjMlVvBDlpf9jTfemDtXHzlbpdWNhx12mFlP3Vpdlxv0WAK+MKN1LxtGRvc+xY9VnJBSHex1GdfTnc8000yx2sp+KnK2D7t25OzFF1/cd3PJZz5DCkaLusuYMWPMNn7LLbdUrmgnn3xyk65V2S8yC1i+8VaWtKryjG+PsjfeeKMqKv6kxwYbbNDUnoYPH/7T/7OetCJn2de1KkIkFPdNix/33HPPrqhIRAqL2M9LKH3zzTdmOdnWpmpihTbGCTOvtCNnzzvvvLxZ1PJ59ouPt313zr7HdZYZZ5zRLNc777xTyWL5tnJh7BVSXP3GjyJnRc66NlYGOfvpp5+a7+akk07q1Kjc0efsESqaWt3J2bwktc8WUPcIDu0assjZdgjp/0JACAiBAYLAY489Zg6OWCFTZYmHoHKTC4wZoYzEPmNhFcnZnXbayazDESNG5KpCh2v8yES3imIN6EIYq+tAzj755JNm/bNHZd3FZ6hgn7i6yoMPPmjW12KLLVbpIlnGYvqGvJMxCm29v6Rdlf29XcX4HFZCevW2Imepg26tcDr//PPNdstKrF6QZZddtql8kAHdwrsVpuiUfB9Z9RviXWyVb1H/GzZsWBP2vP+srKirzDDDDE1lWnjhhStZHFa+x8d5nK+00kq5dW1FzlYtAkuy/O53bhAyJFBUePV77723qZ4pZ1Wd3SDwXT24Y959cduRsxmqqyce8UWpCRXivBsgYdB37SZ+nGWWWbqhTuo8J5hgAlPvkN/3OB7uXOSsyFnXSMsgZ1lQ4dpe/HjRRRc5NSp3ZB/cuK7unOhSIaQu5Oz8889v4pB3zE6kBodp/NjrTlMiZ0O8PUpDCAgBIdADCGy99dbmh3DUqFGVLt36669v6n3fffcF0btO5OwNN9xgYrH22mtnxgKyIT4wcudXXXVV5jSLfNAyuGC8zjuZrQM5S/hBVz/x43rrrVck5KWkTb1aIaspJ8akOsruu+9u1lcoz9uiMPHtb42DT14ROduHYCtyduONN+67seQz33YCIfYBLLkoTdnRz1gOX6usskrTvVW5YOlb1dVA7TB75JFHzD5x//33b/doJf//2muvmeUhykUVBcIrPnbgfOqpp86tqo+cJTJP1Rwdhw4d2oQBONx88825cegkAYziVjScRRddtJNkzHs33HDDpjKyl11VxVp9ftxxx+VS15oruLY/ZMiQXGnX/eFJJpmkqX0w/g7l9Fw2PoSQd3UbP5500kllq9JRfsccc4ypN3tehpI4Hu5c5KzIWde+yiBnXbtLHp0OVTzy/bAiteFQEWJMUxdy9je/+Y3ZRxGdI4/Q7tjSJNkm5plnnlo7a7bDRORsO4T0fyEgBITAAEAADyeMJMmPYIjQUUXDR8japN783muvvYJkXSdy9oMPPjCxyDPRAkcLX4iDqoqlb97Bch3IWR+ZM99881W1qjrSy7c/ax7ng44UCHwz9WK11T/+8Y+Bcwqb3FdffWXqveCCC+bOSORsH4S+95k288QTT/TdWOKZj7xkEk04xLrL008/bbbtc889t7JFs/akvP322yurbyvFfPsdMhb96KOPWj1ayf+ddtppZnt69dVXK6kvSln7rn788ce59PWRs7PPPnuudIt42GcUZUV6mUKfY40P8u45yRYRydX25JNnnlA0LldccUUTFnkjjLQiZ6u6rUTROLv0DznkkCa8aSPLL7+8u6VWR1azWe/Syy+/XOlysK+0pff0008fTG8r/dB9waGHHmqWI+/q92Ag/F9ChNG18CByU1Hi+zYWlV+n6RZNzmJ/tDCvsrOQw9ByGqIst956q7sl89E3DqnanrMXXnihWX9PPfVU5rK7ByFirbZB9KZeFZGzvVqzKpcQEAJCoAME8Ia1PoC//vWvO0ilO7diELa8q0J4+1OiOpGz6Eu5rbpkkpdFZp111qb0MOxUdR9iymiVP6/Hdx3IWd9+oNRhL8i4cePMuqW+jz766FoVEYLTMpCyB23VhVXo1jvGtbwicrYPQR85iwGpW6vFX3zxRbPul1lmmT7Fa3x2/PHHm+WrshHX+jZVmUxu1TwgTOaaay6zDjAY5/XGb5V3Ef9bZ511msrC+0s5qypzzDFHk86PP/54LnV9BugqOhFQNzgaWd+4N998MxcOnTxsEL1ubAAAIABJREFUvQeMD/KOvX3OVfvuu28n6pV67/33399UH3mJfR85i6NykWRMqcBlzIx2brV/rh1wwAEZU+3OY7wvlvP5hBNOWPl6RnerHrB5hBIrfZGzWjnr2lfR5Ow111xjtvGdd97ZqVDZo+U0xPu0xx575Na5LuTsmDFjzPq76667cmNw1FFHmWljO+mFSE0WQPmtKFaquiYEhIAQEAK1QuDtt982P4ArrLBCLcph7UfEACmEIa9u5Cze5NZkK+tKDWsVBcbgKosVCo42nkcsAzg4//DDD3mSDfqsz+g200wzBc2nW4lBCi6wwAJm+2awHmq1fBnl8+3xzV6mdZCJJprIrIe8uouc7UPQR86yP1O3xOclXdUwrZ3iZIX7xEktb1j8TvXo5P799tuv6V0kZHpdBY97awzDNcgpwvfXRaaaaqqmslR1v1mH6eKLL96k87XXXuv+nenoI2czJVbCQ0QmsNog84EyxJd/CAIVRxOrbFWO2GE55hFSMo/4yNle2AYkDy48CzaskrXaCdfY2qIu8tJLL5nlqMsqYCsyBnWQd09HV39WHYucFTnr2kfR5Cwh5K02mNVm5fQu4+iLVjd48ODc2deFnIUkteov75gRAOnjfLYGbD5XX311bpyrloDI2arViPQRAkJACHQBAd++JhdddFEXtOk8y3nnndccHOQl5NCkbuQshgVroDR27NiOgWVgZK3uq7oh3gqFgndmHhE5mwe9cM+28uin3c8444zRt99+Gy7DglLykVx1WZVgkVjgn3dCLXK2r8H5yNkNNtig76aSz3bZZRfz+8J+570g1qrBqoeFP+WUU5rqpMp75KZpJ+uvv35Tmdy4hhDHZ599dppkunrP559/bpZhrbXW6qpe7TJfdtllm/SmjeWRupGzPqMgK/DKiFpAH+/auzuyWi7v9hzUoW//zTz1W/Sz7733XhMerHzMIz5ydqONNsqTbM88Syhz1/asI3udh3CALhow3+o29kqsgwwbNsysh1BRB6y6FTkrcta9G0WTs9YCANokzuZ1EGt/bsYJeR0660LO+hzJ6HdDyL333mv2f67fWmqppUJkU5k0RM5WpiqkiBAQAkKgewj4VqNhXKqDbL311ubH+5577smtft3IWWsVDYOYLAOlV155xcSVPa8YsFf1j8GaG7i545lnnpmrLYiczQVf0IdHjhxpOg24uua48cYbR4R5rqoQsimurzsfNWpUVVXup5ePXM4bXlrkbB/MVSRn8Qh3bTV+fP311/sUr+kZxnor/OFqq61W2W8d3+ALLrigqU6WXHLJmtbCv9SmXDjaxNtY8py6wjCUN8xrUUBZq/0oA6Haqjp2Qi8i5iSxPvLII3PBVDdylsKeccYZTTiAy4EHHpgLi3YPf/rpp2a+oYyQvj68ym2SPWCTbXKCCSZoB2XL/4ucbQlP45+MR3GGSWIf/8338bPPPmufWJfuwOExrq87r8u+hb6woTjKhRCHR/woclbkrGtbfBfibcOdh9oTlsg0Ls34kS3L6iA4b8b1dud5I7yInO2rfctZzeHsjiwyArO6i8jZuteg9BcCQkAIBEDAWh3JB68uctlll5mDo7ze/pS/buTs6aefbmJxwgkndFydTMzdwKfux+HDh3dc/vgDImfjaHT/HBLQ12/F2+rSSy8dsV9ZlcJPgx4r2+J6uvO6kFw+x428IXdFzva9W1UkZ6effvqmdovxNlSIvb7Sl3+Ggdm9h3U/Ek2k7vLll19GVntL1g1GwuOOOy6qWljWRx55pGfaU96IDnUkZ3HuggBMtjfaZJH93UknndSUJzqMHz8+yCttOaAky1iH34z/8ojI2XTonXrqqanG2mypg0P0d999ly7hku7CUdNqz2wtUgchGo2lfyhnDSttkbMiZ927UTQ5a32PmFPQP9dBVl55ZfP9fPbZZ3OpL3K2Dz7awtprr23inOy/hg4dGj333HO5Vy735V7uWX0s7+XiotyEgBAQAgMKgeTHzf2uCwhPP/20+dHeaqutchehbuTs6NGjTSyy7EEHoenaQt2PeffqEjmb+1UKngBh19O2Swz4m222WYQXOpPNbosVPpWyVI1E9uH07rvvmtjPNddcvkdSXRc52wdT1cjZf/7zn6aRdsopp+xTusZnvr0Y0/YxVbpvttlmq3FN9KmOgWqhhRYy+xoLb1YxnHjiidEbb7zRl0iXzgj1belYx2t77rlnLhTrSM5SYMYMVn3dfPPNufDwPcwqcIsQJnRiKLHKU9drfJOyisjZ9Mhdd9115ntgtRvCb7PtBWO5KoxniSJh6Zl3ZVt69PLdidORpT/b94QQK22RsyJnXdsqkpxliwCr/dVp/LrJJpuYZbjrrrschJmOImf7w0aYaOx4Vnuxrk066aTRHnvsET300ENRnnFCfy2K/yVytniMlYMQEAJCoPIIWB82rtVF2PfGKgNGvbxSN3LWt1pj00037RiKXXfd1cTVwrrq1y6//PKOyx9/QORsHI3qnGNggRDspP1hPFpxxRUjyN1uhE7CKIgOSZ1/9atfVQfYNpp88sknTfpTnplmmqnNk63/LXK2D5+qkbO+cJuDBg3qU7rGZ769k5LvaR1+E5q2l2TEiBFmf9OqLmadddaIfQVZ5d8NIWxmK/3q9D8I7zxSV3L2pZdeMutwmWWWyQOH99nHH3/czO+mm27yPtPpP+rU7lrpSjjMPCJytjP0Pvzww2iRRRYx26evnlgBxx7W5557bvT99993lmGguyEak/qx6rqMvaNDFMEX0SPvWNvplsSG3yJnRc669lEkOfvaa681vZu0v1VXXdVlX/kj2xxY7xAR/fKIyFkbvQceeCBiv3MLc981iNp11lknuuWWW+xEK3S1Ppb3CoEmVYSAEBACvYaA74NWp3JaZSD8WF6pGzlLOA8LiyzhRrfYYgszLcgwVqjU5W/11VfPPREXOZv3TSrueUIMQur59q6x3gd3jRW1888/f3TOOecUp2AiZZ+3MBOOushf/vIXs2+YbrrpchVB5GwffFUjZ30rOBZeeOE+pWt8xqTf9QvxI3uf1uVbh55LLLFERCjEXpOPPvooYn/DeN2kPcfYTHjLd955pzRYTj75ZFPXOrUldB0yZEj01Vdf5cKtruQshWZ8YLWzN998Mxcm1sNEIbDysu7Nes1Kf8IJJ6xVH0e7POuss7JC0HhO5Gzn8LF66bbbboswdlvtqNU1wpcSbv+0004rNWQpbTupV15iv3Pksj/hI2lCEahJbPgdKm1X6kMPPbSpDsgHwr9K4mvXRa68q/q3sUhy1reYYLvttqtSs2ipi29veq7nEd97XzVnWJ9T6xVXXJGn+C2fJSIDW5lYfVe7axNNNFFESPiqErUiZ1tWvf4pBISAEBgYCPg+ZnUqvbX/ZIgJWN3I2XHjxpkDFoyanYpvjwdWUA00ETlb/RpnAs3+soQA9PVpra6zmhWjxO23315oYVlBYOkxzTTTFJpvyMS//vrrQsogcravlqpGzrIfstVuCRvYC3LHHXeY5WPvdUl1EPjrX/8abb755mZdWe0zeY1x4ZZbbll4ePvDDjusSce8+2RWpxY606TqBuhWpbnyyiub6pE2NWzYsFaPdfy/H3/80cxnr7326jitVg8k3wd+Dx48uNUjPfk/kbPZqxWHSIzyk08+udlmrTYWv8aKWsbabDNSpFDHlm0AEq4u4psvTDXVVEGKEK8Xdy5yVitnXeMqkpwdO3as2X/k3UbB6V7GceTIkWYZjjnmmFzZi5xtDx+O7qxQtvp415e1OrKFxIILLlgpJxGRs+3rXXcIASEgBHoeAd/Hq04F932c85ahbuSsby/I5ZZbrmMoWG1rtY2PP/6447Tq/oDI2XrVIB7+hLTEeOTrG6y2Hb/GntVffPFF8IL7wrCHWOkfXFlPghAkcazceV6DkcjZPsCrRs76QnzyjewFufPOO802XaQHeC/g1s0ysNqZ/cmIgOD6oE6OrFR88MEHI/b6DC3Dhw83dYLYGGhSZ3KWuvI5fH333XfBqnKllVYy2wtRKkKK9X5goBxoInI2XI3vt99+jVCTWcfa7FFL+N7Q4otSQ79fF/E5bTC3CSFWfyByVuSsa1tFkrPXXnut+c075JBDXPaVP15zzTVmGQ466KBcuouc7Qw+7JJEeZl44onN+rD6ufg1HIaOPfbYCNtGN0XkbDfRV95CQAgIgYogEP9Axc8rol4qNXyTwlQPt7ipbuSsb3XTyiuv3KKU9r98YY3Z53OgicjZ+tY47XXHHXeM2IMw3r+lPcdo+t577wUDwLfqtE7k7LfffmtimdfoJXK2r5lVjZx98cUXzTpnT7leEF9YY/YOlVQbAQhPSHTClbF3d9q+3d2HYQZDYUji1BfWuNvGn27UZN3J2V133dVsU3yvQghRPywHg6WXXjpE8v3ScG0+fpxllln63TMQfoicDV/LhJ7HKXL22Wc335d4m7PO6b/feuutYIr5iKW8ToTBFEyRkK8Mk002WYqn299i1YPIWZGzruX42h/fq7xy1VVXmf0EYbDrItddd51Zhv333z9XEUTOZofv6aefbuwxO+2005p1Y/V58Wt77LFHhJ2mGyJythuoK08hIASEQMUQiH+U4ucVU7OlOhY5S8iKvFI3cta35+x6663XMRQ+g9Tbb7/dcVp1f0DkbN1r8F/603YJN8lKkXhf1+4c4z3PhVhhxWobKz8mEnUR3+rfvKGZRc72tYCqkbOvvfaa2W57JSTm448/bpaPPfIk9UEAgvX6669v7DHbqRf9HHPMEb388stBCnveeeeZ7emTTz4Jkn6dEqk7OQt5an2zWVEbQgiBaKVP6NjQYuUTiugJrWuR6YmcLRLdKHr//fejI488Mlp88cXNtm21Q64xl993332DhJ331XGd2jv7K1pYhSKYrbRFzoqcdb1DkeQs+35a7W/vvfd22Vf+eMkll5hlOOqoo3LpLnI2F3w/PQxRu/vuu3fsMIT9uBtRk0TO/lR1OhECQkAIDFwErMER1+okVhnyEgWUv27k7MMPP2wOFNljrVM58MADzbReeeWVTpOq/f0iZ2tfhU0FYEXtueeeGy222GJmO7f6lEUWWSTKG2bQN9nNu+q0qYAFXgADC5/pppsuV64iZ/vgqxo5+84775h1vuiii/YpXeMzn2MTThmSeiJAWMv77rsv2nnnnVOvqMUoc+GFF+Yu8NVXX22+L6HI39wKlphA3clZoFpooYXM+vzwww9zIznTTDM1pT3jjDNGkMKhxfpuQ4gNNPERdxtttNFAg6Lw8rKilr0ZWRlrtT/r2nzzzRd9+umnuXWzIilMOOGEudMtKwHfFiKhnDkt7EXOipx17ds3Xw2xcpYtJaz2t9NOO7nsK388++yzzTKceuqpuXQXOZsLPvNhxt7HH398YysUq91Z19Zff30zraIu1svyXhQKSlcICAEhMMARsD5IXKuL+PZkmXvuuXMXoW7krG//C/YE6lQuuOACc9D5yCOPdJpU7e8XOVv7KmxZAFYzXXbZZan2K5l66qlzhbxhP1yrz51ooola6lilf2I0s8qAQTmPiJztQ69q5CwkhFXn8847b5/SNT7DWcMq3zbbbFPjUkl1hwBE7QsvvNAId2bVc/LaEUcc4R7NdLz33nvN9hQqFG4mpbr0UC+Qs4wRkm2E34MGDcqF6l133WWm+7vf/S5Xur6HrTJwbaCJyNnu1Dh7y44aNaqxR62vLbrrrHD94osvcinKClOXnjsSCYdxeB3kyy+/bNKfcswwwwxB1HeYxI8iZ0XOusZVJDn7/PPPm2173XXXddlX/jh8+HCzDHkd/ETOFlf1fPvffffdxh6zOGPG+z7rHMe8sr4XA28kVlw9K2UhIASEQG0RsD5GXKuL4A1llSGEB3TdyNnjjjvOxIIQe53KQw89ZKY1ZsyYTpOq/f0iZ2tfhakKQEjMJ598Mpp00knNtu/6mbye95CYLq34sYiVMqkK3uFN7MEb19ud5zVUi5ztq4iqkbPff/+9WeehDXl9CJR75nPyWmONNcpVRLkVjgCGL6KJuH7Ld2Qf2qziW4l9wgknZE2yts/1AjmLQQ8HKqut8L+ssuKKKzal+Ytf/CIinGkRwv6yVhmKyKvKaYqc7W7tYOyGnLHI03j7zLtCb+GFFzbbO+OrOgjhoeN4uPM555wziPouvfgx9JiOPUTj6bvzEFEHgoDwf4n45n1Fzsuq/m0skpz1heyuk8PnVlttZbbt2267LVfTFDmbC77UD9O+fYtaXD/FERtgGVIfy3sZaCgPISAEhMAARSD+AYqf1wWO0aNHm4Ojo48+OncR6kbO7rDDDiYWN998c8dY+FbHnXzyyR2nVfcHRM7WvQY71/+UU06Jfv7zn5vvE/1kHuPIcsstZ6YL6VkHGT9+vKn/yiuvnEt9kbN98FWNnEUzy3gVYm/3vlJ392yKKaZoate9Era5u8hWM3cMYLPOOmtTncfHwTglZBE88+PpuPMtttgiS3K1fqbqBui04Pr2yNttt93SJtHvPp+T0+abb97vvpA/NtxwQ7NdhsyjDmmJnK1OLV100UURDgmuj0we82yXsc4665jpPvvss9UBoIUmvrE2W6yEkCTW/BY5q5Wzrm0VSc6ShzXHpi+oiwwZMsTsX5566qlcRRA5mwu+jh9mPADRzhYPVp/INRa/FC0iZ4tGWOkLASEgBGqAgM84xaCsDrLPPvuYH9MQKzzrRs4uv/zyJhbPPPNMpqq0JsxrrrlmprTq/JDI2TrXXnbdCcE2+eSTm+8Ug3VWl2cRQqVaE4Dbb789S3KlP+MjUQ866KBcuvjSvfTSS3OlG/phVlNa9UcIulBSRXKWfeCscn/88cehit3VdKx9JSGkJb2NwPbbb2+2a9o6/X8W8e0VuMQSS2RJrtbP9Ao5++2330ZWGDycOrKsnuV7mexPCbn61ltvFVbfp512WlOe6MA+8gNJRM5Wq7Z5tyAFk++D+501isGee+5ppsme4HWQhx9+2NSfyA8hxOEbP4qcFTnr2lbR5Ky1JzRtsS72R5wk4u+OO3/77bcdhJmOImczwZb7IbaZIDKaq8fk8YMPPsidR6sERM62Qkf/EwJCQAgMEAT22msv80OEl3gdxDc4wuM0r9SNnPWFLGOgl0WslUSTTDJJJkNUlvyr8ozI2arURPl6EO7UF3pt5plnzqSQz0AaYrV/JoU6fGjnnXc2vxkYkvKIyNk+9KpIzq633npmvTOh7QUZOnSoWb6PPvqoF4qnMrRA4KijjjLrHuMMoe6ziEU2hNorMIs+3XqmV8hZ8Ntvv/3MdnLVVVd1BC8rsn/96183pQVWRcrrr7/elCdtPO8eeUXqXETaImeLQDVfmhAyM800k9k+uZ5FLrjgAjO9Aw44IEtypT9z5JFHmvp32t/4FE+SD/wWOSty1rWXoslZKxoPbTCrzcrpXdZxmmmmaXo/cbDCbpBHRM7mQS/fs6x6tsZmtMtdd901X+JtnhY52wYg/VsICAEhMBAQYFWlNUAnxEMdBILE0v+LL77IrX6dyFkGcwwKk1hkndQC3myzzdaUHul/8803ubGtUwIiZ+tUW+F19YWoJAROllWD9957r/lebbLJJuGVLyBFnwGNfcTyyE033WTicskll+RJNvizA3XlLM4Dye8Lv0866aTgGHcjwREjRpjlu/XWW7uhjvIsEQHImo033tis/2WXXTaTJuuvv35TeozRBtr4qZfI2XfeeaepTukD2duyE7nxxhvNdMaOHdtJMh3f+/XXX5v5Lrnkkh2nVecHRM5Ws/ZwhLIiNvGOvfzyyx0rjWONNWZZe+21O06rGw8ss8wypv6hviEWNqHJ2cMOO8wsQ9Gr0DqtLx9RqD1n+5PVtJm8e0G7ullsscVq0TacvvEjNjcrDO4CCywQvy3TucjZTLAFe+iGG24w2yX1nZd4b6WkyNlW6Oh/QkAICIEBgoAv/NrEE09cCwSssCiEpchLFFD4OpGzhES1JlobbLBB5nr0raoeN25c5jTr+KDI2TrWWlidfcTU8ccf33FGELrWu5pnH9uOlcj4gM+oSXnyCiswLVzOOeecvEkHfX6gkrO+b0xdDJ3tGsHTTz9ttr9hw4a1e1T/7wEEvvrqK9PBbeqpp85UulNPPdVsT1lDdGZSogIP9RI5C5wrrrhiU71itEtLHvENnX766ZvSmGiiiQqvrX/84x9N+fLNrct8LxRAvnHMRhttFCoLpZMRgdNPP91so/vvv3/HKbJC3SJQWPFWdfmf//kfU3f26Qwl1ng7NDl74oknmvUZIrpZKBxIR+RsM5pFr5w988wzzbaRZV7drH2xV2677TZT92233TZ3xiJnc0OYO4F55pnHrN8iIynlt6LkLrYSEAJCQAgIgW4j4Jus471adXn88cfNj+dmm20WRPU6kbMHHnigicX555+fGYsPP/zQTJN9fAaSiJwdSLVtl5UBuWXIWHfdde0H2lydccYZm9LDiFT1vd8wGFk4ZN2bMQ7TY489ZqbNisYqyUAlZ32rrggBFcIZqtt1jMEekiLZvokgIRkYCOywww5N9U+/nGUPtGeffbYpLdpWXaLShKrxXiNnfU4q7CWfRnwh61lhVoasvPLKTe0yaxsvQ98i8hA5WwSqYdL0rUhbffXVM2XgM7K/9957mdIr66Effvih6T3l+4FDeihJjnX4HZqcPe+888xyED60SiJytrk2iiZn//a3v5ltI6tDXHMJiruCs4j1/lx++eW5MxU5mxvC3Am8+uqrZv1CyhclImeLQlbpCgEhIARqhsBKK61kfoReeOGFSpdkl112MfUeM2ZMEL3rRM76wjt/8sknubCwBp9cG0gicnYg1ba/rKxsTb4P9BFZZPPNN29Ki7QJd1hlOeuss0y9r7jiitxqv/3222baRe/z0qniA5WcBac55pjDrKNXXnmlUxgref/iiy9ulo9wppLeR+CWW24x6//NN9/MVHjL4IsjC+TQQJFeI2epN19of4yq7YQw2clxRJljat/2AUcccUQ71Xvm/yJnq12VVrhTrmURy+GG9y3Uvq1ZdErzDHYMq59gf/RQYqUfmpxlWwgrn6ptV2J9q9FbYY2LC2tMO7baBteqLvPPP7+pewgHa5Gz1ah9q20ee+yxhSlX/VZfWNGVsBAQAkJACMQR8A2eV1lllfhtlTu39kTFAxzP9BBSF3L2jTfeMAeJGNLzioUxA5Zvv/02b9K1eV7kbG2qqlBF11tvvab3bNFFF82U5+jRo5vS4r3KuhI3kxIZHiKkmjVhCbFy0hfGDeehKslAJmdZHWbVf1mrvopuB76QiqecckrRWSv9CiDg85Yn5HUWsb4ZvD8PPvhgluRq+UwvkrMQJFY/eMEFF7SsI76T1nNZ9zVumZnnn74oIIMGDfI80XuXRc5Wu0632GKLpvdkvvnmy6T0Aw880JQW72CZ71wWxVk9aPUVRDsLJVb6oclZ3z7dbJtUJRE521wbRa+cJccFF1zQbOdVW1kdR4dV99a7M++888Zvy3wucjYzdEEftOq4yG1uRM4GrT4lJgSEgBCoLwJffPGFOdCYYoopKhuukP2drA/n0ksvHawi6kLO+gxF++yzT24sfMbK1VZbLXfadUlA5GxdaqpYPS1iavDgwZkyxRvbCqGKc8k333yTKc2iH/KFWQsR0tjp/stf/rKpX2cP8SqtNBvI5CzfXdpo8ttLWw5pNHTtoewjDgJWG6SNF7mCouxyKj8bgT/96U9NbZu2nnY/0WSqDz/8sJne0KFDk7f27O9eJGfp6wjnnuwHp5pqqpb9xG9/+9umZ0gjb4SbThuPtXqXfh1Hz4EgImerXctES0m+WwsttFBmpbFlJNPj9+eff545zSIf9G0fMsEEEwTN1sIkNDlL32blM/fccwctS97ERM42I1gGOfuHP/zBbB9ZnTGaSxH+ytlnn23qfPDBBwfJTORsEBhzJ2L1W4ccckjudH0JiJz1IaPrQkAICIEBiIDP4HzRRRdVEg2LKOFDGjJUTh3IWfbssIzJP/vZzyJI97yCpz9pWYOUXjDGp8FH5GwalHr/nk033bTpPVhxxRUzF3zNNddsSo/3bOTIkZnTLPLBrbfe2tT3sssuC5atz4hWpZX6vm/ll19+GQwH376EG2ywQbA8siaE8c76HrBncC+IFVKR8rLHvaS3EXjrrbfMts1qw6wy3XTTmWl+/PHHWZOs1XO9SM5SAUOGDDHr9fnnn/fWj0XozjLLLKU7wf7+9783dd9www29uvfSP0TOVrs2t99++6b2ucwyy2RWGmcYa8xy8sknZ06zyAcPOOAAU98TTzwxaLYWJqHJ2b/+9a9mWRjrV0lEzjbXRhnk7N///nfTxkSUpirN+xw62L2mnHLKpjb9i1/8Ivr666/dbbmOImdzwRfsYat/ZGunokTkbFHIKl0hIASEQA0RuPvuu5sGG3yYQoXpCAkJ3q4MhJIfzokmmij68ccfg2VVB3L2+uuvb8IBXGafffZgOAwfPtzMY6eddgqWR5UTEjlb5dopT7fllluu6T3YcsstMyswfvz4pvR4dzESVM3xAScNa6Uv+obYY8eBOOuss5qYEEaqCkK9+EK9DxRy1hepgX0Ye0F8BN20007bC8VTGVogAAGfHFeyWinPyn2foX3PPfdsoUnv/KtXyVlfxKFFFlnErDzf9jG33XabeX+RFzG6W45QGMTff//9IrOuRNoiZytRDV4lLAe4jTbayHt/u3989tlnZsQP+vaqjbUpyySTTNL0HeK7FMLhOo5V8lvH79DkLHMHazsUrvG/Ksj3339vOrmDR5ERU6r+bSyDnKX+GQtZbZFFGFUTnFAtXUOuBBc5W41at+r52WefLUw5kbOFQauEhYAQEAL1Q4BB8lxzzWUOOq677rpKFWi33XYz9cxo6DqnAAAgAElEQVRDlFgFrAM5y+TSGkCMGzfOKlKma5AOVh7kHcpTMJNiJT0kcrYkoCuezWSTTdb0HuT1ooTwsd6tUaNGVQqNPfbYw9Rz8803D6rn8ccfb+YTIkR7CEUpr1VfXBso5Kwv5B4YhPzuhKivrGn86le/MusZJzZJ7yJw6aWXNtV7XmM1xl3LmZD3BSNcr0vVDdB58LdWwlKvFuEz//zzN7UtxtBEv+mGHHrooU36oDv7JPe6iJytdg1bTnpHHHFELqVnnnlms72fdtppudIN/fDhhx9u6rnKKquEzsrMJ+/3zlJy4403NvO66qqrrNtLv8YiBPo+60/kbDMuRGsLKUQRsbDn+/jVV1+FzCpXWnw3fCusCc8cSkTOhkIyXzpWmyxyCwqRs/nqS08LASEgBHoOgWuvvdYcIFVpvzXf/iUYv/DyCyk+cvaOO+4ImU3mtPbdd1+zvvBIDS2+1R8rrbRS6Kwql57I2cpVSekKvfnmm+a7RvjZPPLHP/7RTJdJQVUEBwzL8x0dWWUYUjBqWxOiKuDxu9/9zqsb+g0Ucpb6tvaEc/UWsj10Ky3f3qOE+Jf0LgIQU64du+Piiy+eu8DDhg1rSpf0CWnb69LL5OxLL71k1uvOO+/cr1pZjeraU/x42GGH9buvzB8Ymn3RMF544YUyVSk9L5GzpUOeOkNCyMffEXf+4osvpk7DuvG7774z0yX9qgghXn0OH6+++mpwNR228WMR5Cw2k3ge7nyJJZYIXqZOE1xnnXVM3ZyORZKzCy64oJk3DpBVkLJWzlJWK5Q5dbD++utXAYqGDjfccINZX+zXHlJEzoZEM1tavj6rSGe66nyJsmGmp4SAEBACQqAABHyrZ6sQgo0JtW+lWegVXEDrI2cxaHR7xajP2MNgtoi9zBgsTjjhhObAtKr7Eod6PUTOhkKyvumMGDGiqe1PNdVUQQo0wwwzNKXNe5xnj60gikVRhJFg6aWXNvVjD9oihImuM4zEj6+//noR2aVK8+abbzZ1ius3kMhZvsW+vciJbNEL4iOVVlhhhV4onsqQQMBnELv44osTd2b76Ytycv7552dLsCZP+d6jmqjfVk3fquj4g1bEBfrPDz74IH5b6eennHKK+V2jrf7www+l61NWhiJny0K683zOPffcpjaJg3gI8fVFVdi+iTa52mqrNZWdMWZRq9nj41d3XgQ5++mnn5phpekD+V83hGhxvnC6DguORZKzOH7F83Ln7NNbBSmTnOVb6BsjdSP0fxJ/3/iQOnv77beTt+f67ctr0KBBudIN/fATTzxhtt8rrrgidFalp2dtX8TWVkWKyNki0VXaQkAICIGaIvDMM894ja733XdfV0u11157mQMBjCNFiI+cZTA2ePBgM3RZEXok02TgPvXUU5tYFBH6yOV/4YUXmnmyqu61115zt3X9GNrrVORs16u0qwqwjzX7WbuJszsOHTo0iF6+vevI55prrgmSR9ZEfGGGCe0Ucq/ZuH6+VWZTTjll/LbSzi+77LJ+de8LeTuQyFnAHzlyZD9c3HsBuf7II4+UVj9WRiH2Mvvwww+9K8bPO+88K9uuXAtR1q4oXrFML7nkkqb2HDIKyZ133tmUPu8MebzyyiuVQSO0MdpHiFSmwDkVOemkk8x6feCBBxopsxrOWqE6ZMiQnDmHeZy9wl3fHT8WbYjsVHvIq1AicjYUkmHTIXLKdNNN19QeIS1DCE7VPqcyIqN0U9giJf7+uXNW0jIWKUJcHvFjEeQsui+//PJm+bbaaqsiitYyTcZMbJUSL7c1x+P/ob+HccVWXHHFfjo4fcaPHx+/rWvnZZKzFNIXap/vZ94oVXlApA2U+Z0UOZuntvI/y1zeihZ211135U+8RQoiZ1uAo38JASEgBAYyAtttt505YGTgSHjPbsiZZ57p1empp54qRKVW5CxYFLFat11BmLz6vC0nmWSS6JtvvmmXRK7/Y7BxE4j4EbKmqAlkWoUZQDPRY/LNvj2hRORsKCTzpVNkOJlWmvnC2YbcC+e4444z3yscT+69995W6hX2v+uvv97UifcewrIoaRV+rmyy+phjjunn8c8qZ4i5eN/nzgcaOcu3CE9uV/74EWNKNwgnHHMOPPDAxsR60003baz8ztNOzzjjDLN8fGOuu+66PEkHefbUU09tlJWxSi+QtHzDu1EOjJDsoxZvw5zz7Q8lEEJrrbVWUx7kw9it2w5urJTccccdG/3d7rvvHqrYUa+TszgpJdsNv5dccskGhrfffrv5/4ceeigYxnkSwuht6c+1jTbaKE/SQZ597LHHIlax4JAaao4hcrZ11XRrrM0epMm2iLMX2wyEknPOOacpD/Lkmz5mzJhQ2XSUjs9xB70YgxQlSaz5XRQ5e+utt5q4U78vv/xyUUU0091ss8366bLUUktFPrtXkeRsUg9XH6NHjzb1Lvti2eQsY78555yzX904TNgzulvRHHwr2nGcKMLmJnL2Xy2d9tcNwXHOtTt3JHpD0e1P5Gw3alt5CgEhIARqgoBvZSZkQciN79PAcfrpp3u9XVlNW5S0I2f5aJdJ0DJhZhLhBgvJYxkkDqt2GaQk8+Y31997772iqqNlumPHjm3SK5TxXORsS+gL/yeEiyOBCLEbkgRrpzyGVyvMrjO8tns+7f8hunzhgwknXrTHZlJPjGRWuXnP11xzzeTtwX/7JsNg8dlnnwXPL5kg9bHJJpv06+cgHNkj+J577ul33fWFIdulz2C+wQYbJFXt6u933nkn8oX1ZKVz2QRtsq+GXM8jGIusiTp1jmc1qy27IRirF1lkkX7tEDK6zsIKRDDF0YsoHWXKGmus0Q9L907jKBJSGD9ZK8PIb4oppoiIXNMNefDBB6Ppp5++HwahVpL1OjlLfW244Yb9sKM+IdyRLbfcsul/kI1VEpyeXJtPHvnmhFy1mrbc9L1JwiRU9AyRs3YtMO6Zb775Gm1h0UUXLTXkLISEFdaUrZZCCvMJ3zcdB50bb7wxZHZt02Lu6lvNG9I5yFIk+a7zuyhylvd5jjnmMPuZWWedNSrDIQByZeGFF+6nA3PLb7/9NmKsaOFRJDnrc8rdeOONreoq/VrZ5CwFxAHH6geoG4jbIusjCTB9BXveWu2Ca0XNywc6Ocu8kW2jwLjsOS92Q8v2cdpppyWbR/DfImeDQ6oEhYAQEAK9gwCDVesDxccSY2xZewrsscceXj0gSBg8FSU+cjYZnoffRQur9GaZZRbvIPGwww4rWoWf0mfw7BusMslkxV1ZgrGTCazVVmmnn3/+eW5VkgZ/V/aiveg6UZz24fSKHwnFU3dJrtbGeP/8888XXiyMCRhY43i6c0IVhhYmZNNMM42ZH6TFBRdcEDpLM70DDjjA1IGyg32Rfa5TiP2HHNbJIx7URRpyPvnkk2jGGWfslz/9mnM8gUBJ6sTvgUjOUl+tDPuEgIb4KVreeOMNb6j/77//Plf2tDVr/yHXBlhtWJbQJ+29997mKk/0ueGGG8pSJWg+ljFqnXXWKWUV7cEHH2y+z/vvv3/QMrrE3n33Xa/xEaMkjjFlCWQMoRV94ydC7ueVgUDOPvfcc2Ybol/im+n6CnfE4bRKAlmZDPPpdOUIYVfECiEfBhBWzjgb14NzIgflFZGzNoJJhzRCvZa1RQHEe7Ku+Z33+22VlDR982nGejgKlSE+co5y4wxYxDwjXi4L76LIWfL1rZ5FD5xTGd8UJYxDk30xkXAIdY0kty9x2BRJBj799NNmm6cN5o0SMGrUqChveORukLPUhW8vU+pksskmy41NmjZGH4GDimsHyeORRx6ZJplM91jjYfIfCHvO8m12zvgOc+b8ZexNjV3J2rYIfYrsB1wjETnrkNBRCAgBISAETAQ++ugj78CEj+YKK6xQmKEeQ4Bvck7eTKwwLBUpPnKW1RTJVQasegCvIgRPXst45gYueO2XLa0IWvRacMEFCx3MMInbddddvR7H6HDTTTcFgUXkbBAYMyXy0ksvefugVVddNVOaaR7COQXjiHvH4kcMh0UJhgJWh8bzi5+HXkUQLwfOBkyC4vnFzyGIizSexHXhfPjw4V5diOzABDa07LfffmZfGzcQvv3226ZeA5WcpQ5++9vfmpi49sNYoSgheoXLJ3kcMWJEkGyZmPscNcgzlCNQK2UZB/AOJsvofldltUWrMvj+5xvrUV6cJYoSxhAOv/gRI26R40vCOLYa05XhVAUZ10qHUKvCBwI5S/ucZ555mtrSFlts0XSNUIhVFWsFsHsvaCtFO+USESA5t3L5c8R5AeNtXhE524zgxx9/3NRWHfbLLLNM8wOBrtDP+sbaRbY3xrtJss6VlyMRDooSyuxbRep0KGOs7fKKH4skZ8EzuXI1njeYhBacSa1IPNNOO20/8ps9wuO6uPOiSRnIRpdX/Dh48ODMULjV74yf8my/0y1yloK3IvL5Fh111FGZ8Wn3ICRdq7E20TCKlIFMzjJni78H7pw6P/nkkwuDnTrHKcLl547ki5NdGSJytgyUlYcQEAJCoOYI4OXfyijJBwwv01CGclY6+vblch9LBp5FGs5clfnI2R9//LERBgdC1unkjkOHDg0SdpMJwYsvvuidtLr81l57badu6cdXX33V9DJzunFkD9hQYUip8/fff79lmBnyxPMtJIEmcrb0pvVThhjRMBbE21T8HFLk8ssvj3gnQwjvHekxII/n48532WWXENm0TAPHFKtvcTpwPOigg4KtZIFU5D2Np588x1BV9kpx6t5n2Hf63XLLLbkJY8rFajVrMg5pxOr8uPj2GBzI5Cz4EOXC1Yt1ZOJ79tlnRyFCxeLEcOyxx3rz4/099NBD49WW+xxjqW91jysvBM2bb74ZxDGJ9s+3k3B7ltHA5clx5513zl2+biaA0cXX51I+VsuFJGnxwp9//vnN9oNzTFGOdnGMx40b510B7eqWkHq0AdpCXuHbxup/wl+79K0j/WDI8ZOvD89bnqo9D5lt4Zm8xvymysIcJqlz/DfvKVuohBoP8H1lX17fVjou77nnnjsKtQcd75NLN36swh673WwbvtWkYES/wH6toaKWQJoR6cEad5EffV/RQntq1+522223XARXvAwQZaQXb3PJc8acod6teN7WeTJvfhdNzvLutXJAxQEDp9y83zxsUqxutMpIX5IUtuiw7i2anCVCiJUv13Cg6gSH119/vWkchdNeJ2nEcekmOYserfoH8KEdQaqH+C5Qz2+99ZY3epWrozK2MhvI5Kwv2ojDH3s0K85DOa9gO9p3333Nd5CxDt+8skTkbFlIKx8hIASEQM0RILSZz5DlPpgc2bfr7rvvbhBoaQeDfGDZx484/wyY4+lZ52UaNlqRs1QpRgVfGFK8QxlYYgxLiwUDTLy3TjjhhEboFqv88WsMKLotTGgIDRTXyzpnTxlILwySnYRqggh58skno0MOOSRixYGVdvzavPPOG9ywKnK2u62M96fVBJb6h5BnIu5Cz3aqMW0Soq/Vqo2ivWXjOjNRTO4pGW/n7pyQ6ngY04emFfpcnBwob5o8VlpppWDkd1od3X0Qnq3IeXBggn711VdHrPxIK0zI2DsdQ5mP+AJby0iGUdEikgY6OQv27FNpYePaK0f+z4qyRx99tCOjJyQV+/0ShjWeXvKcvuCiiy5K2xQ6uo++iFVEyTyTv1kJBKlKG+vEcY0V2qyqJIR5q1XsLj9WXRS171VHwAS4+amnnmraN96V0x1ZTQIxlNU5D+IcItullzyCJ2OUsoTxTTKEelInfjN+GjlyZGMP507GT5ABGLL4NrYyiLs8iczQST+aBqeBQs7yzfatgnL4cgxFbqXBPus9bJPi+y66svB/DNX33Xdfo82knefw7uL0y7iFiAouPd8R8o65TihjLJigq5XfQCdnwXizzTYzsXF44RDJfIwIIlmE+r/jjjtabhVQVkh71xaWWmqplmWm7NwzZsyYiDlvWqGdsRqc8hK212HoO5JHPEpL2nyy3mfpUTQ5i668/+36FxzdcBJyYYfTlBHH1oceeqjlfBFHVEv4rlp4FE3OUj6fgwL6gANjQp/wzj777LMtx6WdzA/j+XSbnEWXhx9+uK2zMnMKvhGPPfZYxJgqrVDn7G966qmnth17UhfHH3982qRz3TeQyVmA451oFVKaumCOxTwv69ZltBPmWXzPrPeea6EiL6VtDCJn0yKl+4SAEBACQqAxmd1zzz29H7Hkxw3vT/aKJGwcE31W17JqBuKRFS3bbLNNtMQSS6QyGJE2g9ey9lx01d2OnOU+Bu7JPTGTWDCIwNAPFoR/dFgw0DvwwAMbKxlYDdzOqO3SrZpBlhCwGDWcfu2O1CVEPJ7RkCPs+YYhG2z22muvhnEATNutHozng7dtUQMpkbPujejukb2M263ip01gDMYYjfEPL8wkOcJkllVYkAHnn39+RCi/VpNj3ssy93R2KGPY4Z1I2y9MPvnkEX0We2AefvjhjfcBsuzEE09spLP99ts3DEy+EHLx94lz3ikmrd0WyIJ2qxuc7pAYfFv4zrAaFgcZDGrXXnttdOaZZzZWd7YzklHuU045pWWxLaJD5Oy/IIMMYqW1q5N2x9lnnz1ab731IvY6Zg+2s846q9Hu+Cb85je/idZcc82IEHTt0uH/OOeweqBIof/g291qUp/UFQcmwrBDDLKX6dFHH914Jwmjve2220arrLJKKjI2ni5GxjINuUVi6tKmr7ZCEMbLzTmOWhBDF198cYN8pI9I7oXNCm3aAu8//eicc87Zsg0RSjirEdPpn+XIGNIKf5ssc/w3ZVl33XUb7wdRFNz4if2IIVcYs7Rb5R1PDzxJowhD9EAhZ6l7ImvEcU2e43BRF4HkYEyRLIPvN/MSyCX6M9ohY5AjjjiiMcdh7gPhtsACC7QcayXTZnuUF154IThkImdbQ3rbbbelmn9BHDE2po+lr03uS8y38s9//nPDSQnnElbtM75K1nP8N3NA6qdMIT8icbQjDJ2ejKEZRzKmpvzMPRlrc8S+wRgcJ65WYZNdWhwZS9D/ll3uuA7uvAxylrpln+5f/vKXLduC04l+A1sB8xEcMdmyiG0errzyysZYfYcddmgbZYe+DIfUVuLyix+L+CYmdWi137fTBScuykkbw5bGGHTrrbdu6VDMs7SrrFIFchbd6UPa2dkcTsyXiQDAYhFwZaxNu2H+xzuOzQ17VSc2t9lmm60RyS4rjp0+N9DJWYeXb+W7q2uO9NmMd5mz4yiG40fSAQ6HIJxkGNPQFnDwbdXX8z/sTWWLyNmyEVd+QkAICIEeQICJcppVtPGPZ95zwrJk9Y7KA3kacpb0MQrywU9LouTBg9V7efYQyYNHu2dZ0ZJ2MpoHg/izkGoMtjvxrm1XjuT/Rc4mEeneb1bxY/iIt4G05xgC0hoDXJrcT9ikbsr48eOjJZdcMlOZXTk6PUIkMZmpikC0LLTQQoVjQPjUNCsjrIgJImf7WgukoW8/z07bYpr7eU8vu+yyPgVKOCMEWppVtGn07+QeyOoyV3eWAGW/LDBQ41jTCbno8MPwj+NEp2MxHDqsVfL9FCv4x4MPPtgxQe/KnfWIEQoyhDDPRclAImeZp7Ry9GKVTp0E4zzj66ztK+tzOErQBxQl9DGWbgN95Wwcb+ZUOGR32peCa5axNn034a27KYz9cKS22kZR15ZddtlGONVulNsqU1nkLOXFGYp33dIj5DWcn9KsqLTyLIOcBYs0q7ct/XzXeAdHjx6dq1lVhZx1hcDZtp1zhw+PLNdxmsBhNNS2Sa4c7Y4iZ/sQIkJDu2hJVt0ytsXpsBMnWtJh4QgRdrohIme7gbryFAJCQAj0AAJ4wxJqFq9Z66MY6hqkWNbQSSFgTkvOurxYjTdkyJBCMMGDvFsDBle+NEeIaryoJ5pookJwcG0Lz2VWzRRJyrryipx1SFTniBHFVy+ujeQ94hGf9MDsFgIYE3GMIexk3nK1eh4DQdErD/NgSPj7Vvpn/R9e9Y8//nhq1VjtmcxL5GwzfBD8aUJXJrFM+5vvACspuvmeEnJujjnmaGoPacuQ9j5WAXzwwQfNIPfoFeqUlTFp8clyH/VWJaIbD39WrRU9fiL9Cy+8MJXBOm/zGkjkLFj5nIgwEjJ3qqOwcmm77bYr9F3k/eVbwdYuReMkcjZ9K2SrkNVXX73QuieCBBGYqiKvvvpqxJw7yzcl7TNsfUQ+3RRL1zLJWcoO8UVkC0uXvNcGDRrU0XzGyq8scpZ8OolAZunqri222GKN1aZ521bVyFnKg06sakyzzZXDo9MjDilE8klD6OfF2Hpe5Gx/VBgPEOmsXfSbTus5fj/tCfsCY/BuicjZbiGvfIWAEBACPYIAE1z2XQ25QgZvJ8Ialu2pZlVJp+SsS4MVGKzEiH/4s54TtqaOoQsZTGGYZ7/KrGVPPodBkdA04EvbK0t8JGC3V9rEy89q6iRe/MYruZeFMGqbbLKJWXYLj3bXWPVy2mmndbQvctn40h9gzGpXlrT/xxOZEFndJLg6wZDJ08knn5xpRUcSE0hWDGSdGoMJKZtMS+SsvxbpK4cNG9aEWRLDtL8Jj8gqtU7rza9h/v8wFoJAzbLSyCo3Y6GddtopIlpAMmRvfm3rkwJGS/YaThuO3cIyeY39rD788MNSxxGdIM74hv5krbXWCvbOsKKYLTX4fpQ5fhpo5OyLL75o1hlhXesuGMbZIoB9vZPvVNbfRKsAs072Us6LI+3f0lcrZ/3IQhgQstrCLcs1vpNHHXVUg2zx59rd/9BX4qTJtzhLGZPP4KBBuG8iwVRBkvrxu2xy1uGAzccaV1s6trtGCNxkiG2XT6ujFRGnLHIWveiX7r///syrQ9n+g/FiKKkiOevKxpiYBQvttqlp11bi/2fbgUcffbSrBB3lEznrarn/kfcDB1XfmDJel2nPsX/cfffdhWzp0V/79r9EzrbHSHcIASEgBIRABwgwWGIvEAxK7DnHnqEQaoRXYVLi/pjYY2gjbB3kEUTmE0880UFO5dyalZyNa8cEgT0vCJXBPryUm/I7LDjym7002VeRfTDYUwRDby8JEy/25GGfYSYQ7E+FsTCOBe2Ea/yPezCgYkzslveiw589LAhHl/yrEjHAu5fUj99VXgXp8A11xNhOGDb2d6TvwRPSR5RwnbbHikkIOvblKdM4GKrMtEFCwW2wwQaNvYfS9Lngw76E3Q7XHAIDohXgHIRBiT6U/tSalFHftAf6YPr1sWPH5s6evj3+zoU04pBWPG13XqVQ01kBxOBzySWXNOqBenPfgvg4gXPGDrRn2ith6QibXyaplLV8PIeeRJBIjoVogxgDaKcc+e2+/azy2HfffSPCmEtsBMB11KhR0eDBgxvjpVbvPP0AODPmYjzBHq1439dRMOZfcMEFjdCHvvET7Sk5fsLppozoIq0wJfy367/ix1bP1P1/OPzEy8p5N1dkFIXnSy+91Pj+ste7m9/E+zg3v3HzPfryoUOHNsYs3R4/J+uH3++//35RUPVUup999llj7/ROxtp859kLEnKySo6tnVQMYxCcQaeffvqG/cKaz8fHLty34YYbNoz/neRT1r2vvfZalPyrQoQuopGAG2Qp40BfqHhIc/7PfXzfWXWfV4gSEO8bujXmfPjhhxt7dPPeWOWn7LQ/CEX2Ui1i/krZ41i4826v+LbqGOdiFnYwNoyPkdx4Oz7mZvst7G2sxDzkkEMqtYUPZePb6LCOH6vwbsaxpx+P6+fOyxpz4tSFo66bR9L3WvN/rvG+MD7G7oxtkTlo1ZxeRc7GW5fOhYAQEAJCQAgkEAhBziaS1E8hIARKRIBJDquKIdgJC8zkhv31QhJpJRZHWaVAAK9j9rKivglZ+tFHH6V4SrcIASFQVwQwzGFUxdDMe8/7Tz8gEQJCQAgIgeIRgMjBKO/GXm+88UajT9ZYu3jsB0IOOGnj6MP3HafjkCtE64AfDhHMZyBGcUqVCAEh0IwAhCt9A7Ye+gr6DN6dOojI2TrUknQUAkJACAiBriEgcrZr0CtjISAEhIAQEAJCQAgIASEgBISAEBACQkAICAEhIASEQM8hIHK256pUBRICQkAICIGQCIicDYmm0hICQkAICAEhIASEgBAQAkJACAgBISAEhIAQEAJCQAgMbAREzg7s+lfphYAQEAJCoA0CImfbAKR/CwEhIASEgBAQAkJACAgBISAEhIAQEAJCQAgIASEgBIRAagREzqaGSjcKASEgBITAQERA5OxArHWVWQgIASEgBISAEBACQkAICAEhIASEgBAQAkJACAgBIVAMAiJni8FVqQoBISAEhECPICBytkcqUsUQAkJACAgBISAEhIAQEAJCQAgIASEgBISAEBACQkAIVAABkbMVqASpIASEgBAQAtVFQORsdetGmgkBISAEhIAQEAJCQAgIASEgBISAEBACQkAICAEhIATqhoDI2brVmPQVAkJACAiBUhEQOVsq3MpMCAgBISAEhIAQEAJCQAgIASEgBISAEBACQkAICAEh0NMIiJzt6epV4YSAEBACQiAvAiJn8yKo54WAEBACQkAICAEhIASEgBAQAkJACAgBISAEhIAQEAJCwCEgctYhoaMQEAJCQAgIAQMBkbMGKLokBISAEBACQkAICAEhIASEgBAQAkJACAgBISAEhIAQEAKZEBA5mwk2PSQEhIAQEAIDBQGRswOlplVOISAEhIAQEAJCQAgIASEgBISAEBACQkAICAEhIASEQPEIiJwtHmPlIASEgBAQAjVGQORsjStPqgsBISAEhIAQEAJCQAgIASEgBISAEBACQkAICAEhIAQqhoDI2YpViNQRAkJACAiBaiEgcrZa9SFthIAQEAJCQAgIASEgBISAEBACQkAICAEhIASEgBAQAnVGQORsnWtPugsBISAEhEDhCG/xI/EAAALISURBVIicLRxiZSAEhIAQEAJCQAgIASEgBISAEBACQkAICAEhIASEgBAYMAiInB0wVa2CCgEhIASEQBYERM5mQU3PCAEhIASEgBAQAkJACAgBISAEhIAQEAJCQAgIASEgBISAhYDIWQsVXRMCQkAICAEh8H8IiJxVUxACQkAICAEhIASEgBAQAkJACAgBISAEhIAQEAJCQAgIgVAIiJwNhaTSEQJCQAgIgZ5EQORsT1arCiUEhIAQEAJCQAgIASEgBISAEBACQkAICAEhIASEgBDoCgIiZ7sCuzIVAkJACAiBuiAgcrYuNSU9hYAQEAJCQAgIASEgBISAEBACQkAICAEhIASEgBAQAtVHQORs9etIGgoBISAEhEAXERA520XwlbUQEAJCQAgIASEgBISAEBACQkAICAEhIASEgBAQAkKgxxAQOdtjFariCAEhIASEQFgERM6GxVOpCQEhIASEgBAQAkJACAgBISAEhIAQEAJCQAgIASEgBAYyAiJnB3Ltq+xCQAgIASHQFoHDDz88Gjp0aNPf3//+97bP6gYhIASEgBAQAkJACAgBISAEhIAQEAJCQAgIASEgBISAEBACcQREzsbR0LkQEAJCQAgIASEgBISAEBACQkAICAEhIASEgBAQAkJACAgBISAEhIAQEAJCoCAERM4WBKySFQJCQAgIASEgBISAEBACQkAICAEhIASEgBAQAkJACAgBISAEhIAQEAJCQAjEERA5G0dD50JACAgBISAEhIAQEAJCQAgIASEgBISAEBACQkAICAEhIASEgBAQAkJACAiBghAQOVsQsEpWCAgBISAEhIAQEAJCQAgIASEgBISAEBACQkAICAEhIASEgBAQAkJACAgBIRBHQORsHA2dCwEhIASEgBAQAkJACAgBISAEhIAQEAJCQAgIASEgBISAEBACQkAICAEhIAQKQuD/ByVfgFs1wRwXAAAAAElFTkSuQmCC;" vertex="1" parent="1">
          <mxGeometry x="229.5" y="369" width="249" height="52.04" as="geometry" />
        </mxCell>
        <mxCell id="gNN2da5b-dhJhMU2A_-u-6" value="" style="shape=image;verticalLabelPosition=bottom;labelBackgroundColor=default;verticalAlign=top;aspect=fixed;imageAspect=0;image=https://upload.wikimedia.org/wikipedia/commons/thumb/3/3a/Slurm_logo.svg/1200px-Slurm_logo.svg.png;" vertex="1" parent="1">
          <mxGeometry x="222" y="199" width="70" height="64.05" as="geometry" />
        </mxCell>
        <mxCell id="gNN2da5b-dhJhMU2A_-u-17" style="edgeStyle=orthogonalEdgeStyle;rounded=0;orthogonalLoop=1;jettySize=auto;html=1;exitX=0.25;exitY=0;exitDx=0;exitDy=0;" edge="1" parent="1" source="gNN2da5b-dhJhMU2A_-u-8" target="gNN2da5b-dhJhMU2A_-u-16">
          <mxGeometry relative="1" as="geometry" />
        </mxCell>
        <mxCell id="gNN2da5b-dhJhMU2A_-u-8" value="" style="shape=image;verticalLabelPosition=bottom;labelBackgroundColor=default;verticalAlign=top;aspect=fixed;imageAspect=0;image=https://modules.sourceforge.net/modules_red.svg;" vertex="1" parent="1">
          <mxGeometry x="312" y="212.66000000000003" width="172" height="50.39" as="geometry" />
        </mxCell>
        <mxCell id="gNN2da5b-dhJhMU2A_-u-9" value="" style="shape=image;verticalLabelPosition=bottom;labelBackgroundColor=default;verticalAlign=top;aspect=fixed;imageAspect=0;image=https://miro.medium.com/v2/resize:fit:1400/1*BvLLD75gwk4EnPP4oo2cLQ.png;" vertex="1" parent="1">
          <mxGeometry x="246" y="49.999999999999986" width="214" height="56.26" as="geometry" />
        </mxCell>
        <mxCell id="gNN2da5b-dhJhMU2A_-u-10" value="&lt;font style=&quot;font-size: 20px;&quot;&gt;硬件: Mac Mini&lt;/font&gt;" style="text;html=1;strokeColor=none;fillColor=none;align=center;verticalAlign=middle;whiteSpace=wrap;rounded=0;" vertex="1" parent="1">
          <mxGeometry x="230.5" y="594" width="249" height="30" as="geometry" />
        </mxCell>
        <mxCell id="gNN2da5b-dhJhMU2A_-u-12" value="&lt;font style=&quot;font-size: 20px;&quot;&gt;虚拟化：Proxmox&lt;/font&gt;" style="text;html=1;strokeColor=none;fillColor=none;align=center;verticalAlign=middle;whiteSpace=wrap;rounded=0;" vertex="1" parent="1">
          <mxGeometry x="240" y="429" width="249" height="30" as="geometry" />
        </mxCell>
        <mxCell id="gNN2da5b-dhJhMU2A_-u-14" value="&lt;font style=&quot;font-size: 20px;&quot;&gt;管理软件：Slurm Modules&lt;/font&gt;" style="text;html=1;strokeColor=none;fillColor=none;align=center;verticalAlign=middle;whiteSpace=wrap;rounded=0;" vertex="1" parent="1">
          <mxGeometry x="240" y="279" width="249" height="30" as="geometry" />
        </mxCell>
        <mxCell id="gNN2da5b-dhJhMU2A_-u-15" style="edgeStyle=orthogonalEdgeStyle;rounded=0;orthogonalLoop=1;jettySize=auto;html=1;entryX=0.461;entryY=1;entryDx=0;entryDy=0;entryPerimeter=0;" edge="1" parent="1" source="gNN2da5b-dhJhMU2A_-u-5" target="gNN2da5b-dhJhMU2A_-u-14">
          <mxGeometry relative="1" as="geometry" />
        </mxCell>
        <mxCell id="gNN2da5b-dhJhMU2A_-u-16" value="&lt;font style=&quot;font-size: 20px;&quot;&gt;超算应用：MPI, Python, C/C++&lt;/font&gt;" style="text;html=1;strokeColor=none;fillColor=none;align=center;verticalAlign=middle;whiteSpace=wrap;rounded=0;" vertex="1" parent="1">
          <mxGeometry x="191" y="120" width="328" height="30" as="geometry" />
        </mxCell>
      </root>
    </mxGraphModel>
  </diagram>
</mxfile>
